<?xml version="1.0" encoding="UTF-8"?>
<svg xmlns="http://www.w3.org/2000/svg" xmlns:xlink="http://www.w3.org/1999/xlink" viewBox="0 0 50 50" version="1.1" width="50px" height="50px">
<g id="surface1">
<path style=" " d="M 25 1 C 24.449219 1 24 1.449219 24 2 L 24 16 L 26 16 L 26 2 C 26 1.449219 25.554688 1 25 1 Z M 26 16 L 26 32.59375 L 32.28125 26.28125 C 32.671875 25.890625 33.328125 25.890625 33.71875 26.28125 C 34.109375 26.671875 34.109375 27.328125 33.71875 27.71875 L 25 36.40625 L 16.28125 27.71875 C 15.890625 27.328125 15.890625 26.671875 16.28125 26.28125 C 16.671875 25.890625 17.328125 25.890625 17.71875 26.28125 L 24 32.59375 L 24 16 L 7 16 L 7 50 L 43 50 L 43 16 Z "/>
</g>
</svg>
