<?xml version="1.0" encoding="utf-8"?>
<!-- Generator: Adobe Illustrator 12.0.0, SVG Export Plug-In . SVG Version: 6.00 Build 51448)  -->
<!DOCTYPE svg PUBLIC "-//W3C//DTD SVG 1.1//EN" "http://www.w3.org/Graphics/SVG/1.1/DTD/svg11.dtd" [
	<!ENTITY ns_svg "http://www.w3.org/2000/svg">
	<!ENTITY ns_xlink "http://www.w3.org/1999/xlink">
]>
<svg  version="1.1" id="Layer_1" xmlns="&ns_svg;" xmlns:xlink="&ns_xlink;" width="62" height="62" viewBox="1.5 1.39 62 62"
	 overflow="visible" enable-background="new 1.5 1.39 62 62" xml:space="preserve">
<g>
	<g>
		<path fill="none" stroke="#FFFFFF" stroke-width="3" d="M3.5,32.78c0-16.29,13.21-29.5,29.5-29.5c16.289,0,29.5,13.21,29.5,29.5
			c0,16.289-13.211,29.5-29.5,29.5C16.71,62.28,3.5,49.069,3.5,32.78z"/>
	</g>
</g>
<g>
	<path fill="#FFFFFF" d="M51.361,29.288c-3.536-3.538-7.074-7.075-10.611-10.613c-3.35-3.35-8.525,1.863-5.163,5.225
		c1.438,1.438,2.888,2.888,4.325,4.325c-8.125,0-16.25,0-24.375,0c-4.738,0-4.788,7.351-0.05,7.351c8.138,0,16.288,0,24.425,0
		c-1.45,1.449-2.9,2.899-4.35,4.35c-3.351,3.35,1.861,8.525,5.225,5.162c3.538-3.537,7.074-7.074,10.611-10.611
		C52.813,33.063,52.775,30.7,51.361,29.288z"/>
</g>
</svg>
