<?xml version="1.0" encoding="utf-8"?>
<!-- Generator: Adobe Illustrator 12.0.0, SVG Export Plug-In . SVG Version: 6.00 Build 51448)  -->
<!DOCTYPE svg PUBLIC "-//W3C//DTD SVG 1.1//EN" "http://www.w3.org/Graphics/SVG/1.1/DTD/svg11.dtd" [
	<!ENTITY ns_svg "http://www.w3.org/2000/svg">
	<!ENTITY ns_xlink "http://www.w3.org/1999/xlink">
]>
<svg  version="1.1" id="Layer_1" xmlns="&ns_svg;" xmlns:xlink="&ns_xlink;" width="62" height="62" viewBox="1.5 1.39 62 62"
	 overflow="visible" enable-background="new 1.5 1.39 62 62" xml:space="preserve">
<g>
	<g>
		<path fill="none" stroke="#FFFFFF" stroke-width="3" d="M3.5,32.78c0-16.29,13.21-29.5,29.5-29.5c16.289,0,29.5,13.21,29.5,29.5
			c0,16.288-13.211,29.499-29.5,29.499C16.71,62.279,3.5,49.068,3.5,32.78z"/>
	</g>
</g>
<g>
	<path fill="#FFFFFF" d="M49.45,28.225c-8.138,0-16.288,0-24.425,0c1.45-1.45,2.9-2.9,4.35-4.35c3.35-3.35-1.862-8.525-5.225-5.163
		c-3.538,3.538-7.075,7.075-10.612,10.613c-1.425,1.425-1.388,3.787,0.025,5.188c3.538,3.537,7.075,7.074,10.612,10.611
		c3.35,3.351,8.525-1.861,5.163-5.225c-1.438-1.438-2.887-2.887-4.325-4.324c8.125,0,16.25,0,24.375,0
		C54.139,35.576,54.175,28.225,49.45,28.225z"/>
</g>
</svg>
