<!--?xml version="1.0" encoding="utf-8"?-->
<!-- Generator: Adobe Illustrator 18.1.1, SVG Export Plug-In . SVG Version: 6.00 Build 0)  -->

<svg version="1.1" id="_x32_" xmlns="http://www.w3.org/2000/svg" xmlns:xlink="http://www.w3.org/1999/xlink" x="0px" y="0px" viewBox="0 0 512 512" style="width: 256px; height: 256px; opacity: 1;" xml:space="preserve">
<style type="text/css">
	.st0{fill:#4B4B4B;}
</style>
<g>
	<path class="st0" d="M473.116,132.356c-19.566-20.047-45.464-33.981-74.324-39.016c-8.798-23.679-23.663-44.37-42.81-60.034
		c-24.144-19.76-55.24-31.684-88.864-31.669c-33.966-0.015-65.371,12.142-89.624,32.274c-18.216,15.09-32.569,34.703-41.336,57.156
		c-37.442,0.17-71.562,15.469-96.094,40.032C15.362,155.771-0.016,190.147,0,227.837c-0.016,37.682,15.362,72.059,40.063,96.731
		c24.672,24.71,59.041,40.087,96.731,40.071c11.832,0,28.046,0,46.596,0v-53.936c-18.55,0-34.765,0-46.596,0
		c-22.964-0.015-43.508-9.232-58.591-24.275c-15.036-15.083-24.252-35.61-24.268-58.591c0.016-22.972,9.232-43.517,24.268-58.598
		c15.083-15.028,35.626-24.245,58.591-24.26c4.624,0,9.356,0.48,14.306,1.334l25.912,4.531l5.167-25.788
		c3.957-19.776,14.694-37.155,29.714-49.607c15.051-12.451,34.137-19.861,55.224-19.876c20.87,0.015,39.754,7.277,54.727,19.496
		c14.958,12.226,25.726,29.318,29.932,48.776l4.469,20.715l21.18,0.558c22.421,0.598,42.453,9.985,57.101,24.935
		c14.601,14.997,23.523,35.2,23.539,57.784c-0.016,22.98-9.232,43.508-24.268,58.591c-15.082,15.043-35.626,24.26-58.59,24.275
		c-11.731,0-27.961,0-46.581,0v53.936c18.62,0,34.85,0,46.581,0c37.689,0.016,72.059-15.362,96.73-40.071
		c24.702-24.672,40.079-59.033,40.063-96.731C512.016,190.761,497.135,156.896,473.116,132.356z" style="fill: rgb(75, 75, 75);"></path>
	<polygon class="st0" points="296.848,223.865 215.168,223.865 215.168,399.761 162.66,399.761 256.008,510.363 349.356,399.761 
		296.848,399.761 	" style="fill: rgb(75, 75, 75);"></polygon>
</g>
</svg>
