<svg id="レイヤー_1" data-name="レイヤー 1" xmlns="http://www.w3.org/2000/svg" viewBox="0 0 512 512"><defs><style>.cls-1{fill:#231815;}.cls-2{fill:#fff;}</style></defs><title>contendo-symbol</title><path class="cls-1" d="M459,247c0-98.32-76.59-178.71-173.35-184.87C263.33,51.71,250,39.26,255,9.31c-40.12,81-67.14,87.31-121.59,28.49,5,86.26-14.71,105.63-88.71,87.15C89.27,193.45,81.34,221.36,9,250.51c70.58,18.19,72,34.39,6.27,72.9,72.5-6.81,77.68,7.82,23.34,65.86,68.32-31.2,77.09-19.11,39.51,54.44,72.9-38,104.79-24.89,143.52,59,33.74-81.18,62.37-89,128.79-35.19-11.87-39.22-2-43.73,12-57.78A185.26,185.26,0,0,0,459,247Z"/><path class="cls-2" d="M371.4,104.88l24.86,75.89H389a216.62,216.62,0,0,0-21.8-34.64,121.6,121.6,0,0,0-23.8-23.5A88.81,88.81,0,0,0,317,109.34a109.53,109.53,0,0,0-31.67-4.26,114.43,114.43,0,0,0-46.77,9.57,111.51,111.51,0,0,0-37.63,27,124.41,124.41,0,0,0-24.75,41.24,145.83,145.83,0,0,0-8.84,51.24q0,41.46,16.38,75.57t45,53.57a110.17,110.17,0,0,0,63.43,19.45,109,109,0,0,0,45-9.35,114,114,0,0,0,37.29-27q16.36-17.62,28.5-44.42h8.7q-17.85,47.19-53.79,71.52T270,397.84q-60.57,0-100.35-32.74a142.66,142.66,0,0,1-28.58-32.31,147.92,147.92,0,0,1-17.75-39.65,160.73,160.73,0,0,1-6.18-44.34q0-42.28,21.39-77.39t58.88-55.14q37.51-20.11,83-20.12,19.14,0,50.38,5.53c14.44,2.69,24.95,4.06,31.47,4.06A53.3,53.3,0,0,0,371.4,104.88Z"/><path class="cls-2" d="M200.12,181.88l-4.06,48.61h5.73l.22-.72c3.76-12.72,9.55-22.86,17.18-30.18s16.07-10.93,25.18-10.93a25.36,25.36,0,0,1,11.7,2.59,17.48,17.48,0,0,1,7.48,6.92c2.16,3.6,3.24,9.5,3.24,17.54v100c0,6.52-.4,11.53-1.22,14.92a18.46,18.46,0,0,1-4.39,8.46c-4.81,5.13-12.62,8.49-23.19,10l-.88.12v5.75h61.71l6.13.24a79.64,79.64,0,0,0,26.78-4.3,59.94,59.94,0,0,0,20.79-12.34A54.25,54.25,0,0,0,366,319.09a64.87,64.87,0,0,0,4.69-24.77,64,64,0,0,0-4.57-24.45,56,56,0,0,0-12.94-19.23,58.49,58.49,0,0,0-19.81-12.44A71.6,71.6,0,0,0,308,233.87l-10.1.47V215.71c0-7.4.8-12.81,2.4-16.09a18.46,18.46,0,0,1,7.68-8,24.8,24.8,0,0,1,12.35-2.93,33.91,33.91,0,0,1,17.45,4.93,47,47,0,0,1,14.72,14.16,76.52,76.52,0,0,1,10.07,22l.22.72h5.85l-4.05-48.61Zm102.4,57.28a39.25,39.25,0,0,1,22.62,7A46.51,46.51,0,0,1,341,265.32a65.58,65.58,0,0,1,5.75,27.88,74.3,74.3,0,0,1-3.24,22.14,52.62,52.62,0,0,1-9.35,17.74,43,43,0,0,1-14.3,11.46c-2.31,1.15-6.3,1.24-6.34,1.24-3.81-.89-5.71-2.65-7.91-4.68l-.8-.73a18.38,18.38,0,0,1-5.47-8.62c-1-3.39-1.47-8.79-1.47-16.07v-76Z"/><path class="cls-2" d="M371.4,104.88l24.86,75.89H389a216.62,216.62,0,0,0-21.8-34.64,121.6,121.6,0,0,0-23.8-23.5A88.81,88.81,0,0,0,317,109.34a109.53,109.53,0,0,0-31.67-4.26,114.43,114.43,0,0,0-46.77,9.57,111.51,111.51,0,0,0-37.63,27,124.41,124.41,0,0,0-24.75,41.24,145.83,145.83,0,0,0-8.84,51.24q0,41.46,16.38,75.57t45,53.57a110.17,110.17,0,0,0,63.43,19.45,109,109,0,0,0,45-9.35,114,114,0,0,0,37.29-27q16.36-17.62,28.5-44.42h8.7q-17.85,47.19-53.79,71.52T270,397.84q-60.57,0-100.35-32.74a142.66,142.66,0,0,1-28.58-32.31,147.92,147.92,0,0,1-17.75-39.65,160.73,160.73,0,0,1-6.18-44.34q0-42.28,21.39-77.39t58.88-55.14q37.51-20.11,83-20.12,19.14,0,50.38,5.53c14.44,2.69,24.95,4.06,31.47,4.06A53.3,53.3,0,0,0,371.4,104.88Z"/><path class="cls-2" d="M200.12,181.88l-4.06,48.61h5.73l.22-.72c3.76-12.72,9.55-22.86,17.18-30.18s16.07-10.93,25.18-10.93a25.36,25.36,0,0,1,11.7,2.59,17.48,17.48,0,0,1,7.48,6.92c2.16,3.6,3.24,9.5,3.24,17.54v100c0,6.52-.4,11.53-1.22,14.92a18.46,18.46,0,0,1-4.39,8.46c-4.81,5.13-12.62,8.49-23.19,10l-.88.12v5.75h61.71l6.13.24a79.64,79.64,0,0,0,26.78-4.3,59.94,59.94,0,0,0,20.79-12.34A54.25,54.25,0,0,0,366,319.09a64.87,64.87,0,0,0,4.69-24.77,64,64,0,0,0-4.57-24.45,56,56,0,0,0-12.94-19.23,58.49,58.49,0,0,0-19.81-12.44A71.6,71.6,0,0,0,308,233.87l-10.1.47V215.71c0-7.4.8-12.81,2.4-16.09a18.46,18.46,0,0,1,7.68-8,24.8,24.8,0,0,1,12.35-2.93,33.91,33.91,0,0,1,17.45,4.93,47,47,0,0,1,14.72,14.16,76.52,76.52,0,0,1,10.07,22l.22.72h5.85l-4.05-48.61Zm102.4,57.28a39.25,39.25,0,0,1,22.62,7A46.51,46.51,0,0,1,341,265.32a65.58,65.58,0,0,1,5.75,27.88,74.3,74.3,0,0,1-3.24,22.14,52.62,52.62,0,0,1-9.35,17.74,43,43,0,0,1-14.3,11.46c-2.31,1.15-6.3,1.24-6.34,1.24-3.81-.89-5.71-2.65-7.91-4.68l-.8-.73a18.38,18.38,0,0,1-5.47-8.62c-1-3.39-1.47-8.79-1.47-16.07v-76Z"/></svg>