<?xml version="1.0" encoding="utf-8"?>
<!-- Generator: Adobe Illustrator 12.0.0, SVG Export Plug-In . SVG Version: 6.00 Build 51448)  -->
<!DOCTYPE svg PUBLIC "-//W3C//DTD SVG 1.1//EN" "http://www.w3.org/Graphics/SVG/1.1/DTD/svg11.dtd" [
	<!ENTITY ns_svg "http://www.w3.org/2000/svg">
	<!ENTITY ns_xlink "http://www.w3.org/1999/xlink">
]>
<svg  version="1.1" id="レイヤー_1" xmlns="&ns_svg;" xmlns:xlink="&ns_xlink;" width="24" height="24" viewBox="0 0 24 24"
	 overflow="visible" enable-background="new 0 0 24 24" xml:space="preserve">
<path fill="#FFFFFF" d="M14,3c-1.1,0-2,0.9-2,2v9l3-3h5c1.1,0,2-0.9,2-2V5c0-1.1-0.9-2-2-2H14z M7,9c-1.682,0-3,1.317-3,3
	c0,1.684,1.318,3,3,3s3-1.316,3-3C10,10.317,8.682,9,7,9z M7,16c-2.851,0-5,1.455-5,3.385V21h10v-1.615C12,17.455,9.851,16,7,16z"/>
</svg>
