<?xml version="1.0" encoding="utf-8"?>
<!-- Generator: Adobe Illustrator 12.0.0, SVG Export Plug-In . SVG Version: 6.00 Build 51448)  -->
<!DOCTYPE svg PUBLIC "-//W3C//DTD SVG 1.1//EN" "http://www.w3.org/Graphics/SVG/1.1/DTD/svg11.dtd" [
	<!ENTITY ns_svg "http://www.w3.org/2000/svg">
	<!ENTITY ns_xlink "http://www.w3.org/1999/xlink">
]>
<svg  version="1.1" id="レイヤー_1" xmlns="&ns_svg;" xmlns:xlink="&ns_xlink;" width="128" height="128" viewBox="0 0 128 128"
	 overflow="visible" enable-background="new 0 0 128 128" xml:space="preserve">
<g>
	<path fill="#161D21" d="M111.535,124.271H15.112c-3.835,0-7.104-2.813-7.729-6.665l-2.825-16.267h117.534l-2.825,16.267
		C118.63,121.446,115.36,124.271,111.535,124.271z"/>
	
		<linearGradient id="XMLID_539_" gradientUnits="userSpaceOnUse" x1="79.251" y1="21.3989" x2="215.105" y2="-114.452" gradientTransform="matrix(0.7813 0 0 -0.7813 -51.2969 20.9297)">
		<stop  offset="0.2239" style="stop-color:#434343"/>
		<stop  offset="0.5619" style="stop-color:#323535"/>
		<stop  offset="0.8997" style="stop-color:#404141"/>
	</linearGradient>
	<path fill="url(#XMLID_539_)" d="M114.02,108.744H12.629c-4.46,0-8.072-3.676-8.072-8.216V13.304c0-4.539,3.612-8.215,8.072-8.215
		h101.39c4.459,0,8.071,3.676,8.071,8.215v87.234C122.091,105.068,118.479,108.744,114.02,108.744z"/>
	<path fill="#E53A35" d="M40.58,54.626H18.351c-3.34,0-6.054-2.762-6.054-6.161V16.683c0-3.399,2.714-6.161,6.054-6.161H40.58
		c3.34,0,6.054,2.762,6.054,6.161v31.782C46.634,51.865,43.92,54.626,40.58,54.626z"/>
	<g opacity="0.2">
		<path fill="#EEEEEE" d="M113.694,8.581c2.896,0,5.248,2.393,5.248,5.34v86.578c0,0.194-0.02,0.421-0.05,0.719
			c-0.031,0.194-0.031,0.4-0.021,0.595l-2.705,15.567c-0.373,2.312-2.32,3.985-4.621,3.985H15.112c-2.301,0-4.248-1.674-4.632-4.015
			l-2.704-15.538c0.01-0.194,0-0.4-0.02-0.595c-0.041-0.288-0.051-0.513-0.051-0.719V13.92c0-2.947,2.351-5.34,5.248-5.34H113.694
			 M113.694,5.377H12.953c-4.632,0-8.396,3.82-8.396,8.543v86.578c0,0.39,0.03,0.76,0.081,1.14H4.557l2.825,16.265
			c0.625,3.842,3.895,6.664,7.729,6.664h96.423c3.835,0,7.105-2.813,7.73-6.664l2.825-16.265h-0.082
			c0.053-0.369,0.082-0.75,0.082-1.14V13.92C122.091,9.197,118.327,5.377,113.694,5.377z"/>
	</g>
	<path fill="#E53A35" d="M12.014,95.291V70.585c0-3.399,2.714-6.162,6.054-6.162h50.625c3.34,0,6.053,2.763,6.053,6.162v24.696
		c0,3.399-2.713,6.161-6.053,6.161H18.068C14.718,101.452,12.014,98.691,12.014,95.291z"/>
	<path fill="#E53A35" d="M82.777,94.747V71.129c0-3.399,2.716-6.161,6.055-6.161h19.465c3.34,0,6.054,2.762,6.054,6.161v23.618
		c0,3.4-2.714,6.161-6.054,6.161H88.832C85.493,100.908,82.777,98.157,82.777,94.747z"/>
	<path fill="#E53A35" d="M109.266,55.15H59.591c-3.341,0-6.056-2.762-6.056-6.162V16.683c0-3.399,2.715-6.161,6.056-6.161h49.674
		c3.34,0,6.054,2.762,6.054,6.161v32.316C115.319,52.398,112.605,55.15,109.266,55.15z"/>
	<rect x="95.795" y="68.017" fill="#A16541" width="0.958" height="1.007"/>
	<g>
		<defs>
			<path id="XMLID_419_" d="M12.014,97.099V68.622c0-4.518,3.632-8.214,8.072-8.214h48.606c3.34,0,6.053,2.763,6.053,6.161v30.541
				c0,3.398-2.713,6.161-6.053,6.161H18.068C14.718,103.26,12.014,100.508,12.014,97.099z"/>
		</defs>
		<clipPath id="XMLID_540_">
			<use xlink:href="#XMLID_419_" />
		</clipPath>
		
			<radialGradient id="XMLID_541_" cx="127.9141" cy="-39.375" r="42.3864" gradientTransform="matrix(1.009 0 0 -1.0269 -87.4174 23.2022)" gradientUnits="userSpaceOnUse">
			<stop  offset="0.4088" style="stop-color:#FFFFFF"/>
			<stop  offset="0.724" style="stop-color:#ECEFF0"/>
			<stop  offset="0.9654" style="stop-color:#D0D8DC"/>
		</radialGradient>
		<path clip-path="url(#XMLID_540_)" fill="url(#XMLID_541_)" d="M78.177,105.828H7.494l0.928-18.228
			C9.29,76.119,18.916,66.785,30.146,65.358c3.562-0.452,7.759-0.73,12.694-0.73c4.933,0,9.131,0.278,12.693,0.73
			c11.222,1.427,20.856,10.761,21.725,22.242L78.177,105.828z"/>
	</g>
	<g>
		<defs>
			<path id="XMLID_422_" d="M12.014,97.099V68.622c0-4.518,3.632-8.214,8.072-8.214h48.606c3.34,0,6.053,2.763,6.053,6.161v30.541
				c0,3.398-2.713,6.161-6.053,6.161H18.068C14.718,103.26,12.014,100.508,12.014,97.099z"/>
		</defs>
		<clipPath id="XMLID_542_">
			<use xlink:href="#XMLID_422_" />
		</clipPath>
		<g clip-path="url(#XMLID_542_)">
			
				<radialGradient id="XMLID_543_" cx="126.8496" cy="-45.8306" r="39.2006" gradientTransform="matrix(1.009 0 0 -1.0269 -87.4174 23.2022)" gradientUnits="userSpaceOnUse">
				<stop  offset="0.2277" style="stop-color:#FFFFFF"/>
				<stop  offset="0.6304" style="stop-color:#ECEFF0"/>
				<stop  offset="0.9654" style="stop-color:#D0D8DC"/>
			</radialGradient>
			<ellipse fill="url(#XMLID_543_)" cx="75.978" cy="102.213" rx="4.339" ry="4.415"/>
			
				<radialGradient id="XMLID_544_" cx="127.9131" cy="-39.3745" r="42.3875" gradientTransform="matrix(1.009 0 0 -1.0269 -87.4174 23.2022)" gradientUnits="userSpaceOnUse">
				<stop  offset="0.4088" style="stop-color:#FFFFFF"/>
				<stop  offset="0.724" style="stop-color:#ECEFF0"/>
				<stop  offset="0.9654" style="stop-color:#D0D8DC"/>
			</radialGradient>
			<path fill="url(#XMLID_544_)" d="M77.259,90.957c1.141-0.8,1.888-2.126,1.888-3.646c0-1.334-0.586-2.524-1.516-3.337
				c-0.664-0.574-0.906-1.509-0.756-2.382c0.041-0.246,0.06-0.493,0.06-0.75c0-2.443-1.946-4.415-4.337-4.415
				c-0.021,0-0.031,0-0.052,0.011c0.041-0.257,0.081-0.515,0.081-0.781c0-2.444-1.946-4.415-4.34-4.415
				c0-2.444-1.947-4.416-4.338-4.416c-0.182,0-0.354,0.01-0.524,0.03c-0.857,0.112-1.676-0.329-2.22-1.006
				c-0.787-0.985-1.988-1.623-3.34-1.623c-0.614,0-1.19,0.134-1.715,0.37c-0.645,0.298-1.433,0.175-1.957-0.308
				c-0.768-0.699-1.766-1.13-2.886-1.13c-0.747,0-1.443,0.194-2.048,0.534c-0.636,0.359-1.463,0.276-1.979-0.247
				c-0.776-0.79-1.846-1.283-3.036-1.283c-0.878,0-1.685,0.267-2.372,0.729c-0.656,0.441-1.473,0.441-2.129,0
				c-0.676-0.462-1.493-0.729-2.371-0.729c-1.272,0-2.412,0.555-3.199,1.438c-0.545,0.616-1.433,0.8-2.209,0.555
				c-0.394-0.123-0.818-0.195-1.262-0.195c-0.998,0-1.917,0.35-2.644,0.924c-0.787,0.627-1.766,0.966-2.745,0.75
				c-0.282-0.062-0.586-0.093-0.888-0.093c-2.119,0-3.875,1.54-4.258,3.584c-0.182-0.021-0.363-0.051-0.545-0.051
				c-2.26,0-4.086,1.756-4.298,3.994h-0.041c-2.401,0-4.339,1.982-4.339,4.414v0.115c0.02,0.801-0.363,1.53-1.019,1.971
				c-1.172,0.792-1.948,2.137-1.948,3.667c0,0.872,0.262,1.684,0.686,2.371c-0.726,0.791-1.18,1.849-1.18,3.02
				c0,1.294,0.555,2.454,1.433,3.265c-0.878,0.813-1.443,1.973-1.443,3.276c0,1.448,0.696,2.722,1.756,3.532
				c-1.251,0.956-1.998,2.568-1.686,4.344c0.303,1.726,1.645,3.143,3.34,3.502c2.805,0.596,5.267-1.571,5.267-4.323
				c0-1.447-0.697-2.722-1.755-3.531c1.059-0.802,1.755-2.086,1.755-3.533c0-1.294-0.555-2.454-1.433-3.267
				c0.878-0.811,1.443-1.971,1.443-3.275c0-0.872-0.263-1.684-0.686-2.372c0.726-0.79,1.18-1.848,1.18-3.02
				c0-0.521-0.101-1.026-0.273-1.489c1.726-0.462,3.017-1.972,3.199-3.828h0.04c2.119,0,3.875-1.542,4.259-3.585
				c0.181,0.021,0.363,0.052,0.544,0.052c1.666,0,3.098-0.966,3.825-2.362c0.696,0.494,1.544,0.78,2.452,0.78
				c1.816,0,3.36-1.129,4.016-2.741c0.737,0.584,1.655,0.944,2.654,0.944c1.402,0,2.643-0.688,3.43-1.746
				c0.797,1.048,2.029,1.746,3.431,1.746c1.271,0,2.401-0.565,3.198-1.448c0.716,1.448,2.169,2.444,3.865,2.444
				c1.089,0,2.079-0.421,2.835-1.099c0.756,1.293,2.129,2.177,3.724,2.177c0.707,0,1.372-0.186,1.957-0.493
				c0.556,1.787,2.18,3.092,4.117,3.092c0,2.442,1.948,4.415,4.339,4.415c0.02,0,0.03,0,0.051-0.011
				c-0.04,0.257-0.08,0.515-0.08,0.781c0,1.909,1.2,3.521,2.864,4.138c-0.412,0.678-0.664,1.469-0.664,2.32
				c0,1.983,1.291,3.637,3.047,4.2c-1.332,0.925-2.129,2.587-1.827,4.416c0.292,1.746,1.646,3.184,3.34,3.543
				c2.805,0.596,5.278-1.571,5.278-4.313C80.316,93.176,79.025,91.522,77.259,90.957z"/>
		</g>
	</g>
	<g>
		<defs>
			<path id="XMLID_426_" d="M12.014,97.099V68.622c0-4.518,3.632-8.214,8.072-8.214h48.606c3.34,0,6.053,2.763,6.053,6.161v30.541
				c0,3.398-2.713,6.161-6.053,6.161H18.068C14.718,103.26,12.014,100.508,12.014,97.099z"/>
		</defs>
		<clipPath id="XMLID_545_">
			<use xlink:href="#XMLID_426_" />
		</clipPath>
		<ellipse clip-path="url(#XMLID_545_)" fill="#B0BEC5" cx="42.224" cy="74.24" rx="5.228" ry="4.354"/>
	</g>
	<g>
		<defs>
			<path id="XMLID_428_" d="M12.014,97.099V68.622c0-4.518,3.632-8.214,8.072-8.214h48.606c3.34,0,6.053,2.763,6.053,6.161v30.541
				c0,3.398-2.713,6.161-6.053,6.161H18.068C14.718,103.26,12.014,100.508,12.014,97.099z"/>
		</defs>
		<clipPath id="XMLID_546_">
			<use xlink:href="#XMLID_428_" />
		</clipPath>
		
			<radialGradient id="XMLID_547_" cx="126.999" cy="10.9727" r="4.5057" gradientTransform="matrix(1.009 0 0 -1.1749 -87.4174 83.9507)" gradientUnits="userSpaceOnUse">
			<stop  offset="0.1384" style="stop-color:#F47C20"/>
			<stop  offset="0.8823" style="stop-color:#E45325"/>
		</radialGradient>
		<ellipse clip-path="url(#XMLID_546_)" fill="url(#XMLID_547_)" cx="42.224" cy="72.412" rx="5.228" ry="4.354"/>
	</g>
	<g>
		<defs>
			<path id="XMLID_431_" d="M24.645,101.197l-27.63-4.487c-4.384-0.712-7.399-4.946-6.7-9.407l7.661-48.847
				c0.526-3.357,3.635-5.649,6.932-5.113l29.635,4.813c3.298,0.536,5.551,3.699,5.024,7.056l-7.979,50.874
				C31.049,99.451,27.954,101.735,24.645,101.197z"/>
		</defs>
		<clipPath id="XMLID_548_">
			<use xlink:href="#XMLID_431_" />
		</clipPath>
		<path opacity="0.2" clip-path="url(#XMLID_548_)" fill="#B0BEC5" enable-background="new    " d="M17.682,91.123
			c0.131-0.828,1.584-1.282,3.245-1.013c1.662,0.271,2.903,1.162,2.774,1.99c-0.13,0.83-1.582,1.282-3.244,1.012
			S17.554,91.952,17.682,91.123z"/>
	</g>
	<g>
		<defs>
			<path id="XMLID_433_" d="M25.415,113.096l-27.631-4.488c-4.384-0.712-7.399-4.945-6.699-9.406l7.66-48.849
				c0.528-3.356,3.636-5.648,6.934-5.113l29.634,4.813c3.297,0.536,5.549,3.699,5.024,7.056l-7.978,50.876
				C31.82,111.349,28.724,113.632,25.415,113.096z"/>
		</defs>
		<clipPath id="XMLID_549_">
			<use xlink:href="#XMLID_433_" />
		</clipPath>
		<path opacity="0.2" clip-path="url(#XMLID_549_)" fill="#B0BEC5" enable-background="new    " d="M25.571,96.722
			c0.13-0.83,1.288-1.331,2.587-1.12c1.3,0.211,2.247,1.055,2.117,1.883c-0.132,0.83-1.289,1.33-2.587,1.119
			C26.389,98.392,25.441,97.55,25.571,96.722z"/>
	</g>
	<g>
		<defs>
			<path id="XMLID_435_" d="M17.124,96.36l-15.2-23.907c-2.412-3.794-1.334-8.905,2.394-11.359l40.808-26.87
				c2.805-1.846,6.559-1.028,8.373,1.826L69.8,61.691c1.813,2.853,1.009,6.672-1.796,8.52L25.5,98.195
				C22.682,100.038,18.944,99.224,17.124,96.36z"/>
		</defs>
		<clipPath id="XMLID_550_">
			<use xlink:href="#XMLID_435_" />
		</clipPath>
		<path opacity="0.2" clip-path="url(#XMLID_550_)" fill="#B0BEC5" enable-background="new    " d="M12.527,86.655
			c1.412-0.931,2.922-1.114,3.369-0.408c0.449,0.703-0.333,2.03-1.747,2.96c-1.413,0.93-2.921,1.113-3.369,0.408
			C10.332,88.91,11.113,87.585,12.527,86.655z"/>
	</g>
	<g>
		<defs>
			<path id="XMLID_437_" d="M12.688,98.195l-25.163-12.458c-3.994-1.975-5.671-6.917-3.729-10.979L5.055,30.273
				c1.461-3.056,5.089-4.332,8.094-2.846l26.987,13.358c3.003,1.487,4.257,5.18,2.795,8.237L20.789,95.352
				C19.314,98.414,15.699,99.686,12.688,98.195z"/>
		</defs>
		<clipPath id="XMLID_551_">
			<use xlink:href="#XMLID_437_" />
		</clipPath>
		<path opacity="0.2" clip-path="url(#XMLID_551_)" fill="#90A4AE" enable-background="new    " d="M10.922,95.974
			c0.36-0.756,1.677-0.86,2.938-0.235c1.264,0.624,1.996,1.743,1.635,2.498c-0.361,0.754-1.678,0.859-2.94,0.235
			C11.292,97.845,10.561,96.728,10.922,95.974z"/>
	</g>
	<g>
		<defs>
			<path id="XMLID_439_" d="M11.194,102.074L-2.837,77.438c-2.228-3.908-0.905-8.963,2.935-11.229l42.054-24.806
				c2.89-1.705,6.599-0.7,8.274,2.241l15.049,26.422c1.676,2.942,0.688,6.717-2.201,8.422l-43.799,25.835
				C16.571,106.025,12.875,105.024,11.194,102.074z"/>
		</defs>
		<clipPath id="XMLID_552_">
			<use xlink:href="#XMLID_439_" />
		</clipPath>
		<path opacity="0.2" clip-path="url(#XMLID_552_)" fill="#90A4AE" enable-background="new    " d="M19.942,99.822
			c1.216-0.717,2.536-0.708,2.949,0.017c0.414,0.727-0.236,1.896-1.45,2.612c-1.216,0.717-2.535,0.711-2.949-0.016
			C18.078,101.71,18.728,100.538,19.942,99.822z"/>
	</g>
	<g>
		<defs>
			<path id="XMLID_441_" d="M13.363,106.587l-4.409-28.12c-0.699-4.462,2.316-8.695,6.7-9.407l47.997-7.796
				c3.299-0.535,6.408,1.758,6.932,5.113l4.73,30.159c0.527,3.355-1.725,6.52-5.025,7.055l-49.99,8.119
				C16.988,112.238,13.892,109.952,13.363,106.587z"/>
		</defs>
		<clipPath id="XMLID_553_">
			<use xlink:href="#XMLID_441_" />
		</clipPath>
		<path opacity="0.2" clip-path="url(#XMLID_553_)" fill="#B0BEC5" enable-background="new    " d="M71.253,91.684
			c1.662-0.27,3.115,0.184,3.243,1.012c0.132,0.829-1.111,1.721-2.772,1.989c-1.661,0.27-3.115-0.183-3.245-1.011
			C68.35,92.845,69.59,91.954,71.253,91.684z"/>
	</g>
	<g>
		<defs>
			<path id="XMLID_443_" d="M12.601,104.688l-4.409-28.12c-0.701-4.461,2.314-8.695,6.698-9.407l47.998-7.796
				c3.3-0.536,6.407,1.757,6.934,5.113l4.729,30.157c0.526,3.356-1.726,6.52-5.025,7.057l-49.989,8.118
				C16.224,110.337,13.129,108.053,12.601,104.688z"/>
		</defs>
		<clipPath id="XMLID_554_">
			<use xlink:href="#XMLID_443_" />
		</clipPath>
		<path opacity="0.2" clip-path="url(#XMLID_554_)" fill="#B0BEC5" enable-background="new    " d="M59.103,95.637
			c1.663-0.271,3.116,0.184,3.247,1.013c0.129,0.828-1.112,1.719-2.774,1.989c-1.662,0.271-3.115-0.185-3.245-1.012
			C56.2,96.797,57.442,95.907,59.103,95.637z"/>
	</g>
	<g>
		<defs>
			<path id="XMLID_445_" d="M49.77,143.014l-23.492-15.467c-3.728-2.454-4.804-7.566-2.394-11.361l26.402-41.529
				c1.814-2.854,5.569-3.674,8.373-1.826l25.196,16.587c2.805,1.848,3.608,5.667,1.793,8.521L58.15,141.193
				C56.323,144.05,52.583,144.867,49.77,143.014z"/>
		</defs>
		<clipPath id="XMLID_555_">
			<use xlink:href="#XMLID_445_" />
		</clipPath>
		<path opacity="0.2" clip-path="url(#XMLID_555_)" fill="#B0BEC5" enable-background="new    " d="M69.797,83.062
			c0.45-0.705,1.957-0.521,3.37,0.407c1.413,0.932,2.195,2.258,1.748,2.961c-0.449,0.705-1.958,0.521-3.37-0.409
			C70.134,85.093,69.351,83.765,69.797,83.062z"/>
	</g>
	<g>
		<defs>
			<path id="XMLID_447_" d="M36.728,148.825l-24.209-14.28c-3.842-2.267-5.163-7.318-2.936-11.228L33.958,80.52
				c1.675-2.94,5.384-3.945,8.274-2.241l25.964,15.315c2.89,1.705,3.875,5.48,2.201,8.421L45.01,146.589
				C43.322,149.534,39.626,150.536,36.728,148.825z"/>
		</defs>
		<clipPath id="XMLID_556_">
			<use xlink:href="#XMLID_447_" />
		</clipPath>
		<path opacity="0.2" clip-path="url(#XMLID_556_)" fill="#90A4AE" enable-background="new    " d="M66.279,99.848
			c0.414-0.727,1.734-0.735,2.95-0.018c1.213,0.716,1.863,1.886,1.451,2.613c-0.415,0.724-1.735,0.732-2.95,0.015
			C66.515,101.742,65.867,100.572,66.279,99.848z"/>
	</g>
	<g>
		<defs>
			<path id="XMLID_449_" d="M28.408,125.787l-27.37-5.909c-4.342-0.938-7.141-5.322-6.22-9.74L4.902,61.75
				c0.694-3.325,3.912-5.454,7.178-4.749l29.355,6.338c3.268,0.704,5.36,3.98,4.667,7.304l-10.504,50.396
				C34.892,124.373,31.686,126.493,28.408,125.787z"/>
		</defs>
		<clipPath id="XMLID_557_">
			<use xlink:href="#XMLID_449_" />
		</clipPath>
		<path opacity="0.2" clip-path="url(#XMLID_557_)" fill="#B0BEC5" enable-background="new    " d="M35.122,100.604
			c0.172-0.82,1.424-1.247,2.798-0.949c1.374,0.296,2.348,1.202,2.178,2.023c-0.172,0.82-1.426,1.245-2.798,0.949
			C35.926,102.331,34.952,101.426,35.122,100.604z"/>
	</g>
	<g>
		<defs>
			<path id="XMLID_451_" d="M12.186,98.894L10.668,70.46c-0.241-4.512,3.19-8.404,7.622-8.647l48.534-2.682
				c3.334-0.184,6.19,2.425,6.373,5.817l1.628,30.495c0.18,3.395-2.386,6.302-5.719,6.485l-50.548,2.792
				C15.212,104.896,12.367,102.298,12.186,98.894z"/>
		</defs>
		<clipPath id="XMLID_558_">
			<use xlink:href="#XMLID_451_" />
		</clipPath>
		<path opacity="0.2" clip-path="url(#XMLID_558_)" fill="#B0BEC5" enable-background="new    " d="M44.629,93.347
			c1.875-0.104,3.432,0.491,3.476,1.331c0.045,0.837-1.438,1.601-3.315,1.704c-1.874,0.103-3.431-0.492-3.476-1.329
			C41.27,94.214,42.754,93.45,44.629,93.347z"/>
	</g>
	<g>
		<defs>
			<path id="XMLID_453_" d="M15.851,106.962L4.659,80.864c-1.776-4.142,0.1-9.009,4.169-10.816l44.546-19.785
				c3.063-1.36,6.635,0.067,7.972,3.182l12.001,27.99c1.338,3.115-0.064,6.752-3.124,8.112l-46.398,20.606
				C20.752,111.509,17.191,110.085,15.851,106.962z"/>
		</defs>
		<clipPath id="XMLID_559_">
			<use xlink:href="#XMLID_453_" />
		</clipPath>
		<path opacity="0.2" clip-path="url(#XMLID_559_)" fill="#B0BEC5" enable-background="new    " d="M36.552,91.281
			c1.286-0.572,2.598-0.412,2.927,0.357s-0.446,1.856-1.733,2.429c-1.288,0.57-2.598,0.41-2.927-0.358
			C34.488,92.939,35.264,91.853,36.552,91.281z"/>
	</g>
	<g>
		<defs>
			<path id="XMLID_455_" d="M30.871,108.409L4.874,97.877c-4.125-1.672-6.156-6.474-4.515-10.673l17.979-45.958
				c1.236-3.157,4.764-4.702,7.865-3.444l27.881,11.297c3.104,1.257,4.621,4.845,3.386,8.003l-18.725,47.867
				C37.496,108.133,33.983,109.671,30.871,108.409z"/>
		</defs>
		<clipPath id="XMLID_560_">
			<use xlink:href="#XMLID_455_" />
		</clipPath>
		<path opacity="0.2" clip-path="url(#XMLID_560_)" fill="#B0BEC5" enable-background="new    " d="M27.271,87.654
			c0.306-0.78,1.611-0.985,2.915-0.456c1.305,0.528,2.115,1.59,1.811,2.369c-0.305,0.779-1.611,0.983-2.915,0.454
			C27.777,89.494,26.967,88.433,27.271,87.654z"/>
	</g>
	<g>
		<defs>
			<path id="XMLID_457_" d="M35.585,97.749L8.041,92.738c-4.369-0.791-7.306-5.082-6.526-9.531l8.549-48.692
				c0.588-3.347,3.739-5.58,7.026-4.982l29.541,5.372c3.289,0.599,5.483,3.804,4.895,7.149l-8.904,50.716
				C42.021,96.123,38.883,98.349,35.585,97.749z"/>
		</defs>
		<clipPath id="XMLID_561_">
			<use xlink:href="#XMLID_457_" />
		</clipPath>
		<path opacity="0.2" clip-path="url(#XMLID_561_)" fill="#D0D8DC" enable-background="new    " d="M22.707,82.827
			c0.248-1.407,1.105-2.428,1.918-2.28c0.812,0.147,1.27,1.407,1.024,2.814c-0.248,1.407-1.106,2.429-1.919,2.28
			C22.919,85.495,22.46,84.234,22.707,82.827z"/>
	</g>
	<g>
		<defs>
			<path id="XMLID_459_" d="M46.116,113.563l-27.662-4.296c-4.389-0.679-7.433-4.892-6.763-9.358l7.33-48.901
				c0.503-3.361,3.596-5.675,6.898-5.162l29.667,4.605c3.301,0.513,5.577,3.66,5.072,7.02l-7.633,50.932
				C52.509,111.771,49.426,114.076,46.116,113.563z"/>
		</defs>
		<clipPath id="XMLID_562_">
			<use xlink:href="#XMLID_459_" />
		</clipPath>
		<path opacity="0.2" clip-path="url(#XMLID_562_)" fill="#D0D8DC" enable-background="new    " d="M35.971,84.74
			c0.125-0.831,1.352-1.327,2.74-1.112c1.388,0.215,2.413,1.062,2.288,1.893c-0.123,0.829-1.35,1.326-2.738,1.11
			C36.872,86.416,35.847,85.569,35.971,84.74z"/>
	</g>
	<g>
		<defs>
			<path id="XMLID_461_" d="M27.747,122.279L13.186,97.964c-2.311-3.858-1.099-8.939,2.691-11.291l41.505-25.74
				c2.852-1.769,6.583-0.848,8.32,2.054l15.617,26.078c1.737,2.902,0.833,6.699-2.02,8.468l-43.228,26.811
				C33.207,126.109,29.491,125.19,27.747,122.279z"/>
		</defs>
		<clipPath id="XMLID_563_">
			<use xlink:href="#XMLID_461_" />
		</clipPath>
		<path opacity="0.2" clip-path="url(#XMLID_563_)" fill="#B0BEC5" enable-background="new    " d="M63.168,79.867
			c1.199-0.744,2.52-0.765,2.948-0.048c0.43,0.716-0.195,1.9-1.396,2.644c-1.197,0.744-2.52,0.766-2.947,0.048
			C61.343,81.796,61.969,80.613,63.168,79.867z"/>
	</g>
	<g>
		<defs>
			<path id="XMLID_463_" d="M30.164,90.625L4.167,80.091c-4.126-1.672-6.157-6.474-4.514-10.672l17.979-45.958
				c1.236-3.158,4.763-4.703,7.865-3.445l27.881,11.296c3.103,1.257,4.621,4.846,3.386,8.004L38.039,87.183
				C36.79,90.347,33.277,91.885,30.164,90.625z"/>
		</defs>
		<clipPath id="XMLID_564_">
			<use xlink:href="#XMLID_463_" />
		</clipPath>
		<path opacity="0.2" clip-path="url(#XMLID_564_)" fill="#B0BEC5" enable-background="new    " d="M14.037,79.293
			c0.306-0.779,1.609-0.984,2.915-0.455c1.305,0.528,2.115,1.59,1.81,2.369c-0.305,0.78-1.609,0.983-2.913,0.455
			C14.543,81.134,13.732,80.072,14.037,79.293z"/>
	</g>
	<g>
		<defs>
			<path id="XMLID_465_" d="M14.551,115.8L1.723,90.493c-2.034-4.015-0.473-8.996,3.473-11.067l43.197-22.68
				c2.967-1.559,6.625-0.37,8.156,2.651l13.759,27.14c1.531,3.022,0.365,6.741-2.604,8.301l-44.989,23.621
				C19.732,120.014,16.087,118.83,14.551,115.8z"/>
		</defs>
		<clipPath id="XMLID_565_">
			<use xlink:href="#XMLID_465_" />
		</clipPath>
		<path opacity="0.2" clip-path="url(#XMLID_565_)" fill="#90A4AE" enable-background="new    " d="M50.452,99.781
			c1.248-0.655,2.566-0.582,2.945,0.164c0.377,0.746-0.328,1.883-1.575,2.537c-1.248,0.655-2.567,0.582-2.945-0.164
			C48.499,101.573,49.205,100.436,50.452,99.781z"/>
	</g>
	<g>
		<defs>
			<path id="XMLID_467_" d="M17.874,109.172L9.302,82.064c-1.359-4.301,0.987-8.951,5.212-10.335l46.269-15.152
				c3.181-1.041,6.595,0.742,7.617,3.978l9.192,29.07c1.022,3.236-0.729,6.711-3.908,7.753l-48.189,15.781
				C22.302,114.191,18.899,112.417,17.874,109.172z"/>
		</defs>
		<clipPath id="XMLID_566_">
			<use xlink:href="#XMLID_467_" />
		</clipPath>
		<path opacity="0.2" clip-path="url(#XMLID_566_)" fill="#D0D8DC" enable-background="new    " d="M52.274,82.673
			c1.603-0.523,3.107-0.3,3.359,0.499c0.254,0.798-0.841,1.871-2.444,2.395c-1.601,0.524-3.104,0.304-3.357-0.495
			C49.579,84.271,50.673,83.198,52.274,82.673z"/>
	</g>
	<g>
		<defs>
			<path id="XMLID_469_" d="M59.211,128.734l-24.63-13.508c-3.909-2.145-5.383-7.154-3.277-11.129l23.06-43.545
				c1.584-2.992,5.261-4.114,8.201-2.501L88.982,72.54c2.939,1.612,4.04,5.354,2.456,8.347l-24.017,45.353
				C65.825,129.234,62.16,130.352,59.211,128.734z"/>
		</defs>
		<clipPath id="XMLID_567_">
			<use xlink:href="#XMLID_469_" />
		</clipPath>
		<path opacity="0.2" clip-path="url(#XMLID_567_)" fill="#D0D8DC" enable-background="new    " d="M58.958,71.227
			c0.392-0.739,1.91-0.68,3.392,0.133c1.481,0.813,2.363,2.07,1.973,2.809c-0.391,0.739-1.91,0.682-3.389-0.132
			C59.451,73.224,58.566,71.966,58.958,71.227z"/>
	</g>
	<g>
		<defs>
			<path id="XMLID_471_" d="M26.508,98.424L10.574,75.016c-2.53-3.714-1.612-8.856,2.038-11.431l39.953-28.171
				c2.745-1.935,6.522-1.238,8.425,1.556l17.089,25.104c1.901,2.794,1.218,6.636-1.529,8.571L34.938,99.987
				C32.178,101.921,28.416,101.226,26.508,98.424z"/>
		</defs>
		<clipPath id="XMLID_568_">
			<use xlink:href="#XMLID_471_" />
		</clipPath>
		<path opacity="0.2" clip-path="url(#XMLID_568_)" fill="#D0D8DC" enable-background="new    " d="M20.497,72.916
			c0.972-0.687,2.14-0.681,2.608,0.008c0.47,0.69,0.063,1.806-0.908,2.489c-0.971,0.685-2.139,0.681-2.609-0.01
			C19.12,74.716,19.526,73.6,20.497,72.916z"/>
	</g>
	<g>
		<defs>
			<path id="XMLID_473_" d="M24.319,105.285L8.385,81.877c-2.528-3.713-1.61-8.857,2.039-11.43l39.955-28.17
				c2.744-1.936,6.52-1.239,8.422,1.555l17.091,25.104c1.901,2.793,1.218,6.637-1.528,8.573L32.75,106.849
				C29.989,108.782,26.229,108.088,24.319,105.285z"/>
		</defs>
		<clipPath id="XMLID_569_">
			<use xlink:href="#XMLID_473_" />
		</clipPath>
		<path opacity="0.2" clip-path="url(#XMLID_569_)" fill="#D0D8DC" enable-background="new    " d="M30.186,79.91
			c0.971-0.683,2.139-0.68,2.609,0.012c0.469,0.691,0.063,1.805-0.908,2.489c-0.971,0.684-2.139,0.681-2.608-0.01
			C28.808,81.71,29.215,80.597,30.186,79.91z"/>
	</g>
	<g>
		<defs>
			<path id="XMLID_475_" d="M31.163,118.78L15.228,95.375c-2.527-3.714-1.61-8.857,2.038-11.431L57.22,55.773
				c2.746-1.937,6.522-1.238,8.424,1.556l17.091,25.104c1.901,2.794,1.216,6.638-1.529,8.574l-41.612,29.34
				C36.834,122.279,33.072,121.585,31.163,118.78z"/>
		</defs>
		<clipPath id="XMLID_570_">
			<use xlink:href="#XMLID_475_" />
		</clipPath>
		<path opacity="0.2" clip-path="url(#XMLID_570_)" fill="#D0D8DC" enable-background="new    " d="M54.826,75.516
			c0.971-0.686,2.138-0.681,2.608,0.008c0.47,0.691,0.064,1.806-0.908,2.491c-0.972,0.683-2.14,0.68-2.609-0.012
			C53.448,77.313,53.854,76.199,54.826,75.516z"/>
	</g>
	<g>
		<defs>
			<path id="XMLID_477_" d="M64.226,117.295l-26.002-10.513c-4.127-1.67-6.161-6.47-4.521-10.668l17.945-45.968
				c1.233-3.159,4.757-4.706,7.861-3.451L87.396,57.97c3.104,1.255,4.624,4.842,3.393,8.001l-18.691,47.875
				C70.851,117.013,67.339,118.552,64.226,117.295z"/>
		</defs>
		<clipPath id="XMLID_571_">
			<use xlink:href="#XMLID_477_" />
		</clipPath>
		<path opacity="0.2" clip-path="url(#XMLID_571_)" fill="#D0D8DC" enable-background="new    " d="M50.746,67.249
			c0.304-0.778,1.44-1.05,2.54-0.608c1.098,0.444,1.741,1.438,1.436,2.218c-0.306,0.778-1.442,1.052-2.54,0.608
			C51.084,69.023,50.441,68.03,50.746,67.249z"/>
	</g>
	<g>
		<defs>
			<path id="XMLID_479_" d="M20.384,101.256l-8.856-27.014c-1.406-4.284,0.89-8.962,5.102-10.392l46.108-15.656
				c3.169-1.076,6.603,0.67,7.659,3.895l9.497,28.968c1.058,3.226-0.658,6.721-3.827,7.797l-48.021,16.305
				C24.866,106.229,21.443,104.489,20.384,101.256z"/>
		</defs>
		<clipPath id="XMLID_572_">
			<use xlink:href="#XMLID_479_" />
		</clipPath>
		<path opacity="0.2" clip-path="url(#XMLID_572_)" fill="#D0D8DC" enable-background="new    " d="M28.303,71.514
			c1.12-0.38,2.24-0.044,2.5,0.752c0.262,0.798-0.435,1.751-1.557,2.131c-1.121,0.381-2.241,0.044-2.5-0.753
			C26.484,72.85,27.181,71.895,28.303,71.514z"/>
	</g>
	<g>
		<defs>
			<path id="XMLID_481_" d="M60.476,91.497l-27.832-2.933c-4.417-0.464-7.656-4.523-7.198-9.017l5.006-49.203
				c0.344-3.381,3.324-5.844,6.646-5.494l29.851,3.146c3.32,0.35,5.742,3.382,5.398,6.763l-5.215,51.246
				C66.776,89.396,63.808,91.849,60.476,91.497z"/>
		</defs>
		<clipPath id="XMLID_573_">
			<use xlink:href="#XMLID_481_" />
		</clipPath>
		<path opacity="0.2" clip-path="url(#XMLID_573_)" fill="#D0D8DC" enable-background="new    " d="M31.071,66.729
			c0.084-0.835,1.105-1.41,2.281-1.287c1.176,0.123,2.059,0.902,1.974,1.735c-0.083,0.834-1.106,1.411-2.281,1.289
			C31.87,68.342,30.986,67.565,31.071,66.729z"/>
	</g>
	<g>
		<defs>
			<path id="XMLID_483_" d="M17.019,112.845l-8.651-27.08c-1.372-4.297,0.959-8.956,5.18-10.353l46.225-15.295
				c3.176-1.051,6.597,0.723,7.629,3.954l9.279,29.043c1.032,3.233-0.708,6.714-3.885,7.765l-48.144,15.93
				C21.464,117.854,18.056,116.087,17.019,112.845z"/>
		</defs>
		<clipPath id="XMLID_574_">
			<use xlink:href="#XMLID_483_" />
		</clipPath>
		<path opacity="0.2" clip-path="url(#XMLID_574_)" fill="#B0BEC5" enable-background="new    " d="M62.859,87.451
			c1.603-0.529,3.105-0.313,3.359,0.485c0.256,0.799-0.834,1.877-2.435,2.405c-1.602,0.528-3.104,0.313-3.36-0.486
			C60.17,89.057,61.261,87.979,62.859,87.451z"/>
	</g>
	<g>
		<defs>
			<path id="XMLID_485_" d="M38.907,131.668l-24.786-13.212c-3.934-2.097-5.465-7.086-3.405-11.088l22.552-43.817
				c1.55-3.012,5.214-4.177,8.174-2.6l26.579,14.171c2.961,1.577,4.104,5.306,2.556,8.317l-23.49,45.634
				C45.524,132.09,41.874,133.25,38.907,131.668z"/>
		</defs>
		<clipPath id="XMLID_575_">
			<use xlink:href="#XMLID_485_" />
		</clipPath>
		<path opacity="0.2" clip-path="url(#XMLID_575_)" fill="#B0BEC5" enable-background="new    " d="M50.834,90.325
			c0.383-0.743,1.902-0.702,3.393,0.093c1.491,0.796,2.389,2.041,2.006,2.786c-0.382,0.742-1.899,0.701-3.391-0.094
			C51.352,92.316,50.452,91.068,50.834,90.325z"/>
	</g>
	<g>
		<defs>
			<path id="XMLID_487_" d="M20.05,103.359L11.398,76.28c-1.373-4.297,0.958-8.956,5.18-10.353l46.225-15.295
				c3.176-1.05,6.597,0.722,7.629,3.954l9.279,29.044c1.032,3.232-0.709,6.713-3.886,7.763l-48.144,15.931
				C24.494,108.368,21.085,106.603,20.05,103.359z"/>
		</defs>
		<clipPath id="XMLID_576_">
			<use xlink:href="#XMLID_487_" />
		</clipPath>
		<path opacity="0.1" clip-path="url(#XMLID_576_)" fill="#D0D8DC" enable-background="new    " d="M34.971,72.982
			c1.601-0.529,3.104-0.311,3.36,0.487c0.255,0.799-0.836,1.875-2.435,2.403c-1.603,0.529-3.106,0.313-3.36-0.485
			C32.281,74.59,33.37,73.513,34.971,72.982z"/>
	</g>
	
		<radialGradient id="XMLID_577_" cx="51.8638" cy="8.7529" r="13.1244" gradientTransform="matrix(1.2406 0 0 -1.0269 -35.1265 23.2022)" gradientUnits="userSpaceOnUse">
		<stop  offset="0.0529" style="stop-color:#FFCB28"/>
		<stop  offset="1" style="stop-color:#F9A01B"/>
	</radialGradient>
	<path fill="url(#XMLID_577_)" d="M44.516,20.688c0.837,2.187,0.837,6.86,0.837,6.86s-8.355,2.228-16.115,2.228
		c-7.608,0-16.054-2.228-16.054-2.228s0-4.447,0.777-6.86c1.553-4.806,6.376-9.088,15.277-9.088
		C38.138,11.6,42.699,15.954,44.516,20.688z"/>
	
		<linearGradient id="XMLID_578_" gradientUnits="userSpaceOnUse" x1="103.085" y1="-18.3682" x2="103.085" y2="4.0293" gradientTransform="matrix(0.7813 0 0 -0.7813 -51.2969 20.9297)">
		<stop  offset="0.0303" style="stop-color:#F37021"/>
		<stop  offset="1" style="stop-color:#F9A01B"/>
	</linearGradient>
	<path fill="url(#XMLID_578_)" d="M45.353,26.87c0,5.021-4.036,8.41-16.115,8.41s-16.115-3.389-16.115-8.41
		c0-5.022,7.214-9.088,16.115-9.088C38.138,17.782,45.353,21.848,45.353,26.87z"/>
	<polygon fill="#568B3E" points="41.145,24.775 43.124,23.995 42.386,21.858 40.782,24.221 	"/>
	<polygon fill="#568B3E" points="39.308,24.416 39.52,22.587 38.552,21.653 38.158,24.446 	"/>
	<polygon fill="#568B3E" points="28.765,23.018 28.986,21.181 28.017,20.246 27.987,21.653 27.967,23.05 	"/>
	<polygon fill="#568B3E" points="25.605,22.813 26.353,23.05 26.514,21.314 25.414,20.893 	"/>
	<polygon fill="#568B3E" points="20.025,23.614 20.318,22.146 18.502,21.653 18.765,24.241 	"/>
	
		<linearGradient id="XMLID_579_" gradientUnits="userSpaceOnUse" x1="-516.5493" y1="6.8052" x2="-516.5493" y2="-16.7527" gradientTransform="matrix(-0.7813 0 0 -0.7813 -373.9941 20.9297)">
		<stop  offset="0" style="stop-color:#BFCA33"/>
		<stop  offset="0.8669" style="stop-color:#679F42"/>
	</linearGradient>
	<path fill="url(#XMLID_579_)" d="M40.398,20.934c-1.14-0.821-2.048,0.38-1.817,0.956c0.142,0.359,0.475,0.585,0.374,1.006
		c-0.101,0.421-0.434,0.482-1.029,0.441c-0.666-0.041-1.029-0.565-1.12-1.027c-0.404-2.064-1.655-2.516-2.594-2.044
		c-0.767,0.39,0.081,1.13-0.615,1.417c-0.808,0.328-1.272,0.134-1.655-0.328c-0.292-0.35,0.091-0.935-0.484-1.654
		c-0.948-1.202-3.249-0.472-3.481,0.359c-0.232,0.832,0.535,0.873,0.565,1.592c0.03,0.719-1.313,1.11-1.988,0.822
		c-1.393-0.585,0.07-0.524-0.051-1.438c-0.171-1.252-1.927-0.862-2.331-0.616c-1.069,0.647-0.676,1.202-0.938,1.602
		c-0.626,0.924-1.563,0.42-2.048,0.133c-0.484-0.287-0.585-1.509-2.079-1.047c-1.019,0.319-0.595,1.058-0.181,1.52
		c0.191,0.216,0.121,0.555-0.142,0.678c-0.979,0.442-1.736-0.226-2.271-0.534c-0.636-0.359-1.574-0.308-2.018,0.174
		c-0.524,0.585,1.11,0.915,0.464,1.5c-0.535,0.483-1.252-0.257-1.393-0.462c-0.827-1.13-2.2,1.304-1.089,1.57
		c1.1,0.268,0.887,1.263,0.686,1.603c-0.404,0.688-1.181-0.955-0.928,1.838c0.171,1.962,1.554,3.009,2.562,3.697
		c1.343,0.925,26.125,2.27,29.555,0.154c0.858-0.534,3.219-3.902,2.604-5.134c-0.918-1.807-1.039,0.503-1.625-0.174
		c-1.271-1.479,0.676-1.633,0.353-2.516c-0.343-0.956-0.636-0.165-0.979-0.524c-0.494-0.523-0.303-0.833-0.061-1.191
		c0.252-0.38-1.069-1.602-1.947-1.602c-0.868,0,0.161,1.079-0.394,1.366c-0.555,0.288-0.918,0.031-1.513-0.554
		C40.197,21.961,41.074,21.417,40.398,20.934z"/>
	
		<radialGradient id="XMLID_580_" cx="51.8638" cy="-3.269" r="13.1244" gradientTransform="matrix(1.2406 0 0 -1.0269 -35.1265 23.2022)" gradientUnits="userSpaceOnUse">
		<stop  offset="0.0574" style="stop-color:#FFCB28"/>
		<stop  offset="1" style="stop-color:#F9A01B"/>
	</radialGradient>
	<path fill="url(#XMLID_580_)" d="M44.516,33.031c0.837,2.188,0.837,6.86,0.837,6.86s-8.355,2.228-16.115,2.228
		c-7.608,0-16.054-2.228-16.054-2.228s0-4.447,0.777-6.86c1.553-4.806,6.376-9.087,15.277-9.087
		C38.138,23.943,42.699,28.297,44.516,33.031z"/>
	
		<linearGradient id="XMLID_581_" gradientUnits="userSpaceOnUse" x1="103.085" y1="-34.167" x2="103.085" y2="-11.7695" gradientTransform="matrix(0.7813 0 0 -0.7813 -51.2969 20.9297)">
		<stop  offset="0.0303" style="stop-color:#F37021"/>
		<stop  offset="1" style="stop-color:#F9A01B"/>
	</linearGradient>
	<path fill="url(#XMLID_581_)" d="M45.353,39.212c0,5.022-4.036,8.411-16.115,8.411s-16.115-3.389-16.115-8.411
		c0-5.021,7.214-9.087,16.115-9.087C38.138,30.125,45.353,34.191,45.353,39.212z"/>
	<path fill="#FDD836" d="M24.104,25.19c0.833-0.158,1.575,0.075,1.655,0.521c0.084,0.446-0.525,0.936-1.358,1.094
		c-0.833,0.159-1.574-0.075-1.657-0.521C22.663,25.837,23.272,25.348,24.104,25.19z"/>
	
		<ellipse transform="matrix(-0.0743 -0.9972 0.9972 -0.0743 5.9051 55.7469)" fill="#FDD836" cx="28.826" cy="25.133" rx="0.821" ry="1.534"/>
	
		<ellipse transform="matrix(-0.0755 -0.9971 0.9971 -0.0755 2.9216 56.1575)" fill="#F9BF2C" cx="27.494" cy="26.724" rx="0.821" ry="1.533"/>
	
		<ellipse transform="matrix(-0.9997 -0.0256 0.0256 -0.9997 63.3891 54.9076)" fill="#F9BF2C" cx="32.046" cy="27.048" rx="1.534" ry="0.821"/>
	
		<ellipse transform="matrix(-0.049 -0.9988 0.9988 -0.049 3.1942 58.6091)" fill="#FDD836" cx="29.498" cy="27.784" rx="0.822" ry="1.534"/>
	<path fill="#FDD836" d="M32.185,25.221c0.066-0.449,0.797-0.712,1.635-0.588c0.839,0.125,1.466,0.59,1.401,1.039
		c-0.064,0.448-0.796,0.712-1.633,0.587C32.749,26.134,32.122,25.669,32.185,25.221z"/>
	<path fill="#F9BF2C" d="M21.545,27.037c0.769-0.358,1.544-0.313,1.73,0.099c0.184,0.413-0.291,1.037-1.06,1.396
		c-0.772,0.359-1.546,0.315-1.73-0.098C20.298,28.021,20.774,27.395,21.545,27.037z"/>
	<ellipse fill="#F9BF2C" cx="32.185" cy="28.975" rx="1.535" ry="0.822"/>
	
		<ellipse transform="matrix(-0.9981 -0.0617 0.0617 -0.9981 68.7204 56.4435)" fill="#F9BF2C" cx="35.232" cy="27.16" rx="1.534" ry="0.822"/>
	<path fill="#F9A823" d="M21.007,29.018c0.802-0.275,1.568-0.149,1.711,0.28c0.143,0.43-0.393,1.001-1.196,1.277
		c-0.802,0.275-1.567,0.149-1.711-0.28C19.67,29.865,20.205,29.294,21.007,29.018z"/>
	<path fill="#F9A823" d="M34.412,28.727c0.071-0.448,0.807-0.697,1.644-0.559c0.835,0.139,1.455,0.614,1.383,1.062
		s-0.807,0.699-1.643,0.56C34.96,29.65,34.34,29.175,34.412,28.727z"/>
	<path fill="#F9A823" d="M38.11,29.512c0.174-0.418,0.948-0.483,1.728-0.146c0.779,0.336,1.271,0.948,1.096,1.366
		c-0.175,0.417-0.948,0.483-1.727,0.146C38.428,30.542,37.936,29.93,38.11,29.512z"/>
	<path fill="#F9A823" d="M36.899,27.08c0.133-0.433,0.895-0.575,1.706-0.318c0.807,0.258,1.354,0.818,1.221,1.25
		c-0.133,0.433-0.896,0.576-1.705,0.318S36.766,27.512,36.899,27.08z"/>
	<path fill="#F9A823" d="M18.616,27.077c0.729-0.439,1.503-0.479,1.73-0.088c0.228,0.391-0.179,1.063-0.908,1.502
		c-0.729,0.439-1.504,0.478-1.731,0.087C17.479,28.188,17.886,27.517,18.616,27.077z"/>
	<path fill="#F9A823" d="M17.619,29.492c0.729-0.439,1.504-0.478,1.732-0.087c0.227,0.39-0.181,1.063-0.91,1.501
		c-0.729,0.439-1.503,0.479-1.73,0.089C16.484,30.603,16.89,29.931,17.619,29.492z"/>
	<polygon fill="#568B3E" points="43.031,37.642 42.819,35.804 43.789,36.009 43.536,38.524 	"/>
	<polygon fill="#568B3E" points="17.08,37.467 15.102,36.677 15.838,34.551 17.442,36.913 	"/>
	<polygon fill="#568B3E" points="18.916,37.107 18.704,35.27 19.663,34.335 20.066,37.138 	"/>
	<polygon fill="#568B3E" points="29.45,35.701 29.238,33.873 30.207,32.938 30.228,34.335 30.247,35.732 	"/>
	<polygon fill="#568B3E" points="32.608,35.496 31.872,35.732 31.71,33.997 32.81,33.575 	"/>
	<polygon fill="#568B3E" points="38.199,36.297 37.896,34.838 39.712,34.335 39.46,36.922 	"/>
	
		<linearGradient id="XMLID_582_" gradientUnits="userSpaceOnUse" x1="102.9355" y1="-9.437" x2="102.9355" y2="-32.9955" gradientTransform="matrix(0.7813 0 0 -0.7813 -51.2969 20.9297)">
		<stop  offset="0" style="stop-color:#BFCA33"/>
		<stop  offset="0.8669" style="stop-color:#679F42"/>
	</linearGradient>
	<path fill="url(#XMLID_582_)" d="M17.816,33.617c1.14-0.821,2.049,0.38,1.816,0.955c-0.141,0.359-0.475,0.585-0.374,1.006
		c0.102,0.411,0.434,0.482,1.03,0.441c0.666-0.041,1.029-0.565,1.119-1.027c0.404-2.064,1.655-2.516,2.593-2.043
		c0.767,0.39-0.081,1.129,0.616,1.417c0.807,0.329,1.271,0.134,1.655-0.328c0.292-0.349-0.091-0.935,0.484-1.654
		c0.949-1.201,3.25-0.472,3.481,0.36c0.232,0.832-0.534,0.873-0.565,1.592c-0.03,0.718,1.312,1.109,1.988,0.821
		c1.393-0.585-0.071-0.524,0.051-1.438c0.171-1.253,1.928-0.862,2.331-0.616c1.07,0.648,0.676,1.202,0.938,1.603
		c0.625,0.924,1.564,0.42,2.049,0.133c0.484-0.288,0.585-1.51,2.079-1.047c1.019,0.318,0.595,1.058,0.182,1.52
		c-0.192,0.215-0.122,0.554,0.141,0.677c0.979,0.442,1.735-0.226,2.271-0.534c0.636-0.359,1.574-0.308,2.018,0.175
		c0.525,0.585-1.111,0.914-0.465,1.5c0.536,0.482,1.251-0.257,1.393-0.462c0.827-1.129,2.069,0.976,1.09,1.571
		c-1.241,0.76,0.484,0.852,0.484,1.242c0.01,3.327-1.463,4.971-2.805,5.894c-1.342,0.925-26.124,2.27-29.556,0.155
		c-1.473-0.914-2.4-5.155-1.452-5.997c0.938-0.842-0.192-0.935,0.131-1.828c0.343-0.955,0.636-0.165,0.979-0.524
		c0.495-0.523,0.303-0.832,0.061-1.191c-0.252-0.38,1.069-1.603,1.947-1.603c0.868,0-0.161,1.079,0.394,1.366
		c0.555,0.287,0.918,0.032,1.513-0.554C18.018,34.644,17.15,34.099,17.816,33.617z"/>
	
		<linearGradient id="XMLID_583_" gradientUnits="userSpaceOnUse" x1="102.9238" y1="-30.5845" x2="102.9238" y2="-14.9565" gradientTransform="matrix(0.7813 0 0 -0.7813 -51.2969 20.9297)">
		<stop  offset="0" style="stop-color:#346A34"/>
		<stop  offset="0.9267" style="stop-color:#679F42"/>
	</linearGradient>
	<path opacity="0.5" fill="url(#XMLID_583_)" enable-background="new    " d="M43.405,45.395
		c-1.393,0.914-25.368,2.475-29.555,0.155c-1.755-0.976-1.836-5.176-1.836-5.176l0.756-1.488c0,0,1.069,2.279,1.928,2.598
		c0.857,0.318-0.949-5.145-0.949-5.145s3.078,4.498,4.299,4.621c1.221,0.124,0.988-4.939,0.988-4.939s1.797,6.88,2.846,6.942
		c1.06,0.062,0.848-7.517,1.725-8.297c0.868-0.781,2.543,9.375,3.603,9.889c1.06,0.503,0.777-8.811,1.816-9.889
		c1.191-1.222,0.253,7.968,2.13,8.481c1.836,0.514,1.433-7.373,3.511-7.865c1.12-0.268-0.464,7.609,1.12,7.865
		c2.705,0.442,3.239-6.294,4.702-6.767c0.929-0.298-0.06,6.223,0.555,6.706c0.807,0.626,5.167-3.266,5.167-3.266
		S46.311,43.485,43.405,45.395z"/>
	<g>
		<defs>
			<path id="XMLID_496_" d="M41.226,54.801H17.251c-2.816,0-5.086-2.321-5.086-5.175l-8.486-1.602V10.121
				c0-2.865,2.28-5.175,5.085-5.175h40.937c2.815,0,5.086,2.321,5.086,5.175v37.8l-8.486,1.705
				C46.311,52.48,44.031,54.801,41.226,54.801z"/>
		</defs>
		<clipPath id="XMLID_584_">
			<use xlink:href="#XMLID_496_" />
		</clipPath>
		<g clip-path="url(#XMLID_584_)">
			
				<radialGradient id="XMLID_585_" cx="51.8638" cy="-16.3955" r="13.1246" gradientTransform="matrix(1.2406 0 0 -1.0269 -35.1265 23.2022)" gradientUnits="userSpaceOnUse">
				<stop  offset="0.0603" style="stop-color:#FFCB28"/>
				<stop  offset="1" style="stop-color:#F9A01B"/>
			</radialGradient>
			<path fill="url(#XMLID_585_)" d="M44.516,46.514c0.837,2.188,0.837,6.86,0.837,6.86s-8.355,2.228-16.115,2.228
				c-7.608,0-16.054-2.228-16.054-2.228s0-4.447,0.777-6.86c1.553-4.806,6.376-9.088,15.277-9.088
				C38.138,37.426,42.699,41.78,44.516,46.514z"/>
			
				<linearGradient id="XMLID_586_" gradientUnits="userSpaceOnUse" x1="103.085" y1="-45.1099" x2="103.085" y2="-29.0151" gradientTransform="matrix(0.7813 0 0 -0.7813 -51.2969 20.9297)">
				<stop  offset="0.0303" style="stop-color:#F37021"/>
				<stop  offset="1" style="stop-color:#F9A01B"/>
			</linearGradient>
			<path fill="url(#XMLID_586_)" d="M45.353,52.686c0,5.021-4.511,3.142-16.588,3.142c-12.079,0-15.641,1.879-15.641-3.142
				c0-5.021,7.214-9.087,16.115-9.087C38.138,43.598,45.353,47.675,45.353,52.686z"/>
			<polygon fill="#568B3E" points="41.145,50.611 43.124,49.832 42.386,47.706 40.782,50.057 			"/>
			<polygon fill="#568B3E" points="39.308,50.263 39.52,48.424 38.552,47.49 38.158,50.283 			"/>
			<polygon fill="#568B3E" points="28.765,48.855 28.986,47.027 28.017,46.093 27.987,47.49 27.967,48.886 			"/>
			<polygon fill="#568B3E" points="25.605,48.65 26.353,48.886 26.514,47.151 25.414,46.73 			"/>
			<polygon fill="#568B3E" points="20.025,49.451 20.318,47.982 18.502,47.49 18.765,50.077 			"/>
			
				<linearGradient id="XMLID_587_" gradientUnits="userSpaceOnUse" x1="-515.9507" y1="-26.2725" x2="-515.9507" y2="-49.8287" gradientTransform="matrix(-0.7813 0 0 -0.7813 -373.9941 20.9297)">
				<stop  offset="0" style="stop-color:#BFCA33"/>
				<stop  offset="0.8669" style="stop-color:#679F42"/>
			</linearGradient>
			<path fill="url(#XMLID_587_)" d="M40.398,46.771c-1.14-0.822-2.048,0.38-1.817,0.955c0.142,0.359,0.475,0.585,0.374,1.006
				c-0.101,0.411-0.434,0.482-1.029,0.441c-0.666-0.041-1.029-0.564-1.12-1.027c-0.404-2.063-1.655-2.515-2.594-2.043
				c-0.767,0.39,0.081,1.129-0.615,1.417c-0.808,0.329-1.272,0.134-1.655-0.328c-0.292-0.349,0.091-0.935-0.484-1.653
				c-0.948-1.201-3.249-0.473-3.481,0.359s0.535,0.874,0.565,1.592c0.03,0.719-1.313,1.109-1.988,0.822
				c-1.393-0.585,0.07-0.525-0.051-1.438c-0.171-1.252-1.927-0.862-2.331-0.616c-1.069,0.647-0.676,1.202-0.938,1.602
				c-0.626,0.925-1.563,0.421-2.048,0.134c-0.484-0.287-0.585-1.509-2.079-1.047c-1.019,0.318-0.595,1.058-0.181,1.52
				c0.191,0.215,0.121,0.554-0.142,0.678c-0.979,0.442-1.736-0.226-2.271-0.534c-0.636-0.359-1.574-0.309-2.018,0.174
				c-0.524,0.585,1.11,0.914,0.464,1.5c-0.535,0.482-1.252-0.257-1.393-0.463c-0.827-1.129-2.068,0.976-1.089,1.572
				c1.241,0.76-0.485,0.852-0.485,1.242c-0.009,3.328,1.464,4.97,2.805,5.895c1.343,0.924,26.125,2.269,29.555,0.154
				c1.474-0.914,2.402-5.155,1.453-5.997c-0.938-0.842,0.192-0.934-0.131-1.827c-0.343-0.956-0.635-0.165-0.979-0.524
				c-0.495-0.523-0.303-0.832-0.061-1.191c0.252-0.38-1.069-1.603-1.947-1.603c-0.869,0,0.161,1.079-0.395,1.366
				c-0.555,0.288-0.917,0.031-1.513-0.554C40.197,47.798,41.074,47.253,40.398,46.771z"/>
			
				<linearGradient id="XMLID_588_" gradientUnits="userSpaceOnUse" x1="102.543" y1="-43.8784" x2="102.543" y2="-31.5063" gradientTransform="matrix(0.7813 0 0 -0.7813 -51.2969 20.9297)">
				<stop  offset="0" style="stop-color:#346A34"/>
				<stop  offset="0.9267" style="stop-color:#679F42"/>
			</linearGradient>
			<path opacity="0.5" fill="url(#XMLID_588_)" enable-background="new    " d="M46.311,56.741l-33.127-0.194l-1.866-6.223
				c0,0,0.797,0.174,1.866,0.615c1.07,0.441,1.06,1.941,1.918,2.26c0.857,0.318,0-4.303,0-4.303s2.784,5.586,4.005,5.709
				c1.221,0.124-0.151-6.151-0.151-6.151s1.877,4.57,2.937,4.642c1.059,0.072,0.676-5.187,1.554-5.966
				c0.868-0.781,2.713,7.055,3.773,7.568c1.059,0.502,0.696-6.223,1.735-7.302c1.191-1.222,0.333,5.381,2.21,5.895
				c1.836,0.513,1.2-5.269,3.279-5.761c1.119-0.268-0.222,5.503,1.352,5.761c2.704,0.441,3.542-3.543,5.004-4.015
				c0.928-0.298-0.363,3.47,0.263,3.953c0.807,0.626,4.823-3.317,4.823-3.317L46.311,56.741z"/>
		</g>
	</g>
	
		<ellipse transform="matrix(-0.0753 -0.9972 0.9972 -0.0753 12.0036 38.2528)" fill="#FDD836" cx="23.739" cy="13.561" rx="0.873" ry="1.635"/>
	<path fill="#F9BF2C" d="M25.898,13.81c0.844-0.066,1.557,0.248,1.589,0.7c0.036,0.452-0.623,0.872-1.467,0.938
		c-0.845,0.066-1.558-0.248-1.59-0.701C24.396,14.295,25.053,13.875,25.898,13.81z"/>
	
		<ellipse transform="matrix(-0.9997 -0.0258 0.0258 -0.9997 57.2471 27.8486)" fill="#FDD836" cx="28.803" cy="13.554" rx="1.635" ry="0.873"/>
	
		<ellipse transform="matrix(-0.9997 -0.0256 0.0256 -0.9997 66.7533 30.1108)" fill="#F9BF2C" cx="33.57" cy="14.628" rx="1.534" ry="0.821"/>
	
		<ellipse transform="matrix(-0.0496 -0.9988 0.9988 -0.0496 15.6129 45.5945)" fill="#FDD836" cx="29.499" cy="15.369" rx="0.821" ry="1.534"/>
	<path fill="#F9BF2C" d="M21.545,14.621c0.771-0.358,1.545-0.314,1.73,0.099c0.187,0.413-0.288,1.037-1.06,1.396
		c-0.769,0.358-1.543,0.313-1.73-0.1C20.301,15.604,20.775,14.979,21.545,14.621z"/>
	<path fill="#F9A823" d="M21.008,16.603c0.802-0.275,1.567-0.15,1.712,0.28c0.141,0.43-0.394,1.001-1.197,1.277
		c-0.803,0.275-1.568,0.15-1.711-0.28C19.67,17.45,20.205,16.878,21.008,16.603z"/>
	<path fill="#F9A823" d="M34.412,16.311c0.073-0.448,0.808-0.699,1.645-0.56c0.836,0.139,1.456,0.614,1.383,1.063
		c-0.072,0.447-0.808,0.698-1.643,0.559C34.961,17.233,34.342,16.758,34.412,16.311z"/>
	<path fill="#F9A823" d="M36.899,14.663c0.133-0.433,0.898-0.575,1.706-0.317c0.808,0.257,1.355,0.817,1.223,1.25
		c-0.133,0.433-0.897,0.575-1.705,0.318C37.314,15.656,36.767,15.096,36.899,14.663z"/>
	<path fill="#F9A823" d="M18.616,14.661c0.729-0.438,1.503-0.478,1.73-0.087c0.228,0.39-0.179,1.063-0.908,1.502
		c-0.729,0.438-1.504,0.478-1.731,0.087C17.479,15.772,17.886,15.099,18.616,14.661z"/>
	<path fill="#F9A823" d="M17.62,17.076c0.729-0.439,1.504-0.479,1.732-0.087c0.227,0.39-0.18,1.062-0.909,1.501
		c-0.73,0.439-1.504,0.479-1.732,0.087C16.484,18.188,16.892,17.515,17.62,17.076z"/>
	
		<ellipse transform="matrix(-0.0752 -0.9972 0.9972 -0.0752 -11.2097 67.6577)" fill="#FDD836" cx="25.768" cy="39.027" rx="0.821" ry="1.535"/>
	
		<ellipse transform="matrix(-0.0755 -0.9971 0.9971 -0.0755 -12.5917 69.5844)" fill="#F9BF2C" cx="25.96" cy="40.629" rx="0.821" ry="1.535"/>
	
		<ellipse transform="matrix(-0.9997 -0.0259 0.0259 -0.9997 60.0068 78.8267)" fill="#FDD836" cx="30.515" cy="39.024" rx="1.534" ry="0.822"/>
	
		<ellipse transform="matrix(-0.9997 -0.0259 0.0259 -0.9997 66.087 82.1021)" fill="#F9BF2C" cx="33.576" cy="40.622" rx="1.534" ry="0.822"/>
	
		<ellipse transform="matrix(-0.0491 -0.9988 0.9988 -0.0491 -10.374 72.8618)" fill="#FDD836" cx="29.498" cy="41.369" rx="0.821" ry="1.534"/>
	<path fill="#FDD836" d="M32.194,38.799c0.064-0.449,0.795-0.711,1.634-0.588c0.839,0.125,1.464,0.59,1.401,1.039
		c-0.065,0.449-0.797,0.712-1.634,0.588C32.758,39.714,32.129,39.249,32.194,38.799z"/>
	<path fill="#F9BF2C" d="M21.547,40.621c0.771-0.358,1.546-0.313,1.73,0.1c0.186,0.412-0.289,1.038-1.059,1.396
		c-0.771,0.358-1.545,0.314-1.731-0.098C20.302,41.604,20.777,40.979,21.547,40.621z"/>
	<path fill="#F9A823" d="M21.009,42.604c0.802-0.276,1.569-0.151,1.712,0.279c0.142,0.43-0.393,1.002-1.196,1.277
		c-0.804,0.276-1.567,0.15-1.712-0.28C19.672,43.451,20.208,42.879,21.009,42.604z"/>
	<path fill="#F9A823" d="M34.419,42.306c0.072-0.448,0.807-0.698,1.645-0.56c0.835,0.139,1.456,0.614,1.383,1.063
		c-0.071,0.448-0.807,0.698-1.643,0.56C34.967,43.229,34.349,42.753,34.419,42.306z"/>
	<path fill="#F9A823" d="M39.356,43.2c0.162-0.422,0.933-0.509,1.721-0.195c0.789,0.314,1.297,0.912,1.134,1.334
		c-0.163,0.422-0.933,0.51-1.723,0.195C39.701,44.22,39.192,43.623,39.356,43.2z"/>
	<path fill="#F9A823" d="M36.907,40.659c0.134-0.433,0.896-0.575,1.706-0.317c0.808,0.257,1.355,0.817,1.222,1.25
		c-0.132,0.433-0.896,0.575-1.706,0.318C37.321,41.652,36.773,41.091,36.907,40.659z"/>
	<path fill="#F9A823" d="M18.621,40.661c0.729-0.439,1.503-0.478,1.73-0.087c0.228,0.39-0.18,1.063-0.91,1.501
		c-0.728,0.439-1.505,0.479-1.732,0.088C17.483,41.772,17.892,41.1,18.621,40.661z"/>
	<path fill="#F9A823" d="M17.233,43.59c0.729-0.438,1.505-0.478,1.73-0.088c0.227,0.391-0.179,1.063-0.908,1.502
		c-0.729,0.438-1.504,0.477-1.73,0.087C16.098,44.702,16.504,44.029,17.233,43.59z"/>
	
		<linearGradient id="XMLID_589_" gradientUnits="userSpaceOnUse" x1="191.8047" y1="-97.5947" x2="191.8047" y2="-55.2437" gradientTransform="matrix(0.7813 0 0 -0.7813 -51.2969 20.9297)">
		<stop  offset="0" style="stop-color:#8D401E"/>
		<stop  offset="0.6486" style="stop-color:#BB5B27"/>
	</linearGradient>
	<path fill="url(#XMLID_589_)" d="M113.443,71.035c-0.272-2.31-2.462-2.094-2.613-2.054c-0.374-0.882-1.544-0.985-2.543-0.985
		c-0.475,0-1.039,0.145-1.554,0.391c-0.556,0.267-1.182,0.267-1.735,0c-0.515-0.246-1.08-0.391-1.555-0.391s-1.04,0.145-1.554,0.391
		c-0.555,0.267-1.181,0.267-1.735,0c-0.515-0.246-1.08-0.391-1.555-0.391c-0.474,0-1.038,0.145-1.555,0.391
		c-0.555,0.267-1.18,0.267-1.735,0c-0.515-0.246-1.079-0.391-1.553-0.391c-0.475,0-1.039,0.145-1.554,0.391
		c-0.556,0.267-1.181,0.267-1.736,0c-0.514-0.246-1.079-0.391-1.553-0.391c-1.01,0-2.383,0.145-2.756,1.037
		c-0.16-0.04-1.816,0.35-2.34,1.818c-0.657,0.894-1.05,2.002-1.05,3.214v21.626c0,2.979,2.372,5.392,5.298,5.392h20.967
		c2.926,0,5.298-2.413,5.298-5.392V74.045C114.351,72.937,114.02,71.898,113.443,71.035z"/>
	<g opacity="0.2">
		<path fill="#434343" d="M92.395,78.06c-0.515,0.144-2.088,0.698-2.582,0.627c-1.888-0.287-3.432-1.653-3.997-2.721
			c-0.475-0.903,1.604-1.017,1.766-0.729c0.867,1.603,3.542,0.391,4.693,0.482C94.201,75.873,95.623,77.136,92.395,78.06z"/>
	</g>
	<path fill="#F47C20" d="M93.716,76.746c0,0-0.383,0.493-2.754,0.472l-5.864-4.847c-0.424-0.369,0.405-1.026,0.919-1.314
		l0.323-0.174c0.263-0.144,0.586-0.186,0.878-0.104l7.559,2.033c0.576,0.154,0.857,0.688,0.604,1.14l-1.332,2.465
		C93.979,76.55,93.857,76.663,93.716,76.746z"/>
	<path fill="#F37021" d="M90.77,77.188l-4.258-0.966c-0.233-0.051-0.414-0.206-0.484-0.39l-1.181-3.461
		c-0.15-0.44,0.373-0.842,0.898-0.688l6.862,2.044c0.362,0.113,0.544,0.441,0.413,0.739l-1.039,2.218
		C91.809,77.083,91.274,77.3,90.77,77.188z"/>
	<g opacity="0.2">
		<path fill="#434343" d="M93.07,85.371c0.483,0.195,0.395,1.038,2.937,0.904c2.543-0.134,4.853-0.821,5.569-2.167
			c0.475-0.904-1.604-1.017-1.765-0.729c-0.868,1.601-3.542,0.39-4.692,0.482C93.182,84.027,92.354,85.095,93.07,85.371z"/>
	</g>
	<path fill="#F47C20" d="M94.635,85.299l5.974-1.519l0.403-2.248l-1.715-1.397c-0.223-0.186-0.485-0.288-0.768-0.318l-4.521-0.431
		c-0.534,0.175-1.433,1.354-1.201,1.878l0.304,3.205L94.635,85.299z"/>
	<path fill="#F37021" d="M95.412,85.269l4.722-1.016c0.333-0.073,0.605-0.299,0.747-0.616l0.384-0.884
		c0.291-0.677-0.152-1.447-0.879-1.51l-4.983-0.452c-0.597-0.051-1.121,0.411-1.152,1.018l-0.12,2.352
		C94.1,84.868,94.734,85.423,95.412,85.269z"/>
	<g opacity="0.2">
		<path fill="#434343" d="M105.33,95.137c0.484,0.195,0.395,1.038,2.937,0.904c2.543-0.133,4.854-0.822,5.569-2.167
			c0.476-0.903-1.604-1.017-1.765-0.729c-0.869,1.602-3.542,0.39-4.693,0.482C105.441,93.781,104.625,94.85,105.33,95.137z"/>
	</g>
	<path fill="#F47C20" d="M106.895,95.065l5.974-1.52l0.402-2.249l-1.715-1.396c-0.222-0.186-0.484-0.288-0.767-0.318l-5.105,0.792
		c-0.535,0.174-1.432,1.354-1.2,1.877l0.877,1.982L106.895,95.065z"/>
	<path fill="#F37021" d="M107.682,95.034l4.722-1.017c0.333-0.071,0.606-0.297,0.748-0.615l0.383-0.884
		c0.293-0.677-0.151-1.448-0.878-1.509l-5.691,0.379c-0.596-0.051-1.119,0.412-1.15,1.017l0.574,1.52
		C106.369,94.634,106.995,95.188,107.682,95.034z"/>
	<g opacity="0.2">
		<path fill="#434343" d="M95.3,99.192c-0.484,0.196-0.392,1.038-2.936,0.905c-2.543-0.135-4.854-0.822-5.57-2.167
			c-0.474-0.903,1.604-1.017,1.767-0.729c0.867,1.603,3.541,0.39,4.691,0.482C95.188,97.838,96.007,98.907,95.3,99.192z"/>
	</g>
	<path fill="#F47C20" d="M93.736,99.111l-5.974-1.521l-0.403-2.247l1.715-1.397c0.223-0.185,0.485-0.289,0.767-0.318l5.106,0.79
		c0.535,0.174,1.434,1.356,1.201,1.879l-0.878,1.983L93.736,99.111z"/>
	<path fill="#F37021" d="M92.949,99.092l-4.722-1.018c-0.334-0.071-0.605-0.298-0.747-0.616l-0.384-0.883
		c-0.292-0.679,0.152-1.448,0.878-1.51l5.691,0.38c0.595-0.052,1.121,0.41,1.149,1.017l-0.575,1.52
		C94.261,98.691,93.636,99.234,92.949,99.092z"/>
	<path fill="#FCB316" d="M88.218,77.547c0.23,0.463,0.908,0.79,0.908,0.79l2.572-0.513c0,0,0.283-0.236,0.403-0.381
		c0.435-0.522-0.666-3.204-2.068-2.558C88.631,75.533,87.804,76.716,88.218,77.547z"/>
	<path fill="#F78F1E" d="M89.184,76.856c0.504-0.146,0.955-0.108,1.011,0.089c0.056,0.196-0.307,0.474-0.809,0.621
		c-0.505,0.148-0.957,0.109-1.013-0.087C88.317,77.282,88.682,77.006,89.184,76.856z"/>
	<path fill="#FCB316" d="M102.162,84.58c-0.808-0.738-1.585-0.35-2.401,0.124c-0.483,0.276-0.97,0.76-1.181,1.406
		c-0.213,0.647,1.756,2.753,2.834,1.624C102.495,86.604,102.848,85.197,102.162,84.58z"/>
	<path fill="#F78F1E" d="M101.057,84.983c0.416-0.323,0.853-0.45,0.974-0.289s-0.118,0.556-0.534,0.877
		c-0.416,0.324-0.853,0.452-0.975,0.291C100.4,85.7,100.641,85.307,101.057,84.983z"/>
	<path fill="#FCB316" d="M106.208,99.234c0.363,1.037,1.221,1.088,2.16,1.078c0.556-0.011,1.21-0.185,1.705-0.646
		c0.494-0.463-0.231-3.266-1.705-2.813C106.884,97.304,105.905,98.351,106.208,99.234z"/>
	
		<ellipse transform="matrix(-0.1442 -0.9895 0.9895 -0.1442 24.7564 219.5295)" fill="#F78F1E" cx="107.307" cy="99.06" rx="0.369" ry="0.95"/>
	<path fill="#FCB316" d="M82.931,93.721c0.361,1.037,1.22,1.088,2.158,1.078c0.555-0.011,1.211-0.185,1.705-0.647
		c0.494-0.461-0.232-3.267-1.705-2.813C83.605,91.78,82.627,92.837,82.931,93.721z"/>
	<path fill="#F78F1E" d="M83.978,93.178c0.519-0.076,0.963,0.024,0.989,0.227c0.032,0.201-0.366,0.43-0.884,0.505
		c-0.518,0.078-0.961-0.024-0.992-0.225C83.063,93.481,83.461,93.256,83.978,93.178z"/>
	<ellipse opacity="0.2" fill="#434343" enable-background="new    " cx="109.509" cy="74.661" rx="1.603" ry="0.873"/>
	
		<radialGradient id="XMLID_590_" cx="194.8809" cy="-48.1523" r="1.5901" gradientTransform="matrix(1.009 0 0 -1.0269 -87.4174 23.2022)" gradientUnits="userSpaceOnUse">
		<stop  offset="0.2043" style="stop-color:#8BC249"/>
		<stop  offset="1" style="stop-color:#679F42"/>
	</radialGradient>
	<ellipse fill="url(#XMLID_590_)" cx="109.488" cy="72.978" rx="1.604" ry="1.633"/>
	<ellipse opacity="0.2" fill="#434343" enable-background="new    " cx="88.569" cy="85.125" rx="1.605" ry="0.873"/>
	
		<radialGradient id="XMLID_591_" cx="174.1348" cy="-58.3359" r="1.5905" gradientTransform="matrix(1.009 0 0 -1.0269 -87.4174 23.2022)" gradientUnits="userSpaceOnUse">
		<stop  offset="0.2043" style="stop-color:#8BC249"/>
		<stop  offset="1" style="stop-color:#679F42"/>
	</radialGradient>
	<ellipse fill="url(#XMLID_591_)" cx="88.55" cy="83.431" rx="1.604" ry="1.633"/>
	<ellipse opacity="0.2" fill="#434343" enable-background="new    " cx="106.35" cy="87.518" rx="1.604" ry="0.873"/>
	
		<radialGradient id="XMLID_592_" cx="191.7598" cy="-60.6719" r="1.5907" gradientTransform="matrix(1.009 0 0 -1.0269 -87.4174 23.2022)" gradientUnits="userSpaceOnUse">
		<stop  offset="0.2043" style="stop-color:#8BC249"/>
		<stop  offset="1" style="stop-color:#679F42"/>
	</radialGradient>
	<ellipse fill="url(#XMLID_592_)" cx="106.329" cy="85.834" rx="1.604" ry="1.633"/>
	<path opacity="0.2" fill="#434343" enable-background="new    " d="M100.436,97.735c0.887,0,1.605,0.39,1.605,0.873
		s-0.719,0.873-1.605,0.873c-0.884,0-1.604-0.39-1.604-0.873S99.552,97.735,100.436,97.735z"/>
	
		<radialGradient id="XMLID_593_" cx="185.8906" cy="-71.4717" r="1.5907" gradientTransform="matrix(1.009 0 0 -1.0269 -87.4174 23.2022)" gradientUnits="userSpaceOnUse">
		<stop  offset="0.2043" style="stop-color:#8BC249"/>
		<stop  offset="1" style="stop-color:#679F42"/>
	</radialGradient>
	<ellipse fill="url(#XMLID_593_)" cx="100.416" cy="96.924" rx="1.604" ry="1.633"/>
	<path opacity="0.2" fill="#434343" enable-background="new    " d="M109.72,80.647c0,0.688-0.796,0.996-2.845,0.77
		c-1.453-0.153-1.969,0.042-1.969-0.646c0-0.688-0.05-2.413,2.028-2.689C109.014,77.813,109.72,79.622,109.72,80.647z"/>
	<path fill="#AF5C2B" d="M107.057,79.601c1.181,0.04,2.41,1.272,2.461,1.19c0.122-0.185-0.09-2.013-0.403-2.207l-2.039-1.233
		c-0.241-0.144-0.555-0.07-0.715,0.175l-1.222,1.675l0.051,1.726C105.824,81.09,105.876,79.561,107.057,79.601z"/>
	<path fill="#8B4A22" d="M106.702,80.946c0.152,0.051,0.768,0.256,1.15,0.225c0.565-0.051,0.637-0.245,1.271-0.195
		c0.596,0.053,0.435-0.43,0.021-0.677l-2.038-1.232c-0.242-0.145-0.555-0.072-0.718,0.175l-1.22,1.674
		C106.047,81.243,106.219,80.771,106.702,80.946z"/>
	<path fill="#C56E39" d="M106.804,78.902h-0.02c-0.152,0-0.264-0.124-0.264-0.268v-1.007c0-0.152,0.122-0.266,0.264-0.266h0.02
		c0.15,0,0.263,0.121,0.263,0.266v1.007C107.075,78.778,106.954,78.902,106.804,78.902z"/>
	<path opacity="0.2" fill="#434343" enable-background="new    " d="M102.212,76.724c0,0.689-0.798,0.998-2.845,0.771
		c-1.453-0.153-1.968,0.041-1.968-0.646c0-0.688-0.051-2.413,2.028-2.689C101.507,73.892,102.212,75.697,102.212,76.724z"/>
	<path fill="#AF5C2B" d="M99.548,75.678c1.181,0.041,2.412,1.272,2.463,1.19c0.121-0.185-0.091-2.013-0.404-2.206l-2.038-1.233
		c-0.242-0.144-0.554-0.071-0.716,0.175l-1.221,1.674l0.05,1.725C98.317,77.166,98.367,75.638,99.548,75.678z"/>
	<path fill="#8B4A22" d="M99.195,77.022c0.15,0.052,0.767,0.258,1.15,0.227c0.565-0.051,0.636-0.247,1.272-0.195
		c0.594,0.052,0.433-0.432,0.02-0.678L99.6,75.144c-0.243-0.144-0.557-0.072-0.717,0.175l-1.223,1.674
		C98.55,77.321,98.712,76.849,99.195,77.022z"/>
	<path fill="#C56E39" d="M99.307,74.979h-0.021c-0.15,0-0.262-0.124-0.262-0.268v-1.006c0-0.153,0.121-0.267,0.262-0.267h0.021
		c0.152,0,0.262,0.123,0.262,0.267v1.006C99.568,74.866,99.448,74.979,99.307,74.979z"/>
	<path opacity="0.2" fill="#434343" enable-background="new    " d="M94.171,90.157c0,0.688-0.798,0.996-2.847,0.77
		c-1.452-0.153-1.967,0.041-1.967-0.646c0-0.689-0.051-2.413,2.027-2.69C93.465,87.334,94.171,89.141,94.171,90.157z"/>
	<path fill="#AF5C2B" d="M91.496,89.109c1.182,0.041,2.412,1.273,2.462,1.191c0.122-0.185-0.091-2.014-0.404-2.207l-2.038-1.233
		c-0.241-0.144-0.554-0.071-0.716,0.175l-1.221,1.674l0.049,1.725C90.275,90.598,90.315,89.068,91.496,89.109z"/>
	<path fill="#8B4A22" d="M91.153,90.454c0.152,0.053,0.768,0.257,1.149,0.227c0.565-0.052,0.636-0.247,1.271-0.196
		c0.597,0.052,0.435-0.431,0.021-0.677l-2.039-1.231c-0.242-0.145-0.555-0.072-0.716,0.174l-1.221,1.674
		C90.497,90.753,90.67,90.28,91.153,90.454z"/>
	<path fill="#C56E39" d="M91.254,88.421h-0.021c-0.151,0-0.262-0.123-0.262-0.267v-1.006c0-0.155,0.12-0.267,0.262-0.267h0.021
		c0.152,0,0.262,0.122,0.262,0.267v1.006C91.516,88.298,91.406,88.421,91.254,88.421z"/>
	<g>
		<defs>
			<path id="XMLID_507_" d="M112.293,55.242H59.409c-3.25,0-5.874-2.69-5.874-6.017V5.479c0-3.327,2.634-6.018,5.874-6.018h62.671
				c3.25,0,5.873,2.691,5.873,6.018v42.349c0,0-6.881,3.707-10.282,5.453c-1.182,0.606-0.958-0.082-1.231,0.205
				C115.391,54.565,113.917,55.242,112.293,55.242z"/>
		</defs>
		<clipPath id="XMLID_594_">
			<use xlink:href="#XMLID_507_" />
		</clipPath>
		<path opacity="0.2" clip-path="url(#XMLID_594_)" fill="#212121" enable-background="new    " d="M107.329,35.372
			c0-4.744-6.257-8.584-13.986-8.584c-7.719,0-13.985,3.841-13.985,8.584c0,1.715,0.828,3.307,2.239,4.652
			c-2.36,2.115-3.824,4.97-3.824,8.112c0,6.53,6.257,11.83,13.986,11.83c7.719,0,13.985-5.299,13.985-11.83
			c0-2.496-0.918-4.806-2.473-6.716C105.774,39.871,107.329,37.734,107.329,35.372z"/>
	</g>
	<g>
		<defs>
			<path id="XMLID_509_" d="M112.293,55.242H59.409c-3.25,0-5.874-2.69-5.874-6.017V5.479c0-3.327,2.634-6.018,5.874-6.018h62.671
				c3.25,0,5.873,2.691,5.873,6.018v42.349c0,0-6.881,3.707-10.282,5.453c-1.182,0.606-0.958-0.082-1.231,0.205
				C115.391,54.565,113.917,55.242,112.293,55.242z"/>
		</defs>
		<clipPath id="XMLID_595_">
			<use xlink:href="#XMLID_509_" />
		</clipPath>
		<g clip-path="url(#XMLID_595_)">
			<ellipse fill="#1E5F30" cx="92.324" cy="49.605" rx="11.998" ry="10.567"/>
			<ellipse fill="#4D803B" cx="92.324" cy="48.476" rx="11.998" ry="10.566"/>
			<ellipse fill="#B7CE7A" cx="92.324" cy="48.219" rx="9.879" ry="8.698"/>
			<ellipse fill="#B3CA62" cx="92.324" cy="48.219" rx="7.053" ry="6.213"/>
		</g>
	</g>
	<g>
		<defs>
			<path id="XMLID_511_" d="M112.293,55.242H59.409c-3.25,0-5.874-2.69-5.874-6.017V5.479c0-3.327,2.634-6.018,5.874-6.018h62.671
				c3.25,0,5.873,2.691,5.873,6.018v42.349c0,0-6.881,3.707-10.282,5.453c-1.182,0.606-0.958-0.082-1.231,0.205
				C115.391,54.565,113.917,55.242,112.293,55.242z"/>
		</defs>
		<clipPath id="XMLID_596_">
			<use xlink:href="#XMLID_511_" />
		</clipPath>
		<path clip-path="url(#XMLID_596_)" fill="#568B3E" d="M104.886,11.354c1.969,3.255,0.384,7.917-3.541,10.413
			c-3.925,2.495-8.709,1.89-10.687-1.365c-1.967-3.256-0.383-7.918,3.543-10.413C98.126,7.492,102.918,8.098,104.886,11.354z"/>
	</g>
	<g>
		<defs>
			<path id="XMLID_513_" d="M112.293,55.242H59.409c-3.25,0-5.874-2.69-5.874-6.017V5.479c0-3.327,2.634-6.018,5.874-6.018h62.671
				c3.25,0,5.873,2.691,5.873,6.018v42.349c0,0-6.881,3.707-10.282,5.453c-1.182,0.606-0.958-0.082-1.231,0.205
				C115.391,54.565,113.917,55.242,112.293,55.242z"/>
		</defs>
		<clipPath id="XMLID_597_">
			<use xlink:href="#XMLID_513_" />
		</clipPath>
		<path opacity="0.2" clip-path="url(#XMLID_597_)" fill="#212121" enable-background="new    " d="M106.188,46.042
			c-1.101,3.297-7.095,4.2-13.381,2.003c-6.296-2.198-10.504-6.655-9.403-9.952c1.1-3.295,7.093-4.199,13.38-2.001
			S107.287,42.745,106.188,46.042z"/>
	</g>
	<g>
		<defs>
			<path id="XMLID_515_" d="M112.293,55.242H59.409c-3.25,0-5.874-2.69-5.874-6.017V5.479c0-3.327,2.634-6.018,5.874-6.018h62.671
				c3.25,0,5.873,2.691,5.873,6.018v42.349c0,0-6.881,3.707-10.282,5.453c-1.182,0.606-0.958-0.082-1.231,0.205
				C115.391,54.565,113.917,55.242,112.293,55.242z"/>
		</defs>
		<clipPath id="XMLID_598_">
			<use xlink:href="#XMLID_515_" />
		</clipPath>
		<g clip-path="url(#XMLID_598_)">
			<path fill="#1E5F30" d="M97.279,21.694c-1.696-6.511-7.033-10.7-11.928-9.365c-4.894,1.335-7.488,7.701-5.782,14.202
				c1.695,6.511,7.033,10.7,11.927,9.365C96.391,34.561,98.972,28.204,97.279,21.694z"/>
			<path fill="#568B3E" d="M92.444,35.639c-4.894,1.335-10.23-2.855-11.927-9.365c-1.695-6.511,0.897-12.867,5.782-14.202
				c4.884-1.335,10.232,2.854,11.926,9.365C99.933,27.948,97.339,34.305,92.444,35.639z"/>
			<path fill="#CEE298" d="M92.112,33.503c-4.026,1.099-8.425-2.352-9.818-7.712c-1.392-5.36,0.735-10.587,4.763-11.695
				c4.025-1.11,8.426,2.351,9.818,7.712C98.268,27.167,96.138,32.404,92.112,33.503z"/>
			<path fill="#C4DC72" d="M91.385,30.73c-2.875,0.791-6.013-1.673-7.013-5.504c-0.998-3.83,0.524-7.568,3.4-8.349
				c2.876-0.78,6.015,1.674,7.015,5.505C95.785,26.202,94.261,29.94,91.385,30.73z"/>
		</g>
	</g>
	<g>
		<defs>
			<path id="XMLID_517_" d="M112.293,55.242H59.409c-3.25,0-5.874-2.69-5.874-6.017V5.479c0-3.327,2.634-6.018,5.874-6.018h62.671
				c3.25,0,5.873,2.691,5.873,6.018v42.349c0,0-6.881,3.707-10.282,5.453c-1.182,0.606-0.958-0.082-1.231,0.205
				C115.391,54.565,113.917,55.242,112.293,55.242z"/>
		</defs>
		<clipPath id="XMLID_599_">
			<use xlink:href="#XMLID_517_" />
		</clipPath>
		<g clip-path="url(#XMLID_599_)">
			<path fill="#1E5F30" d="M103.927,11.179c-5.619-2.403-11.734-0.535-13.651,4.169c-1.916,4.703,1.09,10.464,6.71,12.867
				c5.62,2.403,11.735,0.534,13.651-4.17C112.555,19.343,109.559,13.582,103.927,11.179z"/>
			<path fill="#568B3E" d="M111.021,23.131c-1.917,4.704-8.021,6.572-13.652,4.17c-5.621-2.403-8.628-8.164-6.711-12.867
				c1.918-4.704,8.022-6.572,13.653-4.169C109.932,12.667,112.938,18.429,111.021,23.131z"/>
			<path fill="#CEE298" d="M109.297,22.167c-1.575,3.872-6.61,5.412-11.242,3.43c-4.631-1.972-7.104-6.716-5.529-10.587
				c1.574-3.872,6.61-5.413,11.24-3.43C108.397,13.561,110.88,18.296,109.297,22.167z"/>
			<path fill="#C4DC72" d="M107.419,21.366c-1.221,3.009-5.126,4.199-8.718,2.659c-3.593-1.53-5.51-5.215-4.288-8.215
				c1.221-2.999,5.124-4.2,8.718-2.659C106.723,14.681,108.641,18.356,107.419,21.366z"/>
		</g>
	</g>
	<g>
		<defs>
			<path id="XMLID_519_" d="M112.293,55.242H59.409c-3.25,0-5.874-2.69-5.874-6.017V5.479c0-3.327,2.634-6.018,5.874-6.018h62.671
				c3.25,0,5.873,2.691,5.873,6.018v42.349c0,0-6.881,3.707-10.282,5.453c-1.182,0.606-0.958-0.082-1.231,0.205
				C115.391,54.565,113.917,55.242,112.293,55.242z"/>
		</defs>
		<clipPath id="XMLID_600_">
			<use xlink:href="#XMLID_519_" />
		</clipPath>
		<g clip-path="url(#XMLID_600_)">
			<path fill="#1E5F30" d="M104.987,24.95c-5.993,1.149-10.102,6.141-9.183,11.152c0.919,5.011,6.52,8.143,12.502,6.993
				c5.994-1.15,10.102-6.141,9.183-11.152C116.571,26.931,110.981,23.799,104.987,24.95z"/>
			<path fill="#4D803B" d="M117.317,30.392c0.918,5.011-3.199,10.002-9.183,11.153c-5.993,1.149-11.583-1.982-12.501-6.994
				s3.197-10.002,9.182-11.152C110.799,22.249,116.4,25.381,117.317,30.392z"/>
			<path fill="#B7CE7A" d="M115.36,30.545c0.757,4.128-2.633,8.236-7.558,9.181c-4.935,0.945-9.535-1.633-10.292-5.75
				c-0.758-4.128,2.633-8.236,7.558-9.18C109.992,23.84,114.604,26.418,115.36,30.545z"/>
			<path fill="#B3CA62" d="M113.786,30.844c0.625,3.399-2.17,6.788-6.226,7.558c-4.058,0.78-7.861-1.346-8.476-4.744
				c-0.626-3.4,2.169-6.788,6.226-7.559C109.367,25.319,113.161,27.445,113.786,30.844z"/>
		</g>
	</g>
	<g>
		<defs>
			<path id="XMLID_521_" d="M112.293,55.242H59.409c-3.25,0-5.874-2.69-5.874-6.017V5.479c0-3.327,2.634-6.018,5.874-6.018h62.671
				c3.25,0,5.873,2.691,5.873,6.018v42.349c0,0-6.881,3.707-10.282,5.453c-1.182,0.606-0.958-0.082-1.231,0.205
				C115.391,54.565,113.917,55.242,112.293,55.242z"/>
		</defs>
		<clipPath id="XMLID_601_">
			<use xlink:href="#XMLID_521_" />
		</clipPath>
		
			<ellipse opacity="0.2" clip-path="url(#XMLID_601_)" fill="#212121" enable-background="new    " cx="68.086" cy="30.936" rx="13.986" ry="7.928"/>
	</g>
	<g>
		<defs>
			<path id="XMLID_523_" d="M112.293,55.242H59.409c-3.25,0-5.874-2.69-5.874-6.017V5.479c0-3.327,2.634-6.018,5.874-6.018h62.671
				c3.25,0,5.873,2.691,5.873,6.018v42.349c0,0-6.881,3.707-10.282,5.453c-1.182,0.606-0.958-0.082-1.231,0.205
				C115.391,54.565,113.917,55.242,112.293,55.242z"/>
		</defs>
		<clipPath id="XMLID_602_">
			<use xlink:href="#XMLID_523_" />
		</clipPath>
		<g clip-path="url(#XMLID_602_)">
			<path fill="#1E5F30" d="M95.604,28.297c-6.125-2.599-12.422-1.407-14.066,2.66c-1.645,4.066,1.987,9.468,8.102,12.066
				c6.126,2.598,12.423,1.407,14.067-2.66C105.351,36.297,101.717,30.895,95.604,28.297z"/>
			<path fill="#568B3E" d="M104.09,38.433c-1.645,4.066-7.941,5.257-14.066,2.659s-9.747-8-8.103-12.066
				c1.645-4.066,7.94-5.257,14.065-2.66C102.112,28.964,105.734,34.365,104.09,38.433z"/>
			<path fill="#F9EBBB" d="M102.203,37.426c-1.354,3.348-6.539,4.323-11.575,2.187c-5.035-2.135-8.022-6.582-6.669-9.929
				c1.352-3.348,6.538-4.324,11.574-2.187C100.567,29.643,103.555,34.089,102.203,37.426z"/>
			<path fill="#DEE67C" d="M100.457,36.687c-1.101,2.711-5.289,3.502-9.365,1.767c-4.076-1.725-6.487-5.33-5.397-8.031
				c1.1-2.711,5.288-3.501,9.364-1.766C99.136,30.392,101.556,33.985,100.457,36.687z"/>
		</g>
	</g>
	<g>
		<defs>
			<path id="XMLID_525_" d="M112.293,55.242H59.409c-3.25,0-5.874-2.69-5.874-6.017V5.479c0-3.327,2.634-6.018,5.874-6.018h62.671
				c3.25,0,5.873,2.691,5.873,6.018v42.349c0,0-6.881,3.707-10.282,5.453c-1.182,0.606-0.958-0.082-1.231,0.205
				C115.391,54.565,113.917,55.242,112.293,55.242z"/>
		</defs>
		<clipPath id="XMLID_603_">
			<use xlink:href="#XMLID_525_" />
		</clipPath>
		<g clip-path="url(#XMLID_603_)">
			<path fill="#1E5F30" d="M104.886,41.092c-5.631,0.626-9.879,4.169-9.474,7.907c0.393,3.738,5.287,6.264,10.917,5.638
				s9.879-4.17,9.475-7.907C115.41,42.992,110.518,40.466,104.886,41.092z"/>
			<path opacity="0.2" fill="#212121" enable-background="new    " d="M116.036,47.972c0.394,3.738-3.845,7.281-9.475,7.907
				c-5.631,0.626-10.524-1.889-10.918-5.638c-0.394-3.738,3.844-7.281,9.477-7.907C110.749,41.708,115.634,44.234,116.036,47.972z"
				/>
			<path fill="#568B3E" d="M115.602,45.59c0.394,3.737-3.844,7.281-9.475,7.907c-5.63,0.627-10.523-1.89-10.916-5.638
				c-0.396-3.737,3.843-7.281,9.475-7.907C110.314,39.326,115.21,41.852,115.602,45.59z"/>
			<path fill="#F9EBBB" d="M113.786,45.631c0.323,3.081-3.169,5.997-7.8,6.51c-4.632,0.513-8.658-1.562-8.99-4.642
				c-0.324-3.081,3.169-5.997,7.799-6.51C109.428,40.476,113.454,42.551,113.786,45.631z"/>
			<path fill="#DEE67C" d="M112.182,45.816c0.263,2.496-2.563,4.847-6.306,5.268c-3.755,0.421-7.003-1.263-7.276-3.748
				c-0.262-2.496,2.563-4.847,6.307-5.268C108.661,41.646,111.909,43.32,112.182,45.816z"/>
		</g>
	</g>
	<g>
		<defs>
			<path id="XMLID_527_" d="M112.293,55.242H59.409c-3.25,0-5.874-2.69-5.874-6.017V5.479c0-3.327,2.634-6.018,5.874-6.018h62.671
				c3.25,0,5.873,2.691,5.873,6.018v42.349c0,0-6.881,3.707-10.282,5.453c-1.182,0.606-0.958-0.082-1.231,0.205
				C115.391,54.565,113.917,55.242,112.293,55.242z"/>
		</defs>
		<clipPath id="XMLID_604_">
			<use xlink:href="#XMLID_527_" />
		</clipPath>
		<g clip-path="url(#XMLID_604_)">
			<path fill="#CCB795" d="M57.542,30.802c-3.622-4.21-3.552-8.903-3.632-10.248c-0.283-4.785,2.299-5.114,7.707-7.332
				c6.934-2.844,21.675-4.128,22.109,2.455c0.596,9.057-3.179,15.403-11.473,18.699C66.078,36.82,60.821,34.602,57.542,30.802z"/>
			
				<radialGradient id="XMLID_605_" cx="148.3154" cy="12.042" r="26.3678" gradientTransform="matrix(1.009 0 0 -1.0334 -87.4174 26.3168)" gradientUnits="userSpaceOnUse">
				<stop  offset="0.4485" style="stop-color:#FFF3E1"/>
				<stop  offset="1" style="stop-color:#FFE0B2"/>
			</radialGradient>
			<path fill="url(#XMLID_605_)" d="M54.848,24.868c-2.987-5.854-0.151-12.724,6.781-15.568c6.933-2.845,19.161-1.695,21.563,4.436
				c2.4,6.13-5.521,15.752-12.754,17.621C62.719,33.338,57.542,30.146,54.848,24.868z"/>
			
				<radialGradient id="XMLID_606_" cx="152.5527" cy="5.9004" r="7.5094" gradientTransform="matrix(1.009 0 0 -1.0334 -87.4174 26.3168)" gradientUnits="userSpaceOnUse">
				<stop  offset="0" style="stop-color:#F36E21"/>
				<stop  offset="1" style="stop-color:#FAAA43"/>
			</radialGradient>
			<path fill="url(#XMLID_606_)" d="M59.116,22.455c-1.473-3.759-0.09-7.805,4.158-9.551c4.248-1.746,9.021-0.637,10.494,3.122
				c1.473,3.759-0.837,8.657-5.096,10.403C64.424,28.173,60.579,26.212,59.116,22.455z"/>
		</g>
	</g>
	<g>
		<defs>
			<path id="XMLID_531_" d="M112.293,55.242H59.409c-3.25,0-5.874-2.69-5.874-6.017V5.479c0-3.327,2.634-6.018,5.874-6.018h62.671
				c3.25,0,5.873,2.691,5.873,6.018v42.349c0,0-6.881,3.707-10.282,5.453c-1.182,0.606-0.958-0.082-1.231,0.205
				C115.391,54.565,113.917,55.242,112.293,55.242z"/>
		</defs>
		<clipPath id="XMLID_607_">
			<use xlink:href="#XMLID_531_" />
		</clipPath>
		
			<ellipse opacity="0.2" clip-path="url(#XMLID_607_)" fill="#212121" enable-background="new    " cx="68.086" cy="53.897" rx="13.986" ry="7.927"/>
	</g>
	<g>
		<defs>
			<path id="XMLID_533_" d="M112.293,55.242H59.409c-3.25,0-5.874-2.69-5.874-6.017V5.479c0-3.327,2.634-6.018,5.874-6.018h62.671
				c3.25,0,5.873,2.691,5.873,6.018v42.349c0,0-6.881,3.707-10.282,5.453c-1.182,0.606-0.958-0.082-1.231,0.205
				C115.391,54.565,113.917,55.242,112.293,55.242z"/>
		</defs>
		<clipPath id="XMLID_608_">
			<use xlink:href="#XMLID_533_" />
		</clipPath>
		<g clip-path="url(#XMLID_608_)">
			<path fill="#CCB795" d="M57.542,54.544c-3.622-4.21-3.552-8.903-3.632-10.248c-0.283-4.785,2.299-5.114,7.707-7.332
				c6.934-2.845,21.675-4.128,22.109,2.455c0.596,9.057-3.179,15.403-11.473,18.699C66.078,60.562,60.821,58.344,57.542,54.544z"/>
			
				<radialGradient id="XMLID_609_" cx="148.3154" cy="-10.9355" r="26.368" gradientTransform="matrix(1.009 0 0 -1.0334 -87.4174 26.3168)" gradientUnits="userSpaceOnUse">
				<stop  offset="0.4485" style="stop-color:#FFF3E1"/>
				<stop  offset="1" style="stop-color:#FFE0B2"/>
			</radialGradient>
			<path fill="url(#XMLID_609_)" d="M54.848,48.609c-2.987-5.854-0.151-12.724,6.781-15.568c6.933-2.844,19.161-1.695,21.563,4.436
				c2.4,6.13-5.521,15.752-12.754,17.621C62.719,57.081,57.542,53.897,54.848,48.609z"/>
			
				<radialGradient id="XMLID_610_" cx="152.5527" cy="-17.0752" r="7.509" gradientTransform="matrix(1.009 0 0 -1.0334 -87.4174 26.3168)" gradientUnits="userSpaceOnUse">
				<stop  offset="0" style="stop-color:#F36E21"/>
				<stop  offset="1" style="stop-color:#FAAA43"/>
			</radialGradient>
			<path fill="url(#XMLID_610_)" d="M59.116,46.196c-1.473-3.759-0.09-7.805,4.158-9.551c4.248-1.746,9.021-0.637,10.494,3.122
				c1.473,3.758-0.837,8.656-5.096,10.402C64.424,51.916,60.579,49.954,59.116,46.196z"/>
		</g>
	</g>
</g>
<g display="none">
	<g display="inline">
		<g opacity="0.6">
			
				<circle opacity="0.61" fill="none" stroke="#010101" stroke-width="0.2625" stroke-miterlimit="10" enable-background="new    " cx="50" cy="50" r="21.875"/>
			
				<line opacity="0.61" fill="none" stroke="#010101" stroke-width="0.25" stroke-miterlimit="10" enable-background="new    " x1="65.625" y1="0" x2="65.625" y2="100"/>
			
				<line opacity="0.61" fill="none" stroke="#010101" stroke-width="0.25" stroke-miterlimit="10" enable-background="new    " x1="34.375" y1="0" x2="34.375" y2="100"/>
			
				<line opacity="0.61" fill="none" stroke="#010101" stroke-width="0.25" stroke-miterlimit="10" enable-background="new    " x1="50" y1="0" x2="50" y2="100"/>
			
				<line opacity="0.61" fill="none" stroke="#010101" stroke-width="0.25" stroke-miterlimit="10" enable-background="new    " x1="100" y1="50" x2="0" y2="50"/>
			
				<line opacity="0.61" fill="none" stroke="#010101" stroke-width="0.25" stroke-miterlimit="10" enable-background="new    " x1="100" y1="34.375" x2="0" y2="34.375"/>
			
				<line opacity="0.61" fill="none" stroke="#010101" stroke-width="0.25" stroke-miterlimit="10" enable-background="new    " x1="100" y1="65.43" x2="0" y2="65.43"/>
			
				<line opacity="0.61" fill="none" stroke="#010101" stroke-width="0.25" stroke-miterlimit="10" enable-background="new    " x1="100" y1="100" x2="0" y2="0"/>
			
				<line opacity="0.61" fill="none" stroke="#010101" stroke-width="0.25" stroke-miterlimit="10" enable-background="new    " x1="0" y1="100" x2="100" y2="0"/>
			<g opacity="0.61">
				<path fill="#010101" d="M50,3.328c25.734,0,46.672,20.938,46.672,46.672S75.734,96.672,50,96.672S3.328,75.734,3.328,50
					S24.266,3.328,50,3.328 M50,3.125C24.109,3.125,3.125,24.109,3.125,50S24.109,96.875,50,96.875S96.875,75.891,96.875,50
					S75.891,3.125,50,3.125L50,3.125z"/>
			</g>
			
				<path opacity="0.61" fill="none" stroke="#010101" stroke-width="0.2578" stroke-miterlimit="10" enable-background="new    " d="
				M84.352,90.602H15.648c-3.453,0-6.273-2.82-6.273-6.273v-68.68c0-3.453,2.82-6.273,6.273-6.273h68.703
				c3.453,0,6.273,2.82,6.273,6.273v68.68C90.625,87.781,87.805,90.602,84.352,90.602z"/>
			
				<path opacity="0.61" fill="none" stroke="#010101" stroke-width="0.2628" stroke-miterlimit="10" enable-background="new    " d="
				M78.125,96.875h-56.25c-3.438,0-6.25-2.813-6.25-6.25V9.375c0-3.438,2.813-6.25,6.25-6.25h56.25c3.438,0,6.25,2.813,6.25,6.25
				v81.25C84.375,94.063,81.563,96.875,78.125,96.875z"/>
			
				<path opacity="0.61" fill="none" stroke="#010101" stroke-width="0.2627" stroke-miterlimit="10" enable-background="new    " d="
				M88.883,84.375H11.117c-4.398,0-7.992-3.594-7.992-7.992V23.656c0-4.398,3.594-7.992,7.992-7.992h77.766
				c4.398,0,7.992,3.594,7.992,7.992v52.719C96.875,80.781,93.281,84.375,88.883,84.375z"/>
		</g>
		<g opacity="0.2" enable-background="new    ">
			<g>
				<defs>
					<rect id="XMLID_537_" width="100" height="100"/>
				</defs>
				<clipPath id="XMLID_611_">
					<use xlink:href="#XMLID_537_" />
				</clipPath>
				<g clip-path="url(#XMLID_611_)">
					<g>
						
							<line fill="none" stroke="#010101" stroke-width="0.25" stroke-miterlimit="10" x1="-21.875" y1="125" x2="-21.875" y2="-25"/>
						<line fill="none" stroke="#010101" stroke-width="0.25" stroke-miterlimit="10" x1="-18.75" y1="125" x2="-18.75" y2="-25"/>
						
							<line fill="none" stroke="#010101" stroke-width="0.25" stroke-miterlimit="10" x1="-15.625" y1="125" x2="-15.625" y2="-25"/>
						<line fill="none" stroke="#010101" stroke-width="0.25" stroke-miterlimit="10" x1="-12.5" y1="125" x2="-12.5" y2="-25"/>
						<line fill="none" stroke="#010101" stroke-width="0.25" stroke-miterlimit="10" x1="-9.375" y1="125" x2="-9.375" y2="-25"/>
						<line fill="none" stroke="#010101" stroke-width="0.25" stroke-miterlimit="10" x1="-6.25" y1="125" x2="-6.25" y2="-25"/>
						<line fill="none" stroke="#010101" stroke-width="0.25" stroke-miterlimit="10" x1="-3.125" y1="125" x2="-3.125" y2="-25"/>
						<line fill="none" stroke="#010101" stroke-width="0.25" stroke-miterlimit="10" x1="0" y1="125" x2="0" y2="-25"/>
						<line fill="none" stroke="#010101" stroke-width="0.25" stroke-miterlimit="10" x1="3.125" y1="125" x2="3.125" y2="-25"/>
						<line fill="none" stroke="#010101" stroke-width="0.25" stroke-miterlimit="10" x1="6.25" y1="125" x2="6.25" y2="-25"/>
						<line fill="none" stroke="#010101" stroke-width="0.25" stroke-miterlimit="10" x1="9.375" y1="125" x2="9.375" y2="-25"/>
						<line fill="none" stroke="#010101" stroke-width="0.25" stroke-miterlimit="10" x1="12.5" y1="125" x2="12.5" y2="-25"/>
						<line fill="none" stroke="#010101" stroke-width="0.25" stroke-miterlimit="10" x1="15.625" y1="125" x2="15.625" y2="-25"/>
						<line fill="none" stroke="#010101" stroke-width="0.25" stroke-miterlimit="10" x1="18.75" y1="125" x2="18.75" y2="-25"/>
						<line fill="none" stroke="#010101" stroke-width="0.25" stroke-miterlimit="10" x1="21.875" y1="125" x2="21.875" y2="-25"/>
						<line fill="none" stroke="#010101" stroke-width="0.25" stroke-miterlimit="10" x1="25" y1="125" x2="25" y2="-25"/>
						<line fill="none" stroke="#010101" stroke-width="0.25" stroke-miterlimit="10" x1="28.125" y1="125" x2="28.125" y2="-25"/>
						<line fill="none" stroke="#010101" stroke-width="0.25" stroke-miterlimit="10" x1="31.25" y1="125" x2="31.25" y2="-25"/>
						<line fill="none" stroke="#010101" stroke-width="0.25" stroke-miterlimit="10" x1="34.375" y1="125" x2="34.375" y2="-25"/>
						<line fill="none" stroke="#010101" stroke-width="0.25" stroke-miterlimit="10" x1="37.5" y1="125" x2="37.5" y2="-25"/>
						<line fill="none" stroke="#010101" stroke-width="0.25" stroke-miterlimit="10" x1="40.625" y1="125" x2="40.625" y2="-25"/>
						<line fill="none" stroke="#010101" stroke-width="0.25" stroke-miterlimit="10" x1="43.75" y1="125" x2="43.75" y2="-25"/>
						<line fill="none" stroke="#010101" stroke-width="0.25" stroke-miterlimit="10" x1="46.875" y1="125" x2="46.875" y2="-25"/>
						<line fill="none" stroke="#010101" stroke-width="0.25" stroke-miterlimit="10" x1="50" y1="125" x2="50" y2="-25"/>
						<line fill="none" stroke="#010101" stroke-width="0.25" stroke-miterlimit="10" x1="53.125" y1="125" x2="53.125" y2="-25"/>
						<line fill="none" stroke="#010101" stroke-width="0.25" stroke-miterlimit="10" x1="56.25" y1="125" x2="56.25" y2="-25"/>
						<line fill="none" stroke="#010101" stroke-width="0.25" stroke-miterlimit="10" x1="59.375" y1="125" x2="59.375" y2="-25"/>
						<line fill="none" stroke="#010101" stroke-width="0.25" stroke-miterlimit="10" x1="62.5" y1="125" x2="62.5" y2="-25"/>
						<line fill="none" stroke="#010101" stroke-width="0.25" stroke-miterlimit="10" x1="65.625" y1="125" x2="65.625" y2="-25"/>
						<line fill="none" stroke="#010101" stroke-width="0.25" stroke-miterlimit="10" x1="68.75" y1="125" x2="68.75" y2="-25"/>
						<line fill="none" stroke="#010101" stroke-width="0.25" stroke-miterlimit="10" x1="71.875" y1="125" x2="71.875" y2="-25"/>
						<line fill="none" stroke="#010101" stroke-width="0.25" stroke-miterlimit="10" x1="75" y1="125" x2="75" y2="-25"/>
						<line fill="none" stroke="#010101" stroke-width="0.25" stroke-miterlimit="10" x1="78.125" y1="125" x2="78.125" y2="-25"/>
						<line fill="none" stroke="#010101" stroke-width="0.25" stroke-miterlimit="10" x1="81.25" y1="125" x2="81.25" y2="-25"/>
						<line fill="none" stroke="#010101" stroke-width="0.25" stroke-miterlimit="10" x1="84.375" y1="125" x2="84.375" y2="-25"/>
						<line fill="none" stroke="#010101" stroke-width="0.25" stroke-miterlimit="10" x1="87.5" y1="125" x2="87.5" y2="-25"/>
						<line fill="none" stroke="#010101" stroke-width="0.25" stroke-miterlimit="10" x1="90.625" y1="125" x2="90.625" y2="-25"/>
						<line fill="none" stroke="#010101" stroke-width="0.25" stroke-miterlimit="10" x1="93.75" y1="125" x2="93.75" y2="-25"/>
						<line fill="none" stroke="#010101" stroke-width="0.25" stroke-miterlimit="10" x1="96.875" y1="125" x2="96.875" y2="-25"/>
						<line fill="none" stroke="#010101" stroke-width="0.25" stroke-miterlimit="10" x1="100" y1="125" x2="100" y2="-25"/>
						
							<line fill="none" stroke="#010101" stroke-width="0.25" stroke-miterlimit="10" x1="103.125" y1="125" x2="103.125" y2="-25"/>
						<line fill="none" stroke="#010101" stroke-width="0.25" stroke-miterlimit="10" x1="106.25" y1="125" x2="106.25" y2="-25"/>
						
							<line fill="none" stroke="#010101" stroke-width="0.25" stroke-miterlimit="10" x1="107.031" y1="129.727" x2="107.031" y2="-20.273"/>
						<line fill="none" stroke="#010101" stroke-width="0.25" stroke-miterlimit="10" x1="112.5" y1="125" x2="112.5" y2="-25"/>
						
							<line fill="none" stroke="#010101" stroke-width="0.25" stroke-miterlimit="10" x1="115.625" y1="125" x2="115.625" y2="-25"/>
						<line fill="none" stroke="#010101" stroke-width="0.25" stroke-miterlimit="10" x1="118.75" y1="125" x2="118.75" y2="-25"/>
						
							<line fill="none" stroke="#010101" stroke-width="0.25" stroke-miterlimit="10" x1="121.875" y1="125" x2="121.875" y2="-25"/>
					</g>
					<g>
						
							<line fill="none" stroke="#010101" stroke-width="0.25" stroke-miterlimit="10" x1="-25" y1="-21.875" x2="125" y2="-21.875"/>
						<line fill="none" stroke="#010101" stroke-width="0.25" stroke-miterlimit="10" x1="-25" y1="-18.75" x2="125" y2="-18.75"/>
						
							<line fill="none" stroke="#010101" stroke-width="0.25" stroke-miterlimit="10" x1="-25" y1="-15.625" x2="125" y2="-15.625"/>
						<line fill="none" stroke="#010101" stroke-width="0.25" stroke-miterlimit="10" x1="-25" y1="-12.5" x2="125" y2="-12.5"/>
						<line fill="none" stroke="#010101" stroke-width="0.25" stroke-miterlimit="10" x1="-25" y1="-9.375" x2="125" y2="-9.375"/>
						<line fill="none" stroke="#010101" stroke-width="0.25" stroke-miterlimit="10" x1="-25" y1="-6.25" x2="125" y2="-6.25"/>
						<line fill="none" stroke="#010101" stroke-width="0.25" stroke-miterlimit="10" x1="-25" y1="-3.125" x2="125" y2="-3.125"/>
						<line fill="none" stroke="#010101" stroke-width="0.25" stroke-miterlimit="10" x1="-25" y1="0" x2="125" y2="0"/>
						<line fill="none" stroke="#010101" stroke-width="0.25" stroke-miterlimit="10" x1="-25" y1="3.125" x2="125" y2="3.125"/>
						<line fill="none" stroke="#010101" stroke-width="0.25" stroke-miterlimit="10" x1="-25" y1="6.25" x2="125" y2="6.25"/>
						<line fill="none" stroke="#010101" stroke-width="0.25" stroke-miterlimit="10" x1="-25" y1="9.375" x2="125" y2="9.375"/>
						<line fill="none" stroke="#010101" stroke-width="0.25" stroke-miterlimit="10" x1="-25" y1="12.5" x2="125" y2="12.5"/>
						<line fill="none" stroke="#010101" stroke-width="0.25" stroke-miterlimit="10" x1="-25" y1="15.625" x2="125" y2="15.625"/>
						<line fill="none" stroke="#010101" stroke-width="0.25" stroke-miterlimit="10" x1="-25" y1="18.75" x2="125" y2="18.75"/>
						<line fill="none" stroke="#010101" stroke-width="0.25" stroke-miterlimit="10" x1="-25" y1="21.875" x2="125" y2="21.875"/>
						<line fill="none" stroke="#010101" stroke-width="0.25" stroke-miterlimit="10" x1="-25" y1="25" x2="125" y2="25"/>
						<line fill="none" stroke="#010101" stroke-width="0.25" stroke-miterlimit="10" x1="-25" y1="28.125" x2="125" y2="28.125"/>
						<line fill="none" stroke="#010101" stroke-width="0.25" stroke-miterlimit="10" x1="-25" y1="31.25" x2="125" y2="31.25"/>
						<line fill="none" stroke="#010101" stroke-width="0.25" stroke-miterlimit="10" x1="-25" y1="34.375" x2="125" y2="34.375"/>
						<line fill="none" stroke="#010101" stroke-width="0.25" stroke-miterlimit="10" x1="-25" y1="37.5" x2="125" y2="37.5"/>
						<line fill="none" stroke="#010101" stroke-width="0.25" stroke-miterlimit="10" x1="-25" y1="40.625" x2="125" y2="40.625"/>
						<line fill="none" stroke="#010101" stroke-width="0.25" stroke-miterlimit="10" x1="-25" y1="43.75" x2="125" y2="43.75"/>
						<line fill="none" stroke="#010101" stroke-width="0.25" stroke-miterlimit="10" x1="-25" y1="46.875" x2="125" y2="46.875"/>
						<line fill="none" stroke="#010101" stroke-width="0.25" stroke-miterlimit="10" x1="-25" y1="50" x2="125" y2="50"/>
						<line fill="none" stroke="#010101" stroke-width="0.25" stroke-miterlimit="10" x1="-25" y1="53.125" x2="125" y2="53.125"/>
						<line fill="none" stroke="#010101" stroke-width="0.25" stroke-miterlimit="10" x1="-25" y1="56.25" x2="125" y2="56.25"/>
						<line fill="none" stroke="#010101" stroke-width="0.25" stroke-miterlimit="10" x1="-25" y1="59.375" x2="125" y2="59.375"/>
						<line fill="none" stroke="#010101" stroke-width="0.25" stroke-miterlimit="10" x1="-25" y1="62.5" x2="125" y2="62.5"/>
						<line fill="none" stroke="#010101" stroke-width="0.25" stroke-miterlimit="10" x1="-25" y1="65.625" x2="125" y2="65.625"/>
						<line fill="none" stroke="#010101" stroke-width="0.25" stroke-miterlimit="10" x1="-25" y1="68.75" x2="125" y2="68.75"/>
						<line fill="none" stroke="#010101" stroke-width="0.25" stroke-miterlimit="10" x1="-25" y1="71.875" x2="125" y2="71.875"/>
						<line fill="none" stroke="#010101" stroke-width="0.25" stroke-miterlimit="10" x1="-25" y1="75" x2="125" y2="75"/>
						<line fill="none" stroke="#010101" stroke-width="0.25" stroke-miterlimit="10" x1="-25" y1="78.125" x2="125" y2="78.125"/>
						<line fill="none" stroke="#010101" stroke-width="0.25" stroke-miterlimit="10" x1="-25" y1="81.25" x2="125" y2="81.25"/>
						<line fill="none" stroke="#010101" stroke-width="0.25" stroke-miterlimit="10" x1="-25" y1="84.375" x2="125" y2="84.375"/>
						<line fill="none" stroke="#010101" stroke-width="0.25" stroke-miterlimit="10" x1="-25" y1="87.5" x2="125" y2="87.5"/>
						<line fill="none" stroke="#010101" stroke-width="0.25" stroke-miterlimit="10" x1="-25" y1="90.625" x2="125" y2="90.625"/>
						<line fill="none" stroke="#010101" stroke-width="0.25" stroke-miterlimit="10" x1="-25" y1="93.75" x2="125" y2="93.75"/>
						<line fill="none" stroke="#010101" stroke-width="0.25" stroke-miterlimit="10" x1="-25" y1="96.875" x2="125" y2="96.875"/>
						<line fill="none" stroke="#010101" stroke-width="0.25" stroke-miterlimit="10" x1="-25" y1="100" x2="125" y2="100"/>
						
							<line fill="none" stroke="#010101" stroke-width="0.25" stroke-miterlimit="10" x1="-25" y1="103.125" x2="125" y2="103.125"/>
						<line fill="none" stroke="#010101" stroke-width="0.25" stroke-miterlimit="10" x1="-25" y1="106.25" x2="125" y2="106.25"/>
						
							<line fill="none" stroke="#010101" stroke-width="0.25" stroke-miterlimit="10" x1="-25" y1="109.375" x2="125" y2="109.375"/>
						<line fill="none" stroke="#010101" stroke-width="0.25" stroke-miterlimit="10" x1="-25" y1="112.5" x2="125" y2="112.5"/>
						
							<line fill="none" stroke="#010101" stroke-width="0.25" stroke-miterlimit="10" x1="-25" y1="115.625" x2="125" y2="115.625"/>
						<line fill="none" stroke="#010101" stroke-width="0.25" stroke-miterlimit="10" x1="-25" y1="118.75" x2="125" y2="118.75"/>
						
							<line fill="none" stroke="#010101" stroke-width="0.25" stroke-miterlimit="10" x1="-25" y1="121.875" x2="125" y2="121.875"/>
					</g>
					<path fill="#010101" d="M124.805-24.805v149.609H-24.805V-24.805H124.805 M125-25H-25v150h150V-25z"/>
				</g>
			</g>
		</g>
		<g>
			<rect opacity="0.3" fill="#EF4438" enable-background="new    " width="3.125" height="100"/>
			<rect x="96.875" opacity="0.3" fill="#EF4438" enable-background="new    " width="3.125" height="100"/>
			<rect x="3.125" opacity="0.3" fill="#EF4438" enable-background="new    " width="93.75" height="3.125"/>
			<rect x="3.125" y="96.875" opacity="0.3" fill="#EF4438" enable-background="new    " width="93.75" height="3.125"/>
		</g>
	</g>
</g>
</svg>
