<?xml version="1.0" encoding="utf-8"?>
<!-- Generator: Adobe Illustrator 12.0.0, SVG Export Plug-In . SVG Version: 6.00 Build 51448)  -->
<!DOCTYPE svg PUBLIC "-//W3C//DTD SVG 1.1//EN" "http://www.w3.org/Graphics/SVG/1.1/DTD/svg11.dtd" [
	<!ENTITY ns_svg "http://www.w3.org/2000/svg">
	<!ENTITY ns_xlink "http://www.w3.org/1999/xlink">
]>
<svg  version="1.1" id="レイヤー_1" xmlns="&ns_svg;" xmlns:xlink="&ns_xlink;" width="128" height="128" viewBox="0 0 128 128"
	 overflow="visible" enable-background="new 0 0 128 128" xml:space="preserve">
<path fill="#F9A825" d="M103.626,88.887H26.142c-2.265,0-4.099-1.835-4.099-4.1V22.03c0-2.265,1.834-4.099,4.099-4.099h77.484
	c2.265,0,4.099,1.834,4.099,4.099v62.757C107.725,87.052,105.891,88.887,103.626,88.887z"/>
<path fill="#FDD835" d="M112.541,101.338H16.683c-2.265,0-4.099-1.835-4.099-4.1V36.212c0-2.265,1.834-4.099,4.099-4.099h95.858
	c2.266,0,4.1,1.834,4.1,4.099v61.017C116.641,99.503,114.807,101.338,112.541,101.338z"/>
<g>
	<g>
		<defs>
			<path id="XMLID_346_" d="M122,122.602H7.224c-2.265,0-4.099-1.834-4.099-4.099V50.406c0-2.265,1.834-4.099,4.099-4.099H122
				c2.266,0,4.1,1.834,4.1,4.099v68.097C126.1,120.768,124.266,122.602,122,122.602z"/>
		</defs>
		<clipPath id="XMLID_576_">
			<use xlink:href="#XMLID_346_" />
		</clipPath>
		<rect x="3.125" y="46.307" clip-path="url(#XMLID_576_)" fill="#FFF59D" width="122.975" height="0.308"/>
	</g>
</g>
<g>
	<g>
		<defs>
			<path id="XMLID_348_" d="M122,122.602H7.224c-2.265,0-4.099-1.834-4.099-4.099V50.406c0-2.265,1.834-4.099,4.099-4.099H122
				c2.266,0,4.1,1.834,4.1,4.099v68.097C126.1,120.768,124.266,122.602,122,122.602z"/>
		</defs>
		<clipPath id="XMLID_577_">
			<use xlink:href="#XMLID_348_" />
		</clipPath>
		<rect x="3.125" y="46.614" clip-path="url(#XMLID_577_)" fill="#FFF59D" width="122.975" height="0.676"/>
	</g>
</g>
<g>
	<g>
		<defs>
			<path id="XMLID_350_" d="M122,122.602H7.224c-2.265,0-4.099-1.834-4.099-4.099V50.406c0-2.265,1.834-4.099,4.099-4.099H122
				c2.266,0,4.1,1.834,4.1,4.099v68.097C126.1,120.768,124.266,122.602,122,122.602z"/>
		</defs>
		<clipPath id="XMLID_578_">
			<use xlink:href="#XMLID_350_" />
		</clipPath>
		<rect x="3.125" y="47.291" clip-path="url(#XMLID_578_)" fill="#FFF59D" width="122.975" height="0.676"/>
	</g>
</g>
<g>
	<g>
		<defs>
			<path id="XMLID_352_" d="M122,122.602H7.224c-2.265,0-4.099-1.834-4.099-4.099V50.406c0-2.265,1.834-4.099,4.099-4.099H122
				c2.266,0,4.1,1.834,4.1,4.099v68.097C126.1,120.768,124.266,122.602,122,122.602z"/>
		</defs>
		<clipPath id="XMLID_579_">
			<use xlink:href="#XMLID_352_" />
		</clipPath>
		<rect x="3.125" y="47.967" clip-path="url(#XMLID_579_)" fill="#FFF59D" width="122.975" height="0.676"/>
	</g>
</g>
<g>
	<g>
		<defs>
			<path id="XMLID_354_" d="M122,122.602H7.224c-2.265,0-4.099-1.834-4.099-4.099V50.406c0-2.265,1.834-4.099,4.099-4.099H122
				c2.266,0,4.1,1.834,4.1,4.099v68.097C126.1,120.768,124.266,122.602,122,122.602z"/>
		</defs>
		<clipPath id="XMLID_580_">
			<use xlink:href="#XMLID_354_" />
		</clipPath>
		<rect x="3.125" y="48.643" clip-path="url(#XMLID_580_)" fill="#FFF59D" width="122.975" height="0.677"/>
	</g>
</g>
<g>
	<g>
		<defs>
			<path id="XMLID_356_" d="M122,122.602H7.224c-2.265,0-4.099-1.834-4.099-4.099V50.406c0-2.265,1.834-4.099,4.099-4.099H122
				c2.266,0,4.1,1.834,4.1,4.099v68.097C126.1,120.768,124.266,122.602,122,122.602z"/>
		</defs>
		<clipPath id="XMLID_581_">
			<use xlink:href="#XMLID_356_" />
		</clipPath>
		<rect x="3.125" y="49.32" clip-path="url(#XMLID_581_)" fill="#FFF59C" width="122.975" height="0.676"/>
	</g>
</g>
<g>
	<g>
		<defs>
			<path id="XMLID_358_" d="M122,122.602H7.224c-2.265,0-4.099-1.834-4.099-4.099V50.406c0-2.265,1.834-4.099,4.099-4.099H122
				c2.266,0,4.1,1.834,4.1,4.099v68.097C126.1,120.768,124.266,122.602,122,122.602z"/>
		</defs>
		<clipPath id="XMLID_582_">
			<use xlink:href="#XMLID_358_" />
		</clipPath>
		<rect x="3.125" y="49.996" clip-path="url(#XMLID_582_)" fill="#FFF59C" width="122.975" height="0.676"/>
	</g>
</g>
<g>
	<g>
		<defs>
			<path id="XMLID_360_" d="M122,122.602H7.224c-2.265,0-4.099-1.834-4.099-4.099V50.406c0-2.265,1.834-4.099,4.099-4.099H122
				c2.266,0,4.1,1.834,4.1,4.099v68.097C126.1,120.768,124.266,122.602,122,122.602z"/>
		</defs>
		<clipPath id="XMLID_583_">
			<use xlink:href="#XMLID_360_" />
		</clipPath>
		<rect x="3.125" y="50.683" clip-path="url(#XMLID_583_)" fill="#FFF59C" width="122.975" height="0.676"/>
	</g>
</g>
<g>
	<g>
		<defs>
			<path id="XMLID_362_" d="M122,122.602H7.224c-2.265,0-4.099-1.834-4.099-4.099V50.406c0-2.265,1.834-4.099,4.099-4.099H122
				c2.266,0,4.1,1.834,4.1,4.099v68.097C126.1,120.768,124.266,122.602,122,122.602z"/>
		</defs>
		<clipPath id="XMLID_584_">
			<use xlink:href="#XMLID_362_" />
		</clipPath>
		<rect x="3.125" y="51.359" clip-path="url(#XMLID_584_)" fill="#FFF49C" width="122.975" height="0.676"/>
	</g>
</g>
<g>
	<g>
		<defs>
			<path id="XMLID_364_" d="M122,122.602H7.224c-2.265,0-4.099-1.834-4.099-4.099V50.406c0-2.265,1.834-4.099,4.099-4.099H122
				c2.266,0,4.1,1.834,4.1,4.099v68.097C126.1,120.768,124.266,122.602,122,122.602z"/>
		</defs>
		<clipPath id="XMLID_585_">
			<use xlink:href="#XMLID_364_" />
		</clipPath>
		<rect x="3.125" y="52.035" clip-path="url(#XMLID_585_)" fill="#FFF49B" width="122.975" height="0.677"/>
	</g>
</g>
<g>
	<g>
		<defs>
			<path id="XMLID_366_" d="M122,122.602H7.224c-2.265,0-4.099-1.834-4.099-4.099V50.406c0-2.265,1.834-4.099,4.099-4.099H122
				c2.266,0,4.1,1.834,4.1,4.099v68.097C126.1,120.768,124.266,122.602,122,122.602z"/>
		</defs>
		<clipPath id="XMLID_586_">
			<use xlink:href="#XMLID_366_" />
		</clipPath>
		<rect x="3.125" y="52.712" clip-path="url(#XMLID_586_)" fill="#FFF49B" width="122.975" height="0.676"/>
	</g>
</g>
<g>
	<g>
		<defs>
			<path id="XMLID_368_" d="M122,122.602H7.224c-2.265,0-4.099-1.834-4.099-4.099V50.406c0-2.265,1.834-4.099,4.099-4.099H122
				c2.266,0,4.1,1.834,4.1,4.099v68.097C126.1,120.768,124.266,122.602,122,122.602z"/>
		</defs>
		<clipPath id="XMLID_587_">
			<use xlink:href="#XMLID_368_" />
		</clipPath>
		<rect x="3.125" y="53.388" clip-path="url(#XMLID_587_)" fill="#FFF49B" width="122.975" height="0.676"/>
	</g>
</g>
<g>
	<g>
		<defs>
			<path id="XMLID_370_" d="M122,122.602H7.224c-2.265,0-4.099-1.834-4.099-4.099V50.406c0-2.265,1.834-4.099,4.099-4.099H122
				c2.266,0,4.1,1.834,4.1,4.099v68.097C126.1,120.768,124.266,122.602,122,122.602z"/>
		</defs>
		<clipPath id="XMLID_588_">
			<use xlink:href="#XMLID_370_" />
		</clipPath>
		<rect x="3.125" y="54.064" clip-path="url(#XMLID_588_)" fill="#FFF49A" width="122.975" height="0.676"/>
	</g>
</g>
<g>
	<g>
		<defs>
			<path id="XMLID_372_" d="M122,122.602H7.224c-2.265,0-4.099-1.834-4.099-4.099V50.406c0-2.265,1.834-4.099,4.099-4.099H122
				c2.266,0,4.1,1.834,4.1,4.099v68.097C126.1,120.768,124.266,122.602,122,122.602z"/>
		</defs>
		<clipPath id="XMLID_589_">
			<use xlink:href="#XMLID_372_" />
		</clipPath>
		<rect x="3.125" y="54.741" clip-path="url(#XMLID_589_)" fill="#FFF49A" width="122.975" height="0.676"/>
	</g>
</g>
<g>
	<g>
		<defs>
			<path id="XMLID_374_" d="M122,122.602H7.224c-2.265,0-4.099-1.834-4.099-4.099V50.406c0-2.265,1.834-4.099,4.099-4.099H122
				c2.266,0,4.1,1.834,4.1,4.099v68.097C126.1,120.768,124.266,122.602,122,122.602z"/>
		</defs>
		<clipPath id="XMLID_590_">
			<use xlink:href="#XMLID_374_" />
		</clipPath>
		<rect x="3.125" y="55.417" clip-path="url(#XMLID_590_)" fill="#FFF399" width="122.975" height="0.676"/>
	</g>
</g>
<g>
	<g>
		<defs>
			<path id="XMLID_376_" d="M122,122.602H7.224c-2.265,0-4.099-1.834-4.099-4.099V50.406c0-2.265,1.834-4.099,4.099-4.099H122
				c2.266,0,4.1,1.834,4.1,4.099v68.097C126.1,120.768,124.266,122.602,122,122.602z"/>
		</defs>
		<clipPath id="XMLID_591_">
			<use xlink:href="#XMLID_376_" />
		</clipPath>
		<rect x="3.125" y="56.093" clip-path="url(#XMLID_591_)" fill="#FFF399" width="122.975" height="0.677"/>
	</g>
</g>
<g>
	<g>
		<defs>
			<path id="XMLID_378_" d="M122,122.602H7.224c-2.265,0-4.099-1.834-4.099-4.099V50.406c0-2.265,1.834-4.099,4.099-4.099H122
				c2.266,0,4.1,1.834,4.1,4.099v68.097C126.1,120.768,124.266,122.602,122,122.602z"/>
		</defs>
		<clipPath id="XMLID_592_">
			<use xlink:href="#XMLID_378_" />
		</clipPath>
		<rect x="3.125" y="56.77" clip-path="url(#XMLID_592_)" fill="#FFF399" width="122.975" height="0.676"/>
	</g>
</g>
<g>
	<g>
		<defs>
			<path id="XMLID_380_" d="M122,122.602H7.224c-2.265,0-4.099-1.834-4.099-4.099V50.406c0-2.265,1.834-4.099,4.099-4.099H122
				c2.266,0,4.1,1.834,4.1,4.099v68.097C126.1,120.768,124.266,122.602,122,122.602z"/>
		</defs>
		<clipPath id="XMLID_593_">
			<use xlink:href="#XMLID_380_" />
		</clipPath>
		<rect x="3.125" y="57.446" clip-path="url(#XMLID_593_)" fill="#FFF398" width="122.975" height="0.676"/>
	</g>
</g>
<g>
	<g>
		<defs>
			<path id="XMLID_382_" d="M122,122.602H7.224c-2.265,0-4.099-1.834-4.099-4.099V50.406c0-2.265,1.834-4.099,4.099-4.099H122
				c2.266,0,4.1,1.834,4.1,4.099v68.097C126.1,120.768,124.266,122.602,122,122.602z"/>
		</defs>
		<clipPath id="XMLID_594_">
			<use xlink:href="#XMLID_382_" />
		</clipPath>
		<rect x="3.125" y="58.123" clip-path="url(#XMLID_594_)" fill="#FFF298" width="122.975" height="0.676"/>
	</g>
</g>
<g>
	<g>
		<defs>
			<path id="XMLID_384_" d="M122,122.602H7.224c-2.265,0-4.099-1.834-4.099-4.099V50.406c0-2.265,1.834-4.099,4.099-4.099H122
				c2.266,0,4.1,1.834,4.1,4.099v68.097C126.1,120.768,124.266,122.602,122,122.602z"/>
		</defs>
		<clipPath id="XMLID_595_">
			<use xlink:href="#XMLID_384_" />
		</clipPath>
		<rect x="3.125" y="58.809" clip-path="url(#XMLID_595_)" fill="#FFF297" width="122.975" height="0.676"/>
	</g>
</g>
<g>
	<g>
		<defs>
			<path id="XMLID_386_" d="M122,122.602H7.224c-2.265,0-4.099-1.834-4.099-4.099V50.406c0-2.265,1.834-4.099,4.099-4.099H122
				c2.266,0,4.1,1.834,4.1,4.099v68.097C126.1,120.768,124.266,122.602,122,122.602z"/>
		</defs>
		<clipPath id="XMLID_596_">
			<use xlink:href="#XMLID_386_" />
		</clipPath>
		<rect x="3.125" y="59.485" clip-path="url(#XMLID_596_)" fill="#FFF296" width="122.975" height="0.676"/>
	</g>
</g>
<g>
	<g>
		<defs>
			<path id="XMLID_388_" d="M122,122.602H7.224c-2.265,0-4.099-1.834-4.099-4.099V50.406c0-2.265,1.834-4.099,4.099-4.099H122
				c2.266,0,4.1,1.834,4.1,4.099v68.097C126.1,120.768,124.266,122.602,122,122.602z"/>
		</defs>
		<clipPath id="XMLID_597_">
			<use xlink:href="#XMLID_388_" />
		</clipPath>
		<rect x="3.125" y="60.162" clip-path="url(#XMLID_597_)" fill="#FFF296" width="122.975" height="0.677"/>
	</g>
</g>
<g>
	<g>
		<defs>
			<path id="XMLID_390_" d="M122,122.602H7.224c-2.265,0-4.099-1.834-4.099-4.099V50.406c0-2.265,1.834-4.099,4.099-4.099H122
				c2.266,0,4.1,1.834,4.1,4.099v68.097C126.1,120.768,124.266,122.602,122,122.602z"/>
		</defs>
		<clipPath id="XMLID_598_">
			<use xlink:href="#XMLID_390_" />
		</clipPath>
		<rect x="3.125" y="60.838" clip-path="url(#XMLID_598_)" fill="#FFF195" width="122.975" height="0.676"/>
	</g>
</g>
<g>
	<g>
		<defs>
			<path id="XMLID_392_" d="M122,122.602H7.224c-2.265,0-4.099-1.834-4.099-4.099V50.406c0-2.265,1.834-4.099,4.099-4.099H122
				c2.266,0,4.1,1.834,4.1,4.099v68.097C126.1,120.768,124.266,122.602,122,122.602z"/>
		</defs>
		<clipPath id="XMLID_599_">
			<use xlink:href="#XMLID_392_" />
		</clipPath>
		<rect x="3.125" y="61.515" clip-path="url(#XMLID_599_)" fill="#FFF195" width="122.975" height="0.676"/>
	</g>
</g>
<g>
	<g>
		<defs>
			<path id="XMLID_394_" d="M122,122.602H7.224c-2.265,0-4.099-1.834-4.099-4.099V50.406c0-2.265,1.834-4.099,4.099-4.099H122
				c2.266,0,4.1,1.834,4.1,4.099v68.097C126.1,120.768,124.266,122.602,122,122.602z"/>
		</defs>
		<clipPath id="XMLID_600_">
			<use xlink:href="#XMLID_394_" />
		</clipPath>
		<rect x="3.125" y="62.191" clip-path="url(#XMLID_600_)" fill="#FFF194" width="122.975" height="0.676"/>
	</g>
</g>
<g>
	<g>
		<defs>
			<path id="XMLID_396_" d="M122,122.602H7.224c-2.265,0-4.099-1.834-4.099-4.099V50.406c0-2.265,1.834-4.099,4.099-4.099H122
				c2.266,0,4.1,1.834,4.1,4.099v68.097C126.1,120.768,124.266,122.602,122,122.602z"/>
		</defs>
		<clipPath id="XMLID_601_">
			<use xlink:href="#XMLID_396_" />
		</clipPath>
		<rect x="3.125" y="62.867" clip-path="url(#XMLID_601_)" fill="#FFF194" width="122.975" height="0.676"/>
	</g>
</g>
<g>
	<g>
		<defs>
			<path id="XMLID_398_" d="M122,122.602H7.224c-2.265,0-4.099-1.834-4.099-4.099V50.406c0-2.265,1.834-4.099,4.099-4.099H122
				c2.266,0,4.1,1.834,4.1,4.099v68.097C126.1,120.768,124.266,122.602,122,122.602z"/>
		</defs>
		<clipPath id="XMLID_602_">
			<use xlink:href="#XMLID_398_" />
		</clipPath>
		<rect x="3.125" y="63.543" clip-path="url(#XMLID_602_)" fill="#FFF093" width="122.975" height="0.677"/>
	</g>
</g>
<g>
	<g>
		<defs>
			<path id="XMLID_400_" d="M122,122.602H7.224c-2.265,0-4.099-1.834-4.099-4.099V50.406c0-2.265,1.834-4.099,4.099-4.099H122
				c2.266,0,4.1,1.834,4.1,4.099v68.097C126.1,120.768,124.266,122.602,122,122.602z"/>
		</defs>
		<clipPath id="XMLID_603_">
			<use xlink:href="#XMLID_400_" />
		</clipPath>
		<rect x="3.125" y="64.22" clip-path="url(#XMLID_603_)" fill="#FFF092" width="122.975" height="0.677"/>
	</g>
</g>
<g>
	<g>
		<defs>
			<path id="XMLID_402_" d="M122,122.602H7.224c-2.265,0-4.099-1.834-4.099-4.099V50.406c0-2.265,1.834-4.099,4.099-4.099H122
				c2.266,0,4.1,1.834,4.1,4.099v68.097C126.1,120.768,124.266,122.602,122,122.602z"/>
		</defs>
		<clipPath id="XMLID_604_">
			<use xlink:href="#XMLID_402_" />
		</clipPath>
		<rect x="3.125" y="64.896" clip-path="url(#XMLID_604_)" fill="#FFF092" width="122.975" height="0.676"/>
	</g>
</g>
<g>
	<g>
		<defs>
			<path id="XMLID_404_" d="M122,122.602H7.224c-2.265,0-4.099-1.834-4.099-4.099V50.406c0-2.265,1.834-4.099,4.099-4.099H122
				c2.266,0,4.1,1.834,4.1,4.099v68.097C126.1,120.768,124.266,122.602,122,122.602z"/>
		</defs>
		<clipPath id="XMLID_605_">
			<use xlink:href="#XMLID_404_" />
		</clipPath>
		<rect x="3.125" y="65.572" clip-path="url(#XMLID_605_)" fill="#FFEF91" width="122.975" height="0.677"/>
	</g>
</g>
<g>
	<g>
		<defs>
			<path id="XMLID_406_" d="M122,122.602H7.224c-2.265,0-4.099-1.834-4.099-4.099V50.406c0-2.265,1.834-4.099,4.099-4.099H122
				c2.266,0,4.1,1.834,4.1,4.099v68.097C126.1,120.768,124.266,122.602,122,122.602z"/>
		</defs>
		<clipPath id="XMLID_606_">
			<use xlink:href="#XMLID_406_" />
		</clipPath>
		<rect x="3.125" y="66.26" clip-path="url(#XMLID_606_)" fill="#FFEF90" width="122.975" height="0.676"/>
	</g>
</g>
<g>
	<g>
		<defs>
			<path id="XMLID_408_" d="M122,122.602H7.224c-2.265,0-4.099-1.834-4.099-4.099V50.406c0-2.265,1.834-4.099,4.099-4.099H122
				c2.266,0,4.1,1.834,4.1,4.099v68.097C126.1,120.768,124.266,122.602,122,122.602z"/>
		</defs>
		<clipPath id="XMLID_607_">
			<use xlink:href="#XMLID_408_" />
		</clipPath>
		<rect x="3.125" y="66.936" clip-path="url(#XMLID_607_)" fill="#FFEF8F" width="122.975" height="0.678"/>
	</g>
</g>
<g>
	<g>
		<defs>
			<path id="XMLID_410_" d="M122,122.602H7.224c-2.265,0-4.099-1.834-4.099-4.099V50.406c0-2.265,1.834-4.099,4.099-4.099H122
				c2.266,0,4.1,1.834,4.1,4.099v68.097C126.1,120.768,124.266,122.602,122,122.602z"/>
		</defs>
		<clipPath id="XMLID_608_">
			<use xlink:href="#XMLID_410_" />
		</clipPath>
		<rect x="3.125" y="67.611" clip-path="url(#XMLID_608_)" fill="#FEEE8F" width="122.975" height="0.677"/>
	</g>
</g>
<g>
	<g>
		<defs>
			<path id="XMLID_412_" d="M122,122.602H7.224c-2.265,0-4.099-1.834-4.099-4.099V50.406c0-2.265,1.834-4.099,4.099-4.099H122
				c2.266,0,4.1,1.834,4.1,4.099v68.097C126.1,120.768,124.266,122.602,122,122.602z"/>
		</defs>
		<clipPath id="XMLID_609_">
			<use xlink:href="#XMLID_412_" />
		</clipPath>
		<rect x="3.125" y="68.288" clip-path="url(#XMLID_609_)" fill="#FEEE8E" width="122.975" height="0.677"/>
	</g>
</g>
<g>
	<g>
		<defs>
			<path id="XMLID_414_" d="M122,122.602H7.224c-2.265,0-4.099-1.834-4.099-4.099V50.406c0-2.265,1.834-4.099,4.099-4.099H122
				c2.266,0,4.1,1.834,4.1,4.099v68.097C126.1,120.768,124.266,122.602,122,122.602z"/>
		</defs>
		<clipPath id="XMLID_610_">
			<use xlink:href="#XMLID_414_" />
		</clipPath>
		<rect x="3.125" y="68.965" clip-path="url(#XMLID_610_)" fill="#FEED8D" width="122.975" height="0.676"/>
	</g>
</g>
<g>
	<g>
		<defs>
			<path id="XMLID_416_" d="M122,122.602H7.224c-2.265,0-4.099-1.834-4.099-4.099V50.406c0-2.265,1.834-4.099,4.099-4.099H122
				c2.266,0,4.1,1.834,4.1,4.099v68.097C126.1,120.768,124.266,122.602,122,122.602z"/>
		</defs>
		<clipPath id="XMLID_611_">
			<use xlink:href="#XMLID_416_" />
		</clipPath>
		<rect x="3.125" y="69.641" clip-path="url(#XMLID_611_)" fill="#FEED8C" width="122.975" height="0.678"/>
	</g>
</g>
<g>
	<g>
		<defs>
			<path id="XMLID_418_" d="M122,122.602H7.224c-2.265,0-4.099-1.834-4.099-4.099V50.406c0-2.265,1.834-4.099,4.099-4.099H122
				c2.266,0,4.1,1.834,4.1,4.099v68.097C126.1,120.768,124.266,122.602,122,122.602z"/>
		</defs>
		<clipPath id="XMLID_612_">
			<use xlink:href="#XMLID_418_" />
		</clipPath>
		<rect x="3.125" y="70.316" clip-path="url(#XMLID_612_)" fill="#FEED8C" width="122.975" height="0.678"/>
	</g>
</g>
<g>
	<g>
		<defs>
			<path id="XMLID_420_" d="M122,122.602H7.224c-2.265,0-4.099-1.834-4.099-4.099V50.406c0-2.265,1.834-4.099,4.099-4.099H122
				c2.266,0,4.1,1.834,4.1,4.099v68.097C126.1,120.768,124.266,122.602,122,122.602z"/>
		</defs>
		<clipPath id="XMLID_613_">
			<use xlink:href="#XMLID_420_" />
		</clipPath>
		<rect x="3.125" y="70.994" clip-path="url(#XMLID_613_)" fill="#FEEC8B" width="122.975" height="0.676"/>
	</g>
</g>
<g>
	<g>
		<defs>
			<path id="XMLID_422_" d="M122,122.602H7.224c-2.265,0-4.099-1.834-4.099-4.099V50.406c0-2.265,1.834-4.099,4.099-4.099H122
				c2.266,0,4.1,1.834,4.1,4.099v68.097C126.1,120.768,124.266,122.602,122,122.602z"/>
		</defs>
		<clipPath id="XMLID_614_">
			<use xlink:href="#XMLID_422_" />
		</clipPath>
		<rect x="3.125" y="71.67" clip-path="url(#XMLID_614_)" fill="#FEEC8A" width="122.975" height="0.678"/>
	</g>
</g>
<g>
	<g>
		<defs>
			<path id="XMLID_424_" d="M122,122.602H7.224c-2.265,0-4.099-1.834-4.099-4.099V50.406c0-2.265,1.834-4.099,4.099-4.099H122
				c2.266,0,4.1,1.834,4.1,4.099v68.097C126.1,120.768,124.266,122.602,122,122.602z"/>
		</defs>
		<clipPath id="XMLID_615_">
			<use xlink:href="#XMLID_424_" />
		</clipPath>
		<rect x="3.125" y="72.348" clip-path="url(#XMLID_615_)" fill="#FEEC89" width="122.975" height="0.676"/>
	</g>
</g>
<g>
	<g>
		<defs>
			<path id="XMLID_426_" d="M122,122.602H7.224c-2.265,0-4.099-1.834-4.099-4.099V50.406c0-2.265,1.834-4.099,4.099-4.099H122
				c2.266,0,4.1,1.834,4.1,4.099v68.097C126.1,120.768,124.266,122.602,122,122.602z"/>
		</defs>
		<clipPath id="XMLID_616_">
			<use xlink:href="#XMLID_426_" />
		</clipPath>
		<rect x="3.125" y="73.021" clip-path="url(#XMLID_616_)" fill="#FEEB88" width="122.975" height="0.678"/>
	</g>
</g>
<g>
	<g>
		<defs>
			<path id="XMLID_428_" d="M122,122.602H7.224c-2.265,0-4.099-1.834-4.099-4.099V50.406c0-2.265,1.834-4.099,4.099-4.099H122
				c2.266,0,4.1,1.834,4.1,4.099v68.097C126.1,120.768,124.266,122.602,122,122.602z"/>
		</defs>
		<clipPath id="XMLID_617_">
			<use xlink:href="#XMLID_428_" />
		</clipPath>
		<rect x="3.125" y="73.71" clip-path="url(#XMLID_617_)" fill="#FEEB87" width="122.975" height="0.676"/>
	</g>
</g>
<g>
	<g>
		<defs>
			<path id="XMLID_430_" d="M122,122.602H7.224c-2.265,0-4.099-1.834-4.099-4.099V50.406c0-2.265,1.834-4.099,4.099-4.099H122
				c2.266,0,4.1,1.834,4.1,4.099v68.097C126.1,120.768,124.266,122.602,122,122.602z"/>
		</defs>
		<clipPath id="XMLID_618_">
			<use xlink:href="#XMLID_430_" />
		</clipPath>
		<rect x="3.125" y="74.386" clip-path="url(#XMLID_618_)" fill="#FEEA87" width="122.975" height="0.677"/>
	</g>
</g>
<g>
	<g>
		<defs>
			<path id="XMLID_432_" d="M122,122.602H7.224c-2.265,0-4.099-1.834-4.099-4.099V50.406c0-2.265,1.834-4.099,4.099-4.099H122
				c2.266,0,4.1,1.834,4.1,4.099v68.097C126.1,120.768,124.266,122.602,122,122.602z"/>
		</defs>
		<clipPath id="XMLID_619_">
			<use xlink:href="#XMLID_432_" />
		</clipPath>
		<rect x="3.125" y="75.063" clip-path="url(#XMLID_619_)" fill="#FEEA86" width="122.975" height="0.677"/>
	</g>
</g>
<g>
	<g>
		<defs>
			<path id="XMLID_434_" d="M122,122.602H7.224c-2.265,0-4.099-1.834-4.099-4.099V50.406c0-2.265,1.834-4.099,4.099-4.099H122
				c2.266,0,4.1,1.834,4.1,4.099v68.097C126.1,120.768,124.266,122.602,122,122.602z"/>
		</defs>
		<clipPath id="XMLID_620_">
			<use xlink:href="#XMLID_434_" />
		</clipPath>
		<rect x="3.125" y="75.738" clip-path="url(#XMLID_620_)" fill="#FEEA85" width="122.975" height="0.677"/>
	</g>
</g>
<g>
	<g>
		<defs>
			<path id="XMLID_436_" d="M122,122.602H7.224c-2.265,0-4.099-1.834-4.099-4.099V50.406c0-2.265,1.834-4.099,4.099-4.099H122
				c2.266,0,4.1,1.834,4.1,4.099v68.097C126.1,120.768,124.266,122.602,122,122.602z"/>
		</defs>
		<clipPath id="XMLID_621_">
			<use xlink:href="#XMLID_436_" />
		</clipPath>
		<rect x="3.125" y="76.415" clip-path="url(#XMLID_621_)" fill="#FEE984" width="122.975" height="0.676"/>
	</g>
</g>
<g>
	<g>
		<defs>
			<path id="XMLID_438_" d="M122,122.602H7.224c-2.265,0-4.099-1.834-4.099-4.099V50.406c0-2.265,1.834-4.099,4.099-4.099H122
				c2.266,0,4.1,1.834,4.1,4.099v68.097C126.1,120.768,124.266,122.602,122,122.602z"/>
		</defs>
		<clipPath id="XMLID_622_">
			<use xlink:href="#XMLID_438_" />
		</clipPath>
		<rect x="3.125" y="77.091" clip-path="url(#XMLID_622_)" fill="#FEE983" width="122.975" height="0.677"/>
	</g>
</g>
<g>
	<g>
		<defs>
			<path id="XMLID_440_" d="M122,122.602H7.224c-2.265,0-4.099-1.834-4.099-4.099V50.406c0-2.265,1.834-4.099,4.099-4.099H122
				c2.266,0,4.1,1.834,4.1,4.099v68.097C126.1,120.768,124.266,122.602,122,122.602z"/>
		</defs>
		<clipPath id="XMLID_623_">
			<use xlink:href="#XMLID_440_" />
		</clipPath>
		<rect x="3.125" y="77.768" clip-path="url(#XMLID_623_)" fill="#FEE882" width="122.975" height="0.678"/>
	</g>
</g>
<g>
	<g>
		<defs>
			<path id="XMLID_442_" d="M122,122.602H7.224c-2.265,0-4.099-1.834-4.099-4.099V50.406c0-2.265,1.834-4.099,4.099-4.099H122
				c2.266,0,4.1,1.834,4.1,4.099v68.097C126.1,120.768,124.266,122.602,122,122.602z"/>
		</defs>
		<clipPath id="XMLID_624_">
			<use xlink:href="#XMLID_442_" />
		</clipPath>
		<rect x="3.125" y="78.443" clip-path="url(#XMLID_624_)" fill="#FEE881" width="122.975" height="0.677"/>
	</g>
</g>
<g>
	<g>
		<defs>
			<path id="XMLID_444_" d="M122,122.602H7.224c-2.265,0-4.099-1.834-4.099-4.099V50.406c0-2.265,1.834-4.099,4.099-4.099H122
				c2.266,0,4.1,1.834,4.1,4.099v68.097C126.1,120.768,124.266,122.602,122,122.602z"/>
		</defs>
		<clipPath id="XMLID_625_">
			<use xlink:href="#XMLID_444_" />
		</clipPath>
		<rect x="3.125" y="79.12" clip-path="url(#XMLID_625_)" fill="#FEE780" width="122.975" height="0.677"/>
	</g>
</g>
<g>
	<g>
		<defs>
			<path id="XMLID_446_" d="M122,122.602H7.224c-2.265,0-4.099-1.834-4.099-4.099V50.406c0-2.265,1.834-4.099,4.099-4.099H122
				c2.266,0,4.1,1.834,4.1,4.099v68.097C126.1,120.768,124.266,122.602,122,122.602z"/>
		</defs>
		<clipPath id="XMLID_626_">
			<use xlink:href="#XMLID_446_" />
		</clipPath>
		<rect x="3.125" y="79.797" clip-path="url(#XMLID_626_)" fill="#FEE77F" width="122.975" height="0.676"/>
	</g>
</g>
<g>
	<g>
		<defs>
			<path id="XMLID_448_" d="M122,122.602H7.224c-2.265,0-4.099-1.834-4.099-4.099V50.406c0-2.265,1.834-4.099,4.099-4.099H122
				c2.266,0,4.1,1.834,4.1,4.099v68.097C126.1,120.768,124.266,122.602,122,122.602z"/>
		</defs>
		<clipPath id="XMLID_627_">
			<use xlink:href="#XMLID_448_" />
		</clipPath>
		<rect x="3.125" y="80.473" clip-path="url(#XMLID_627_)" fill="#FEE67E" width="122.975" height="0.678"/>
	</g>
</g>
<g>
	<g>
		<defs>
			<path id="XMLID_450_" d="M122,122.602H7.224c-2.265,0-4.099-1.834-4.099-4.099V50.406c0-2.265,1.834-4.099,4.099-4.099H122
				c2.266,0,4.1,1.834,4.1,4.099v68.097C126.1,120.768,124.266,122.602,122,122.602z"/>
		</defs>
		<clipPath id="XMLID_628_">
			<use xlink:href="#XMLID_450_" />
		</clipPath>
		<rect x="3.125" y="81.148" clip-path="url(#XMLID_628_)" fill="#FEE67D" width="122.975" height="0.678"/>
	</g>
</g>
<g>
	<g>
		<defs>
			<path id="XMLID_452_" d="M122,122.602H7.224c-2.265,0-4.099-1.834-4.099-4.099V50.406c0-2.265,1.834-4.099,4.099-4.099H122
				c2.266,0,4.1,1.834,4.1,4.099v68.097C126.1,120.768,124.266,122.602,122,122.602z"/>
		</defs>
		<clipPath id="XMLID_629_">
			<use xlink:href="#XMLID_452_" />
		</clipPath>
		<rect x="3.125" y="81.836" clip-path="url(#XMLID_629_)" fill="#FEE57C" width="122.975" height="0.678"/>
	</g>
</g>
<g>
	<g>
		<defs>
			<path id="XMLID_454_" d="M122,122.602H7.224c-2.265,0-4.099-1.834-4.099-4.099V50.406c0-2.265,1.834-4.099,4.099-4.099H122
				c2.266,0,4.1,1.834,4.1,4.099v68.097C126.1,120.768,124.266,122.602,122,122.602z"/>
		</defs>
		<clipPath id="XMLID_630_">
			<use xlink:href="#XMLID_454_" />
		</clipPath>
		<rect x="3.125" y="82.514" clip-path="url(#XMLID_630_)" fill="#FEE57B" width="122.975" height="0.676"/>
	</g>
</g>
<g>
	<g>
		<defs>
			<path id="XMLID_456_" d="M122,122.602H7.224c-2.265,0-4.099-1.834-4.099-4.099V50.406c0-2.265,1.834-4.099,4.099-4.099H122
				c2.266,0,4.1,1.834,4.1,4.099v68.097C126.1,120.768,124.266,122.602,122,122.602z"/>
		</defs>
		<clipPath id="XMLID_631_">
			<use xlink:href="#XMLID_456_" />
		</clipPath>
		<rect x="3.125" y="83.188" clip-path="url(#XMLID_631_)" fill="#FEE47A" width="122.975" height="0.678"/>
	</g>
</g>
<g>
	<g>
		<defs>
			<path id="XMLID_458_" d="M122,122.602H7.224c-2.265,0-4.099-1.834-4.099-4.099V50.406c0-2.265,1.834-4.099,4.099-4.099H122
				c2.266,0,4.1,1.834,4.1,4.099v68.097C126.1,120.768,124.266,122.602,122,122.602z"/>
		</defs>
		<clipPath id="XMLID_632_">
			<use xlink:href="#XMLID_458_" />
		</clipPath>
		<rect x="3.125" y="83.865" clip-path="url(#XMLID_632_)" fill="#FEE479" width="122.975" height="0.676"/>
	</g>
</g>
<g>
	<g>
		<defs>
			<path id="XMLID_460_" d="M122,122.602H7.224c-2.265,0-4.099-1.834-4.099-4.099V50.406c0-2.265,1.834-4.099,4.099-4.099H122
				c2.266,0,4.1,1.834,4.1,4.099v68.097C126.1,120.768,124.266,122.602,122,122.602z"/>
		</defs>
		<clipPath id="XMLID_633_">
			<use xlink:href="#XMLID_460_" />
		</clipPath>
		<rect x="3.125" y="84.541" clip-path="url(#XMLID_633_)" fill="#FEE378" width="122.975" height="0.677"/>
	</g>
</g>
<g>
	<g>
		<defs>
			<path id="XMLID_462_" d="M122,122.602H7.224c-2.265,0-4.099-1.834-4.099-4.099V50.406c0-2.265,1.834-4.099,4.099-4.099H122
				c2.266,0,4.1,1.834,4.1,4.099v68.097C126.1,120.768,124.266,122.602,122,122.602z"/>
		</defs>
		<clipPath id="XMLID_634_">
			<use xlink:href="#XMLID_462_" />
		</clipPath>
		<rect x="3.125" y="85.218" clip-path="url(#XMLID_634_)" fill="#FEE377" width="122.975" height="0.677"/>
	</g>
</g>
<g>
	<g>
		<defs>
			<path id="XMLID_464_" d="M122,122.602H7.224c-2.265,0-4.099-1.834-4.099-4.099V50.406c0-2.265,1.834-4.099,4.099-4.099H122
				c2.266,0,4.1,1.834,4.1,4.099v68.097C126.1,120.768,124.266,122.602,122,122.602z"/>
		</defs>
		<clipPath id="XMLID_635_">
			<use xlink:href="#XMLID_464_" />
		</clipPath>
		<rect x="3.125" y="85.895" clip-path="url(#XMLID_635_)" fill="#FEE276" width="122.975" height="0.676"/>
	</g>
</g>
<g>
	<g>
		<defs>
			<path id="XMLID_466_" d="M122,122.602H7.224c-2.265,0-4.099-1.834-4.099-4.099V50.406c0-2.265,1.834-4.099,4.099-4.099H122
				c2.266,0,4.1,1.834,4.1,4.099v68.097C126.1,120.768,124.266,122.602,122,122.602z"/>
		</defs>
		<clipPath id="XMLID_636_">
			<use xlink:href="#XMLID_466_" />
		</clipPath>
		<rect x="3.125" y="86.57" clip-path="url(#XMLID_636_)" fill="#FEE275" width="122.975" height="0.677"/>
	</g>
</g>
<g>
	<g>
		<defs>
			<path id="XMLID_468_" d="M122,122.602H7.224c-2.265,0-4.099-1.834-4.099-4.099V50.406c0-2.265,1.834-4.099,4.099-4.099H122
				c2.266,0,4.1,1.834,4.1,4.099v68.097C126.1,120.768,124.266,122.602,122,122.602z"/>
		</defs>
		<clipPath id="XMLID_637_">
			<use xlink:href="#XMLID_468_" />
		</clipPath>
		<rect x="3.125" y="87.247" clip-path="url(#XMLID_637_)" fill="#FEE173" width="122.975" height="0.676"/>
	</g>
</g>
<g>
	<g>
		<defs>
			<path id="XMLID_470_" d="M122,122.602H7.224c-2.265,0-4.099-1.834-4.099-4.099V50.406c0-2.265,1.834-4.099,4.099-4.099H122
				c2.266,0,4.1,1.834,4.1,4.099v68.097C126.1,120.768,124.266,122.602,122,122.602z"/>
		</defs>
		<clipPath id="XMLID_638_">
			<use xlink:href="#XMLID_470_" />
		</clipPath>
		<rect x="3.125" y="87.923" clip-path="url(#XMLID_638_)" fill="#FDE172" width="122.975" height="0.677"/>
	</g>
</g>
<g>
	<g>
		<defs>
			<path id="XMLID_472_" d="M122,122.602H7.224c-2.265,0-4.099-1.834-4.099-4.099V50.406c0-2.265,1.834-4.099,4.099-4.099H122
				c2.266,0,4.1,1.834,4.1,4.099v68.097C126.1,120.768,124.266,122.602,122,122.602z"/>
		</defs>
		<clipPath id="XMLID_639_">
			<use xlink:href="#XMLID_472_" />
		</clipPath>
		<rect x="3.125" y="88.6" clip-path="url(#XMLID_639_)" fill="#FDE071" width="122.975" height="0.678"/>
	</g>
</g>
<g>
	<g>
		<defs>
			<path id="XMLID_474_" d="M122,122.602H7.224c-2.265,0-4.099-1.834-4.099-4.099V50.406c0-2.265,1.834-4.099,4.099-4.099H122
				c2.266,0,4.1,1.834,4.1,4.099v68.097C126.1,120.768,124.266,122.602,122,122.602z"/>
		</defs>
		<clipPath id="XMLID_640_">
			<use xlink:href="#XMLID_474_" />
		</clipPath>
		<rect x="3.125" y="89.286" clip-path="url(#XMLID_640_)" fill="#FDE070" width="122.975" height="0.677"/>
	</g>
</g>
<g>
	<g>
		<defs>
			<path id="XMLID_476_" d="M122,122.602H7.224c-2.265,0-4.099-1.834-4.099-4.099V50.406c0-2.265,1.834-4.099,4.099-4.099H122
				c2.266,0,4.1,1.834,4.1,4.099v68.097C126.1,120.768,124.266,122.602,122,122.602z"/>
		</defs>
		<clipPath id="XMLID_641_">
			<use xlink:href="#XMLID_476_" />
		</clipPath>
		<rect x="3.125" y="89.963" clip-path="url(#XMLID_641_)" fill="#FDDF6F" width="122.975" height="0.676"/>
	</g>
</g>
<g>
	<g>
		<defs>
			<path id="XMLID_478_" d="M122,122.602H7.224c-2.265,0-4.099-1.834-4.099-4.099V50.406c0-2.265,1.834-4.099,4.099-4.099H122
				c2.266,0,4.1,1.834,4.1,4.099v68.097C126.1,120.768,124.266,122.602,122,122.602z"/>
		</defs>
		<clipPath id="XMLID_642_">
			<use xlink:href="#XMLID_478_" />
		</clipPath>
		<rect x="3.125" y="90.639" clip-path="url(#XMLID_642_)" fill="#FDDF6E" width="122.975" height="0.678"/>
	</g>
</g>
<g>
	<g>
		<defs>
			<path id="XMLID_480_" d="M122,122.602H7.224c-2.265,0-4.099-1.834-4.099-4.099V50.406c0-2.265,1.834-4.099,4.099-4.099H122
				c2.266,0,4.1,1.834,4.1,4.099v68.097C126.1,120.768,124.266,122.602,122,122.602z"/>
		</defs>
		<clipPath id="XMLID_643_">
			<use xlink:href="#XMLID_480_" />
		</clipPath>
		<rect x="3.125" y="91.314" clip-path="url(#XMLID_643_)" fill="#FDDE6D" width="122.975" height="0.677"/>
	</g>
</g>
<g>
	<g>
		<defs>
			<path id="XMLID_482_" d="M122,122.602H7.224c-2.265,0-4.099-1.834-4.099-4.099V50.406c0-2.265,1.834-4.099,4.099-4.099H122
				c2.266,0,4.1,1.834,4.1,4.099v68.097C126.1,120.768,124.266,122.602,122,122.602z"/>
		</defs>
		<clipPath id="XMLID_644_">
			<use xlink:href="#XMLID_482_" />
		</clipPath>
		<rect x="3.125" y="91.991" clip-path="url(#XMLID_644_)" fill="#FDDE6B" width="122.975" height="0.677"/>
	</g>
</g>
<g>
	<g>
		<defs>
			<path id="XMLID_484_" d="M122,122.602H7.224c-2.265,0-4.099-1.834-4.099-4.099V50.406c0-2.265,1.834-4.099,4.099-4.099H122
				c2.266,0,4.1,1.834,4.1,4.099v68.097C126.1,120.768,124.266,122.602,122,122.602z"/>
		</defs>
		<clipPath id="XMLID_645_">
			<use xlink:href="#XMLID_484_" />
		</clipPath>
		<rect x="3.125" y="92.668" clip-path="url(#XMLID_645_)" fill="#FDDD6A" width="122.975" height="0.677"/>
	</g>
</g>
<g>
	<g>
		<defs>
			<path id="XMLID_486_" d="M122,122.602H7.224c-2.265,0-4.099-1.834-4.099-4.099V50.406c0-2.265,1.834-4.099,4.099-4.099H122
				c2.266,0,4.1,1.834,4.1,4.099v68.097C126.1,120.768,124.266,122.602,122,122.602z"/>
		</defs>
		<clipPath id="XMLID_646_">
			<use xlink:href="#XMLID_486_" />
		</clipPath>
		<rect x="3.125" y="93.345" clip-path="url(#XMLID_646_)" fill="#FDDC69" width="122.975" height="0.677"/>
	</g>
</g>
<g>
	<g>
		<defs>
			<path id="XMLID_488_" d="M122,122.602H7.224c-2.265,0-4.099-1.834-4.099-4.099V50.406c0-2.265,1.834-4.099,4.099-4.099H122
				c2.266,0,4.1,1.834,4.1,4.099v68.097C126.1,120.768,124.266,122.602,122,122.602z"/>
		</defs>
		<clipPath id="XMLID_647_">
			<use xlink:href="#XMLID_488_" />
		</clipPath>
		<rect x="3.125" y="94.021" clip-path="url(#XMLID_647_)" fill="#FDDC68" width="122.975" height="0.677"/>
	</g>
</g>
<g>
	<g>
		<defs>
			<path id="XMLID_490_" d="M122,122.602H7.224c-2.265,0-4.099-1.834-4.099-4.099V50.406c0-2.265,1.834-4.099,4.099-4.099H122
				c2.266,0,4.1,1.834,4.1,4.099v68.097C126.1,120.768,124.266,122.602,122,122.602z"/>
		</defs>
		<clipPath id="XMLID_648_">
			<use xlink:href="#XMLID_490_" />
		</clipPath>
		<rect x="3.125" y="94.697" clip-path="url(#XMLID_648_)" fill="#FDDB66" width="122.975" height="0.676"/>
	</g>
</g>
<g>
	<g>
		<defs>
			<path id="XMLID_492_" d="M122,122.602H7.224c-2.265,0-4.099-1.834-4.099-4.099V50.406c0-2.265,1.834-4.099,4.099-4.099H122
				c2.266,0,4.1,1.834,4.1,4.099v68.097C126.1,120.768,124.266,122.602,122,122.602z"/>
		</defs>
		<clipPath id="XMLID_649_">
			<use xlink:href="#XMLID_492_" />
		</clipPath>
		<rect x="3.125" y="95.373" clip-path="url(#XMLID_649_)" fill="#FDDB65" width="122.975" height="0.677"/>
	</g>
</g>
<g>
	<g>
		<defs>
			<path id="XMLID_494_" d="M122,122.602H7.224c-2.265,0-4.099-1.834-4.099-4.099V50.406c0-2.265,1.834-4.099,4.099-4.099H122
				c2.266,0,4.1,1.834,4.1,4.099v68.097C126.1,120.768,124.266,122.602,122,122.602z"/>
		</defs>
		<clipPath id="XMLID_650_">
			<use xlink:href="#XMLID_494_" />
		</clipPath>
		<rect x="3.125" y="96.05" clip-path="url(#XMLID_650_)" fill="#FDDA64" width="122.975" height="0.677"/>
	</g>
</g>
<g>
	<g>
		<defs>
			<path id="XMLID_496_" d="M122,122.602H7.224c-2.265,0-4.099-1.834-4.099-4.099V50.406c0-2.265,1.834-4.099,4.099-4.099H122
				c2.266,0,4.1,1.834,4.1,4.099v68.097C126.1,120.768,124.266,122.602,122,122.602z"/>
		</defs>
		<clipPath id="XMLID_651_">
			<use xlink:href="#XMLID_496_" />
		</clipPath>
		<rect x="3.125" y="96.736" clip-path="url(#XMLID_651_)" fill="#FDD963" width="122.975" height="0.677"/>
	</g>
</g>
<g>
	<g>
		<defs>
			<path id="XMLID_498_" d="M122,122.602H7.224c-2.265,0-4.099-1.834-4.099-4.099V50.406c0-2.265,1.834-4.099,4.099-4.099H122
				c2.266,0,4.1,1.834,4.1,4.099v68.097C126.1,120.768,124.266,122.602,122,122.602z"/>
		</defs>
		<clipPath id="XMLID_652_">
			<use xlink:href="#XMLID_498_" />
		</clipPath>
		<rect x="3.125" y="97.413" clip-path="url(#XMLID_652_)" fill="#FDD961" width="122.975" height="0.676"/>
	</g>
</g>
<g>
	<g>
		<defs>
			<path id="XMLID_500_" d="M122,122.602H7.224c-2.265,0-4.099-1.834-4.099-4.099V50.406c0-2.265,1.834-4.099,4.099-4.099H122
				c2.266,0,4.1,1.834,4.1,4.099v68.097C126.1,120.768,124.266,122.602,122,122.602z"/>
		</defs>
		<clipPath id="XMLID_653_">
			<use xlink:href="#XMLID_500_" />
		</clipPath>
		<rect x="3.125" y="98.089" clip-path="url(#XMLID_653_)" fill="#FDD860" width="122.975" height="0.677"/>
	</g>
</g>
<g>
	<g>
		<defs>
			<path id="XMLID_502_" d="M122,122.602H7.224c-2.265,0-4.099-1.834-4.099-4.099V50.406c0-2.265,1.834-4.099,4.099-4.099H122
				c2.266,0,4.1,1.834,4.1,4.099v68.097C126.1,120.768,124.266,122.602,122,122.602z"/>
		</defs>
		<clipPath id="XMLID_654_">
			<use xlink:href="#XMLID_502_" />
		</clipPath>
		<rect x="3.125" y="98.766" clip-path="url(#XMLID_654_)" fill="#FDD85F" width="122.975" height="0.676"/>
	</g>
</g>
<g>
	<g>
		<defs>
			<path id="XMLID_504_" d="M122,122.602H7.224c-2.265,0-4.099-1.834-4.099-4.099V50.406c0-2.265,1.834-4.099,4.099-4.099H122
				c2.266,0,4.1,1.834,4.1,4.099v68.097C126.1,120.768,124.266,122.602,122,122.602z"/>
		</defs>
		<clipPath id="XMLID_655_">
			<use xlink:href="#XMLID_504_" />
		</clipPath>
		<rect x="3.125" y="99.441" clip-path="url(#XMLID_655_)" fill="#FDD75E" width="122.975" height="0.677"/>
	</g>
</g>
<g>
	<g>
		<defs>
			<path id="XMLID_506_" d="M122,122.602H7.224c-2.265,0-4.099-1.834-4.099-4.099V50.406c0-2.265,1.834-4.099,4.099-4.099H122
				c2.266,0,4.1,1.834,4.1,4.099v68.097C126.1,120.768,124.266,122.602,122,122.602z"/>
		</defs>
		<clipPath id="XMLID_656_">
			<use xlink:href="#XMLID_506_" />
		</clipPath>
		<rect x="3.125" y="100.118" clip-path="url(#XMLID_656_)" fill="#FDD65C" width="122.975" height="0.677"/>
	</g>
</g>
<g>
	<g>
		<defs>
			<path id="XMLID_508_" d="M122,122.602H7.224c-2.265,0-4.099-1.834-4.099-4.099V50.406c0-2.265,1.834-4.099,4.099-4.099H122
				c2.266,0,4.1,1.834,4.1,4.099v68.097C126.1,120.768,124.266,122.602,122,122.602z"/>
		</defs>
		<clipPath id="XMLID_657_">
			<use xlink:href="#XMLID_508_" />
		</clipPath>
		<rect x="3.125" y="100.795" clip-path="url(#XMLID_657_)" fill="#FDD65B" width="122.975" height="0.676"/>
	</g>
</g>
<g>
	<g>
		<defs>
			<path id="XMLID_510_" d="M122,122.602H7.224c-2.265,0-4.099-1.834-4.099-4.099V50.406c0-2.265,1.834-4.099,4.099-4.099H122
				c2.266,0,4.1,1.834,4.1,4.099v68.097C126.1,120.768,124.266,122.602,122,122.602z"/>
		</defs>
		<clipPath id="XMLID_658_">
			<use xlink:href="#XMLID_510_" />
		</clipPath>
		<rect x="3.125" y="101.471" clip-path="url(#XMLID_658_)" fill="#FDD55A" width="122.975" height="0.678"/>
	</g>
</g>
<g>
	<g>
		<defs>
			<path id="XMLID_512_" d="M122,122.602H7.224c-2.265,0-4.099-1.834-4.099-4.099V50.406c0-2.265,1.834-4.099,4.099-4.099H122
				c2.266,0,4.1,1.834,4.1,4.099v68.097C126.1,120.768,124.266,122.602,122,122.602z"/>
		</defs>
		<clipPath id="XMLID_659_">
			<use xlink:href="#XMLID_512_" />
		</clipPath>
		<rect x="3.125" y="102.146" clip-path="url(#XMLID_659_)" fill="#FDD458" width="122.975" height="0.677"/>
	</g>
</g>
<g>
	<g>
		<defs>
			<path id="XMLID_514_" d="M122,122.602H7.224c-2.265,0-4.099-1.834-4.099-4.099V50.406c0-2.265,1.834-4.099,4.099-4.099H122
				c2.266,0,4.1,1.834,4.1,4.099v68.097C126.1,120.768,124.266,122.602,122,122.602z"/>
		</defs>
		<clipPath id="XMLID_660_">
			<use xlink:href="#XMLID_514_" />
		</clipPath>
		<rect x="3.125" y="102.823" clip-path="url(#XMLID_660_)" fill="#FCD457" width="122.975" height="0.677"/>
	</g>
</g>
<g>
	<g>
		<defs>
			<path id="XMLID_516_" d="M122,122.602H7.224c-2.265,0-4.099-1.834-4.099-4.099V50.406c0-2.265,1.834-4.099,4.099-4.099H122
				c2.266,0,4.1,1.834,4.1,4.099v68.097C126.1,120.768,124.266,122.602,122,122.602z"/>
		</defs>
		<clipPath id="XMLID_661_">
			<use xlink:href="#XMLID_516_" />
		</clipPath>
		<rect x="3.125" y="103.5" clip-path="url(#XMLID_661_)" fill="#FCD356" width="122.975" height="0.677"/>
	</g>
</g>
<g>
	<g>
		<defs>
			<path id="XMLID_518_" d="M122,122.602H7.224c-2.265,0-4.099-1.834-4.099-4.099V50.406c0-2.265,1.834-4.099,4.099-4.099H122
				c2.266,0,4.1,1.834,4.1,4.099v68.097C126.1,120.768,124.266,122.602,122,122.602z"/>
		</defs>
		<clipPath id="XMLID_662_">
			<use xlink:href="#XMLID_518_" />
		</clipPath>
		<rect x="3.125" y="104.188" clip-path="url(#XMLID_662_)" fill="#FCD354" width="122.975" height="0.677"/>
	</g>
</g>
<g>
	<g>
		<defs>
			<path id="XMLID_520_" d="M122,122.602H7.224c-2.265,0-4.099-1.834-4.099-4.099V50.406c0-2.265,1.834-4.099,4.099-4.099H122
				c2.266,0,4.1,1.834,4.1,4.099v68.097C126.1,120.768,124.266,122.602,122,122.602z"/>
		</defs>
		<clipPath id="XMLID_663_">
			<use xlink:href="#XMLID_520_" />
		</clipPath>
		<rect x="3.125" y="104.863" clip-path="url(#XMLID_663_)" fill="#FCD253" width="122.975" height="0.676"/>
	</g>
</g>
<g>
	<g>
		<defs>
			<path id="XMLID_522_" d="M122,122.602H7.224c-2.265,0-4.099-1.834-4.099-4.099V50.406c0-2.265,1.834-4.099,4.099-4.099H122
				c2.266,0,4.1,1.834,4.1,4.099v68.097C126.1,120.768,124.266,122.602,122,122.602z"/>
		</defs>
		<clipPath id="XMLID_664_">
			<use xlink:href="#XMLID_522_" />
		</clipPath>
		<rect x="3.125" y="105.539" clip-path="url(#XMLID_664_)" fill="#FCD151" width="122.975" height="0.677"/>
	</g>
</g>
<g>
	<g>
		<defs>
			<path id="XMLID_524_" d="M122,122.602H7.224c-2.265,0-4.099-1.834-4.099-4.099V50.406c0-2.265,1.834-4.099,4.099-4.099H122
				c2.266,0,4.1,1.834,4.1,4.099v68.097C126.1,120.768,124.266,122.602,122,122.602z"/>
		</defs>
		<clipPath id="XMLID_665_">
			<use xlink:href="#XMLID_524_" />
		</clipPath>
		<rect x="3.125" y="106.216" clip-path="url(#XMLID_665_)" fill="#FCD150" width="122.975" height="0.677"/>
	</g>
</g>
<g>
	<g>
		<defs>
			<path id="XMLID_526_" d="M122,122.602H7.224c-2.265,0-4.099-1.834-4.099-4.099V50.406c0-2.265,1.834-4.099,4.099-4.099H122
				c2.266,0,4.1,1.834,4.1,4.099v68.097C126.1,120.768,124.266,122.602,122,122.602z"/>
		</defs>
		<clipPath id="XMLID_666_">
			<use xlink:href="#XMLID_526_" />
		</clipPath>
		<rect x="3.125" y="106.893" clip-path="url(#XMLID_666_)" fill="#FCD04F" width="122.975" height="0.676"/>
	</g>
</g>
<g>
	<g>
		<defs>
			<path id="XMLID_528_" d="M122,122.602H7.224c-2.265,0-4.099-1.834-4.099-4.099V50.406c0-2.265,1.834-4.099,4.099-4.099H122
				c2.266,0,4.1,1.834,4.1,4.099v68.097C126.1,120.768,124.266,122.602,122,122.602z"/>
		</defs>
		<clipPath id="XMLID_667_">
			<use xlink:href="#XMLID_528_" />
		</clipPath>
		<rect x="3.125" y="107.568" clip-path="url(#XMLID_667_)" fill="#FCCF4D" width="122.975" height="0.677"/>
	</g>
</g>
<g>
	<g>
		<defs>
			<path id="XMLID_530_" d="M122,122.602H7.224c-2.265,0-4.099-1.834-4.099-4.099V50.406c0-2.265,1.834-4.099,4.099-4.099H122
				c2.266,0,4.1,1.834,4.1,4.099v68.097C126.1,120.768,124.266,122.602,122,122.602z"/>
		</defs>
		<clipPath id="XMLID_668_">
			<use xlink:href="#XMLID_530_" />
		</clipPath>
		<rect x="3.125" y="108.245" clip-path="url(#XMLID_668_)" fill="#FCCF4C" width="122.975" height="0.676"/>
	</g>
</g>
<g>
	<g>
		<defs>
			<path id="XMLID_532_" d="M122,122.602H7.224c-2.265,0-4.099-1.834-4.099-4.099V50.406c0-2.265,1.834-4.099,4.099-4.099H122
				c2.266,0,4.1,1.834,4.1,4.099v68.097C126.1,120.768,124.266,122.602,122,122.602z"/>
		</defs>
		<clipPath id="XMLID_669_">
			<use xlink:href="#XMLID_532_" />
		</clipPath>
		<rect x="3.125" y="108.921" clip-path="url(#XMLID_669_)" fill="#FCCE4A" width="122.975" height="0.677"/>
	</g>
</g>
<g>
	<g>
		<defs>
			<path id="XMLID_534_" d="M122,122.602H7.224c-2.265,0-4.099-1.834-4.099-4.099V50.406c0-2.265,1.834-4.099,4.099-4.099H122
				c2.266,0,4.1,1.834,4.1,4.099v68.097C126.1,120.768,124.266,122.602,122,122.602z"/>
		</defs>
		<clipPath id="XMLID_670_">
			<use xlink:href="#XMLID_534_" />
		</clipPath>
		<rect x="3.125" y="109.598" clip-path="url(#XMLID_670_)" fill="#FCCD49" width="122.975" height="0.676"/>
	</g>
</g>
<g>
	<g>
		<defs>
			<path id="XMLID_536_" d="M122,122.602H7.224c-2.265,0-4.099-1.834-4.099-4.099V50.406c0-2.265,1.834-4.099,4.099-4.099H122
				c2.266,0,4.1,1.834,4.1,4.099v68.097C126.1,120.768,124.266,122.602,122,122.602z"/>
		</defs>
		<clipPath id="XMLID_671_">
			<use xlink:href="#XMLID_536_" />
		</clipPath>
		<rect x="3.125" y="110.273" clip-path="url(#XMLID_671_)" fill="#FCCC47" width="122.975" height="0.677"/>
	</g>
</g>
<g>
	<g>
		<defs>
			<path id="XMLID_538_" d="M122,122.602H7.224c-2.265,0-4.099-1.834-4.099-4.099V50.406c0-2.265,1.834-4.099,4.099-4.099H122
				c2.266,0,4.1,1.834,4.1,4.099v68.097C126.1,120.768,124.266,122.602,122,122.602z"/>
		</defs>
		<clipPath id="XMLID_672_">
			<use xlink:href="#XMLID_538_" />
		</clipPath>
		<rect x="3.125" y="110.95" clip-path="url(#XMLID_672_)" fill="#FCCC46" width="122.975" height="0.677"/>
	</g>
</g>
<g>
	<g>
		<defs>
			<path id="XMLID_540_" d="M122,122.602H7.224c-2.265,0-4.099-1.834-4.099-4.099V50.406c0-2.265,1.834-4.099,4.099-4.099H122
				c2.266,0,4.1,1.834,4.1,4.099v68.097C126.1,120.768,124.266,122.602,122,122.602z"/>
		</defs>
		<clipPath id="XMLID_673_">
			<use xlink:href="#XMLID_540_" />
		</clipPath>
		<rect x="3.125" y="111.627" clip-path="url(#XMLID_673_)" fill="#FCCB44" width="122.975" height="0.676"/>
	</g>
</g>
<g>
	<g>
		<defs>
			<path id="XMLID_542_" d="M122,122.602H7.224c-2.265,0-4.099-1.834-4.099-4.099V50.406c0-2.265,1.834-4.099,4.099-4.099H122
				c2.266,0,4.1,1.834,4.1,4.099v68.097C126.1,120.768,124.266,122.602,122,122.602z"/>
		</defs>
		<clipPath id="XMLID_674_">
			<use xlink:href="#XMLID_542_" />
		</clipPath>
		<rect x="3.125" y="112.313" clip-path="url(#XMLID_674_)" fill="#FCCA43" width="122.975" height="0.677"/>
	</g>
</g>
<g>
	<g>
		<defs>
			<path id="XMLID_544_" d="M122,122.602H7.224c-2.265,0-4.099-1.834-4.099-4.099V50.406c0-2.265,1.834-4.099,4.099-4.099H122
				c2.266,0,4.1,1.834,4.1,4.099v68.097C126.1,120.768,124.266,122.602,122,122.602z"/>
		</defs>
		<clipPath id="XMLID_675_">
			<use xlink:href="#XMLID_544_" />
		</clipPath>
		<rect x="3.125" y="112.989" clip-path="url(#XMLID_675_)" fill="#FCCA41" width="122.975" height="0.677"/>
	</g>
</g>
<g>
	<g>
		<defs>
			<path id="XMLID_546_" d="M122,122.602H7.224c-2.265,0-4.099-1.834-4.099-4.099V50.406c0-2.265,1.834-4.099,4.099-4.099H122
				c2.266,0,4.1,1.834,4.1,4.099v68.097C126.1,120.768,124.266,122.602,122,122.602z"/>
		</defs>
		<clipPath id="XMLID_676_">
			<use xlink:href="#XMLID_546_" />
		</clipPath>
		<rect x="3.125" y="113.666" clip-path="url(#XMLID_676_)" fill="#FCC940" width="122.975" height="0.676"/>
	</g>
</g>
<g>
	<g>
		<defs>
			<path id="XMLID_548_" d="M122,122.602H7.224c-2.265,0-4.099-1.834-4.099-4.099V50.406c0-2.265,1.834-4.099,4.099-4.099H122
				c2.266,0,4.1,1.834,4.1,4.099v68.097C126.1,120.768,124.266,122.602,122,122.602z"/>
		</defs>
		<clipPath id="XMLID_677_">
			<use xlink:href="#XMLID_548_" />
		</clipPath>
		<rect x="3.125" y="114.342" clip-path="url(#XMLID_677_)" fill="#FCC83E" width="122.975" height="0.678"/>
	</g>
</g>
<g>
	<g>
		<defs>
			<path id="XMLID_550_" d="M122,122.602H7.224c-2.265,0-4.099-1.834-4.099-4.099V50.406c0-2.265,1.834-4.099,4.099-4.099H122
				c2.266,0,4.1,1.834,4.1,4.099v68.097C126.1,120.768,124.266,122.602,122,122.602z"/>
		</defs>
		<clipPath id="XMLID_678_">
			<use xlink:href="#XMLID_550_" />
		</clipPath>
		<rect x="3.125" y="115.02" clip-path="url(#XMLID_678_)" fill="#FCC73D" width="122.975" height="0.676"/>
	</g>
</g>
<g>
	<g>
		<defs>
			<path id="XMLID_552_" d="M122,122.602H7.224c-2.265,0-4.099-1.834-4.099-4.099V50.406c0-2.265,1.834-4.099,4.099-4.099H122
				c2.266,0,4.1,1.834,4.1,4.099v68.097C126.1,120.768,124.266,122.602,122,122.602z"/>
		</defs>
		<clipPath id="XMLID_679_">
			<use xlink:href="#XMLID_552_" />
		</clipPath>
		<rect x="3.125" y="115.695" clip-path="url(#XMLID_679_)" fill="#FCC73B" width="122.975" height="0.676"/>
	</g>
</g>
<g>
	<g>
		<defs>
			<path id="XMLID_554_" d="M122,122.602H7.224c-2.265,0-4.099-1.834-4.099-4.099V50.406c0-2.265,1.834-4.099,4.099-4.099H122
				c2.266,0,4.1,1.834,4.1,4.099v68.097C126.1,120.768,124.266,122.602,122,122.602z"/>
		</defs>
		<clipPath id="XMLID_680_">
			<use xlink:href="#XMLID_554_" />
		</clipPath>
		<rect x="3.125" y="116.371" clip-path="url(#XMLID_680_)" fill="#FBC63A" width="122.975" height="0.677"/>
	</g>
</g>
<g>
	<g>
		<defs>
			<path id="XMLID_556_" d="M122,122.602H7.224c-2.265,0-4.099-1.834-4.099-4.099V50.406c0-2.265,1.834-4.099,4.099-4.099H122
				c2.266,0,4.1,1.834,4.1,4.099v68.097C126.1,120.768,124.266,122.602,122,122.602z"/>
		</defs>
		<clipPath id="XMLID_681_">
			<use xlink:href="#XMLID_556_" />
		</clipPath>
		<rect x="3.125" y="117.048" clip-path="url(#XMLID_681_)" fill="#FBC538" width="122.975" height="0.677"/>
	</g>
</g>
<g>
	<g>
		<defs>
			<path id="XMLID_558_" d="M122,122.602H7.224c-2.265,0-4.099-1.834-4.099-4.099V50.406c0-2.265,1.834-4.099,4.099-4.099H122
				c2.266,0,4.1,1.834,4.1,4.099v68.097C126.1,120.768,124.266,122.602,122,122.602z"/>
		</defs>
		<clipPath id="XMLID_682_">
			<use xlink:href="#XMLID_558_" />
		</clipPath>
		<rect x="3.125" y="117.725" clip-path="url(#XMLID_682_)" fill="#FBC537" width="122.975" height="0.676"/>
	</g>
</g>
<g>
	<g>
		<defs>
			<path id="XMLID_560_" d="M122,122.602H7.224c-2.265,0-4.099-1.834-4.099-4.099V50.406c0-2.265,1.834-4.099,4.099-4.099H122
				c2.266,0,4.1,1.834,4.1,4.099v68.097C126.1,120.768,124.266,122.602,122,122.602z"/>
		</defs>
		<clipPath id="XMLID_683_">
			<use xlink:href="#XMLID_560_" />
		</clipPath>
		<rect x="3.125" y="118.4" clip-path="url(#XMLID_683_)" fill="#FBC435" width="122.975" height="0.677"/>
	</g>
</g>
<g>
	<g>
		<defs>
			<path id="XMLID_562_" d="M122,122.602H7.224c-2.265,0-4.099-1.834-4.099-4.099V50.406c0-2.265,1.834-4.099,4.099-4.099H122
				c2.266,0,4.1,1.834,4.1,4.099v68.097C126.1,120.768,124.266,122.602,122,122.602z"/>
		</defs>
		<clipPath id="XMLID_684_">
			<use xlink:href="#XMLID_562_" />
		</clipPath>
		<rect x="3.125" y="119.077" clip-path="url(#XMLID_684_)" fill="#FBC333" width="122.975" height="0.676"/>
	</g>
</g>
<g>
	<g>
		<defs>
			<path id="XMLID_564_" d="M122,122.602H7.224c-2.265,0-4.099-1.834-4.099-4.099V50.406c0-2.265,1.834-4.099,4.099-4.099H122
				c2.266,0,4.1,1.834,4.1,4.099v68.097C126.1,120.768,124.266,122.602,122,122.602z"/>
		</defs>
		<clipPath id="XMLID_685_">
			<use xlink:href="#XMLID_564_" />
		</clipPath>
		<rect x="3.125" y="119.764" clip-path="url(#XMLID_685_)" fill="#FBC232" width="122.975" height="0.676"/>
	</g>
</g>
<g>
	<g>
		<defs>
			<path id="XMLID_566_" d="M122,122.602H7.224c-2.265,0-4.099-1.834-4.099-4.099V50.406c0-2.265,1.834-4.099,4.099-4.099H122
				c2.266,0,4.1,1.834,4.1,4.099v68.097C126.1,120.768,124.266,122.602,122,122.602z"/>
		</defs>
		<clipPath id="XMLID_686_">
			<use xlink:href="#XMLID_566_" />
		</clipPath>
		<rect x="3.125" y="120.439" clip-path="url(#XMLID_686_)" fill="#FBC230" width="122.975" height="0.677"/>
	</g>
</g>
<g>
	<g>
		<defs>
			<path id="XMLID_568_" d="M122,122.602H7.224c-2.265,0-4.099-1.834-4.099-4.099V50.406c0-2.265,1.834-4.099,4.099-4.099H122
				c2.266,0,4.1,1.834,4.1,4.099v68.097C126.1,120.768,124.266,122.602,122,122.602z"/>
		</defs>
		<clipPath id="XMLID_687_">
			<use xlink:href="#XMLID_568_" />
		</clipPath>
		<rect x="3.125" y="121.116" clip-path="url(#XMLID_687_)" fill="#FBC12F" width="122.975" height="0.676"/>
	</g>
</g>
<g>
	<g>
		<defs>
			<path id="XMLID_570_" d="M122,122.602H7.224c-2.265,0-4.099-1.834-4.099-4.099V50.406c0-2.265,1.834-4.099,4.099-4.099H122
				c2.266,0,4.1,1.834,4.1,4.099v68.097C126.1,120.768,124.266,122.602,122,122.602z"/>
		</defs>
		<clipPath id="XMLID_688_">
			<use xlink:href="#XMLID_570_" />
		</clipPath>
		<rect x="3.125" y="121.792" clip-path="url(#XMLID_688_)" fill="#FBC02D" width="122.975" height="0.677"/>
	</g>
</g>
<g>
	<g>
		<defs>
			<path id="XMLID_572_" d="M122,122.602H7.224c-2.265,0-4.099-1.834-4.099-4.099V50.406c0-2.265,1.834-4.099,4.099-4.099H122
				c2.266,0,4.1,1.834,4.1,4.099v68.097C126.1,120.768,124.266,122.602,122,122.602z"/>
		</defs>
		<clipPath id="XMLID_689_">
			<use xlink:href="#XMLID_572_" />
		</clipPath>
		<rect x="3.125" y="122.469" clip-path="url(#XMLID_689_)" fill="#FBC02D" width="122.975" height="0.133"/>
	</g>
</g>
<path fill="#4480F7" d="M81.48,27.983H57.008c-1.701,0-3.075-1.373-3.075-3.074v-7.481c0-1.701,1.374-3.074,3.075-3.074H81.49
	c1.701,0,3.074,1.373,3.074,3.074v7.481C84.555,26.61,83.182,27.983,81.48,27.983z"/>
<path fill="#2CA94F" d="M36.943,43.048c-2.542,0-4.611-2.07-4.611-4.611v-7.481c0-2.542,2.07-4.612,4.611-4.612h24.595
	c2.542,0,4.612,2.07,4.612,4.612v7.481c0,2.542-2.07,4.611-4.612,4.611H36.943z"/>
<path fill="#FDD835" d="M61.538,27.881c1.701,0,3.075,1.373,3.075,3.074v7.481c0,1.701-1.375,3.074-3.075,3.074H36.943
	c-1.701,0-3.074-1.373-3.074-3.074v-7.481c0-1.701,1.373-3.074,3.074-3.074H61.538 M61.538,24.807H36.943
	c-3.392,0-6.149,2.757-6.149,6.149v7.481c0,3.392,2.757,6.148,6.149,6.148h24.595c3.392,0,6.149-2.756,6.149-6.148v-7.481
	C67.688,27.563,64.93,24.807,61.538,24.807z"/>
<path fill="#EC4431" d="M18.333,56.831c-2.265,0-4.099-1.834-4.099-4.099v-7.481c0-2.265,1.834-4.099,4.099-4.099h25.671
	c2.265,0,4.099,1.834,4.099,4.099v7.481c0,2.265-1.834,4.099-4.099,4.099H18.333z"/>
<path fill="#FFF59D" d="M44.004,42.167c1.701,0,3.074,1.374,3.074,3.075v7.48c0,1.701-1.374,3.075-3.074,3.075H18.333
	c-1.701,0-3.075-1.374-3.075-3.075v-7.48c0-1.701,1.374-3.075,3.075-3.075H44.004 M44.004,40.117H18.333
	c-2.829,0-5.124,2.295-5.124,5.124v7.48c0,2.829,2.295,5.124,5.124,5.124h25.671c2.828,0,5.124-2.295,5.124-5.124v-7.48
	C49.127,42.423,46.822,40.117,44.004,40.117z"/>
<g opacity="0.2">
	<path fill="#424242" d="M81.009,17.418c0.257,0,0.472,0.215,0.472,0.502c0,1.701,1.373,3.074,3.074,3.074h18.437
		c0.911,0,1.659,0.738,1.659,1.66v9.458c0,1.701,1.373,3.075,3.074,3.075h4.191c0.912,0,1.66,0.738,1.66,1.66v9.458
		c0,1.701,1.373,3.074,3.074,3.074h4.733c0.912,0,1.66,0.738,1.66,1.66v66.837c0,0.912-0.737,1.66-1.66,1.66H7.859
		c-0.922-0.011-1.66-0.748-1.66-1.671V51.041c0-0.912,0.738-1.66,1.66-1.66h4.735c1.701,0,3.074-1.373,3.074-3.074v-9.458
		c0-0.912,0.738-1.66,1.66-1.66h4.734c1.701,0,3.074-1.374,3.074-3.075v-9.458c0-0.912,0.738-1.66,1.66-1.66h27.157
		c1.701,0,3.075-1.404,3.075-3.105c0-0.256,0.215-0.472,0.471-0.472L81.009,17.418 M81.009,14.344h-23.53
		c-1.957,0-3.546,1.588-3.546,3.546v0.031H26.777c-2.613,0-4.734,2.121-4.734,4.734v9.458h-4.734c-2.613,0-4.734,2.122-4.734,4.735
		v9.458H7.859c-2.613,0-4.734,2.122-4.734,4.734v66.837c0,2.613,2.121,4.734,4.734,4.734h113.516c2.613,0,4.734-2.121,4.734-4.734
		V51.041c0-2.613-2.121-4.734-4.734-4.734h-4.734v-9.458c0-2.613-2.121-4.735-4.733-4.735h-4.191v-9.458
		c0-2.613-2.122-4.734-4.733-4.734H84.555V17.89C84.555,15.932,82.966,14.344,81.009,14.344z"/>
</g>
<g display="none">
	<g display="inline">
		<g opacity="0.6">
			
				<circle opacity="0.61" fill="none" stroke="#000000" stroke-width="0.2625" stroke-miterlimit="10" enable-background="new    " cx="50" cy="50" r="21.875"/>
			
				<line opacity="0.61" fill="none" stroke="#000000" stroke-width="0.25" stroke-miterlimit="10" enable-background="new    " x1="65.625" y1="0" x2="65.625" y2="100"/>
			
				<line opacity="0.61" fill="none" stroke="#000000" stroke-width="0.25" stroke-miterlimit="10" enable-background="new    " x1="34.375" y1="0" x2="34.375" y2="100"/>
			
				<line opacity="0.61" fill="none" stroke="#000000" stroke-width="0.25" stroke-miterlimit="10" enable-background="new    " x1="50" y1="0" x2="50" y2="100"/>
			
				<line opacity="0.61" fill="none" stroke="#000000" stroke-width="0.25" stroke-miterlimit="10" enable-background="new    " x1="100" y1="50" x2="0" y2="50"/>
			
				<line opacity="0.61" fill="none" stroke="#000000" stroke-width="0.25" stroke-miterlimit="10" enable-background="new    " x1="100" y1="34.375" x2="0" y2="34.375"/>
			
				<line opacity="0.61" fill="none" stroke="#000000" stroke-width="0.25" stroke-miterlimit="10" enable-background="new    " x1="100" y1="65.43" x2="0" y2="65.43"/>
			
				<line opacity="0.61" fill="none" stroke="#000000" stroke-width="0.25" stroke-miterlimit="10" enable-background="new    " x1="100" y1="100" x2="0" y2="0"/>
			
				<line opacity="0.61" fill="none" stroke="#000000" stroke-width="0.25" stroke-miterlimit="10" enable-background="new    " x1="0" y1="100" x2="100" y2="0"/>
			<g opacity="0.61">
				<path d="M50,3.328c25.734,0,46.672,20.938,46.672,46.672c0,25.734-20.938,46.672-46.672,46.672
					C24.266,96.672,3.328,75.734,3.328,50C3.328,24.266,24.266,3.328,50,3.328 M50,3.125C24.109,3.125,3.125,24.109,3.125,50
					c0,25.891,20.984,46.875,46.875,46.875c25.891,0,46.875-20.984,46.875-46.875C96.875,24.109,75.891,3.125,50,3.125L50,3.125z"/>
			</g>
			
				<path opacity="0.61" fill="none" stroke="#000000" stroke-width="0.2578" stroke-miterlimit="10" enable-background="new    " d="
				M84.352,90.602H15.648c-3.453,0-6.273-2.819-6.273-6.272v-68.68c0-3.453,2.82-6.273,6.273-6.273h68.704
				c3.453,0,6.272,2.82,6.272,6.273v68.68C90.625,87.781,87.805,90.602,84.352,90.602z"/>
			
				<path opacity="0.61" fill="none" stroke="#000000" stroke-width="0.2628" stroke-miterlimit="10" enable-background="new    " d="
				M78.125,96.875h-56.25c-3.438,0-6.25-2.813-6.25-6.25V9.375c0-3.438,2.813-6.25,6.25-6.25h56.25c3.438,0,6.25,2.813,6.25,6.25
				v81.25C84.375,94.063,81.563,96.875,78.125,96.875z"/>
			
				<path opacity="0.61" fill="none" stroke="#000000" stroke-width="0.2627" stroke-miterlimit="10" enable-background="new    " d="
				M88.883,84.375H11.117c-4.398,0-7.992-3.594-7.992-7.992V23.656c0-4.398,3.594-7.992,7.992-7.992h77.766
				c4.398,0,7.992,3.594,7.992,7.992v52.719C96.875,80.781,93.281,84.375,88.883,84.375z"/>
		</g>
		<g opacity="0.2" enable-background="new    ">
			<g>
				<g>
					<defs>
						<rect id="XMLID_574_" width="100" height="100"/>
					</defs>
					<clipPath id="XMLID_690_">
						<use xlink:href="#XMLID_574_" />
					</clipPath>
					<g clip-path="url(#XMLID_690_)">
						<g>
							
								<line fill="none" stroke="#000000" stroke-width="0.25" stroke-miterlimit="10" x1="-21.875" y1="125" x2="-21.875" y2="-25"/>
							<line fill="none" stroke="#000000" stroke-width="0.25" stroke-miterlimit="10" x1="-18.75" y1="125" x2="-18.75" y2="-25"/>
							
								<line fill="none" stroke="#000000" stroke-width="0.25" stroke-miterlimit="10" x1="-15.625" y1="125" x2="-15.625" y2="-25"/>
							<line fill="none" stroke="#000000" stroke-width="0.25" stroke-miterlimit="10" x1="-12.5" y1="125" x2="-12.5" y2="-25"/>
							<line fill="none" stroke="#000000" stroke-width="0.25" stroke-miterlimit="10" x1="-9.375" y1="125" x2="-9.375" y2="-25"/>
							<line fill="none" stroke="#000000" stroke-width="0.25" stroke-miterlimit="10" x1="-6.25" y1="125" x2="-6.25" y2="-25"/>
							<line fill="none" stroke="#000000" stroke-width="0.25" stroke-miterlimit="10" x1="-3.125" y1="125" x2="-3.125" y2="-25"/>
							<line fill="none" stroke="#000000" stroke-width="0.25" stroke-miterlimit="10" x1="0" y1="125" x2="0" y2="-25"/>
							<line fill="none" stroke="#000000" stroke-width="0.25" stroke-miterlimit="10" x1="3.125" y1="125" x2="3.125" y2="-25"/>
							<line fill="none" stroke="#000000" stroke-width="0.25" stroke-miterlimit="10" x1="6.25" y1="125" x2="6.25" y2="-25"/>
							<line fill="none" stroke="#000000" stroke-width="0.25" stroke-miterlimit="10" x1="9.375" y1="125" x2="9.375" y2="-25"/>
							<line fill="none" stroke="#000000" stroke-width="0.25" stroke-miterlimit="10" x1="12.5" y1="125" x2="12.5" y2="-25"/>
							<line fill="none" stroke="#000000" stroke-width="0.25" stroke-miterlimit="10" x1="15.625" y1="125" x2="15.625" y2="-25"/>
							<line fill="none" stroke="#000000" stroke-width="0.25" stroke-miterlimit="10" x1="18.75" y1="125" x2="18.75" y2="-25"/>
							<line fill="none" stroke="#000000" stroke-width="0.25" stroke-miterlimit="10" x1="21.875" y1="125" x2="21.875" y2="-25"/>
							<line fill="none" stroke="#000000" stroke-width="0.25" stroke-miterlimit="10" x1="25" y1="125" x2="25" y2="-25"/>
							<line fill="none" stroke="#000000" stroke-width="0.25" stroke-miterlimit="10" x1="28.125" y1="125" x2="28.125" y2="-25"/>
							<line fill="none" stroke="#000000" stroke-width="0.25" stroke-miterlimit="10" x1="31.25" y1="125" x2="31.25" y2="-25"/>
							<line fill="none" stroke="#000000" stroke-width="0.25" stroke-miterlimit="10" x1="34.375" y1="125" x2="34.375" y2="-25"/>
							<line fill="none" stroke="#000000" stroke-width="0.25" stroke-miterlimit="10" x1="37.5" y1="125" x2="37.5" y2="-25"/>
							<line fill="none" stroke="#000000" stroke-width="0.25" stroke-miterlimit="10" x1="40.625" y1="125" x2="40.625" y2="-25"/>
							<line fill="none" stroke="#000000" stroke-width="0.25" stroke-miterlimit="10" x1="43.75" y1="125" x2="43.75" y2="-25"/>
							<line fill="none" stroke="#000000" stroke-width="0.25" stroke-miterlimit="10" x1="46.875" y1="125" x2="46.875" y2="-25"/>
							<line fill="none" stroke="#000000" stroke-width="0.25" stroke-miterlimit="10" x1="50" y1="125" x2="50" y2="-25"/>
							<line fill="none" stroke="#000000" stroke-width="0.25" stroke-miterlimit="10" x1="53.125" y1="125" x2="53.125" y2="-25"/>
							<line fill="none" stroke="#000000" stroke-width="0.25" stroke-miterlimit="10" x1="56.25" y1="125" x2="56.25" y2="-25"/>
							<line fill="none" stroke="#000000" stroke-width="0.25" stroke-miterlimit="10" x1="59.375" y1="125" x2="59.375" y2="-25"/>
							<line fill="none" stroke="#000000" stroke-width="0.25" stroke-miterlimit="10" x1="62.5" y1="125" x2="62.5" y2="-25"/>
							<line fill="none" stroke="#000000" stroke-width="0.25" stroke-miterlimit="10" x1="65.625" y1="125" x2="65.625" y2="-25"/>
							<line fill="none" stroke="#000000" stroke-width="0.25" stroke-miterlimit="10" x1="68.75" y1="125" x2="68.75" y2="-25"/>
							<line fill="none" stroke="#000000" stroke-width="0.25" stroke-miterlimit="10" x1="71.875" y1="125" x2="71.875" y2="-25"/>
							<line fill="none" stroke="#000000" stroke-width="0.25" stroke-miterlimit="10" x1="75" y1="125" x2="75" y2="-25"/>
							<line fill="none" stroke="#000000" stroke-width="0.25" stroke-miterlimit="10" x1="78.125" y1="125" x2="78.125" y2="-25"/>
							<line fill="none" stroke="#000000" stroke-width="0.25" stroke-miterlimit="10" x1="81.25" y1="125" x2="81.25" y2="-25"/>
							<line fill="none" stroke="#000000" stroke-width="0.25" stroke-miterlimit="10" x1="84.375" y1="125" x2="84.375" y2="-25"/>
							<line fill="none" stroke="#000000" stroke-width="0.25" stroke-miterlimit="10" x1="87.5" y1="125" x2="87.5" y2="-25"/>
							<line fill="none" stroke="#000000" stroke-width="0.25" stroke-miterlimit="10" x1="90.625" y1="125" x2="90.625" y2="-25"/>
							<line fill="none" stroke="#000000" stroke-width="0.25" stroke-miterlimit="10" x1="93.75" y1="125" x2="93.75" y2="-25"/>
							<line fill="none" stroke="#000000" stroke-width="0.25" stroke-miterlimit="10" x1="96.875" y1="125" x2="96.875" y2="-25"/>
							<line fill="none" stroke="#000000" stroke-width="0.25" stroke-miterlimit="10" x1="100" y1="125" x2="100" y2="-25"/>
							
								<line fill="none" stroke="#000000" stroke-width="0.25" stroke-miterlimit="10" x1="103.125" y1="125" x2="103.125" y2="-25"/>
							<line fill="none" stroke="#000000" stroke-width="0.25" stroke-miterlimit="10" x1="106.25" y1="125" x2="106.25" y2="-25"/>
							
								<line fill="none" stroke="#000000" stroke-width="0.25" stroke-miterlimit="10" x1="107.031" y1="129.727" x2="107.031" y2="-20.273"/>
							<line fill="none" stroke="#000000" stroke-width="0.25" stroke-miterlimit="10" x1="112.5" y1="125" x2="112.5" y2="-25"/>
							
								<line fill="none" stroke="#000000" stroke-width="0.25" stroke-miterlimit="10" x1="115.625" y1="125" x2="115.625" y2="-25"/>
							<line fill="none" stroke="#000000" stroke-width="0.25" stroke-miterlimit="10" x1="118.75" y1="125" x2="118.75" y2="-25"/>
							
								<line fill="none" stroke="#000000" stroke-width="0.25" stroke-miterlimit="10" x1="121.875" y1="125" x2="121.875" y2="-25"/>
						</g>
						<g>
							
								<line fill="none" stroke="#000000" stroke-width="0.25" stroke-miterlimit="10" x1="-25" y1="-21.875" x2="125" y2="-21.875"/>
							<line fill="none" stroke="#000000" stroke-width="0.25" stroke-miterlimit="10" x1="-25" y1="-18.75" x2="125" y2="-18.75"/>
							
								<line fill="none" stroke="#000000" stroke-width="0.25" stroke-miterlimit="10" x1="-25" y1="-15.625" x2="125" y2="-15.625"/>
							<line fill="none" stroke="#000000" stroke-width="0.25" stroke-miterlimit="10" x1="-25" y1="-12.5" x2="125" y2="-12.5"/>
							<line fill="none" stroke="#000000" stroke-width="0.25" stroke-miterlimit="10" x1="-25" y1="-9.375" x2="125" y2="-9.375"/>
							<line fill="none" stroke="#000000" stroke-width="0.25" stroke-miterlimit="10" x1="-25" y1="-6.25" x2="125" y2="-6.25"/>
							<line fill="none" stroke="#000000" stroke-width="0.25" stroke-miterlimit="10" x1="-25" y1="-3.125" x2="125" y2="-3.125"/>
							<line fill="none" stroke="#000000" stroke-width="0.25" stroke-miterlimit="10" x1="-25" y1="0" x2="125" y2="0"/>
							<line fill="none" stroke="#000000" stroke-width="0.25" stroke-miterlimit="10" x1="-25" y1="3.125" x2="125" y2="3.125"/>
							<line fill="none" stroke="#000000" stroke-width="0.25" stroke-miterlimit="10" x1="-25" y1="6.25" x2="125" y2="6.25"/>
							<line fill="none" stroke="#000000" stroke-width="0.25" stroke-miterlimit="10" x1="-25" y1="9.375" x2="125" y2="9.375"/>
							<line fill="none" stroke="#000000" stroke-width="0.25" stroke-miterlimit="10" x1="-25" y1="12.5" x2="125" y2="12.5"/>
							<line fill="none" stroke="#000000" stroke-width="0.25" stroke-miterlimit="10" x1="-25" y1="15.625" x2="125" y2="15.625"/>
							<line fill="none" stroke="#000000" stroke-width="0.25" stroke-miterlimit="10" x1="-25" y1="18.75" x2="125" y2="18.75"/>
							<line fill="none" stroke="#000000" stroke-width="0.25" stroke-miterlimit="10" x1="-25" y1="21.875" x2="125" y2="21.875"/>
							<line fill="none" stroke="#000000" stroke-width="0.25" stroke-miterlimit="10" x1="-25" y1="25" x2="125" y2="25"/>
							<line fill="none" stroke="#000000" stroke-width="0.25" stroke-miterlimit="10" x1="-25" y1="28.125" x2="125" y2="28.125"/>
							<line fill="none" stroke="#000000" stroke-width="0.25" stroke-miterlimit="10" x1="-25" y1="31.25" x2="125" y2="31.25"/>
							<line fill="none" stroke="#000000" stroke-width="0.25" stroke-miterlimit="10" x1="-25" y1="34.375" x2="125" y2="34.375"/>
							<line fill="none" stroke="#000000" stroke-width="0.25" stroke-miterlimit="10" x1="-25" y1="37.5" x2="125" y2="37.5"/>
							<line fill="none" stroke="#000000" stroke-width="0.25" stroke-miterlimit="10" x1="-25" y1="40.625" x2="125" y2="40.625"/>
							<line fill="none" stroke="#000000" stroke-width="0.25" stroke-miterlimit="10" x1="-25" y1="43.75" x2="125" y2="43.75"/>
							<line fill="none" stroke="#000000" stroke-width="0.25" stroke-miterlimit="10" x1="-25" y1="46.875" x2="125" y2="46.875"/>
							<line fill="none" stroke="#000000" stroke-width="0.25" stroke-miterlimit="10" x1="-25" y1="50" x2="125" y2="50"/>
							<line fill="none" stroke="#000000" stroke-width="0.25" stroke-miterlimit="10" x1="-25" y1="53.125" x2="125" y2="53.125"/>
							<line fill="none" stroke="#000000" stroke-width="0.25" stroke-miterlimit="10" x1="-25" y1="56.25" x2="125" y2="56.25"/>
							<line fill="none" stroke="#000000" stroke-width="0.25" stroke-miterlimit="10" x1="-25" y1="59.375" x2="125" y2="59.375"/>
							<line fill="none" stroke="#000000" stroke-width="0.25" stroke-miterlimit="10" x1="-25" y1="62.5" x2="125" y2="62.5"/>
							<line fill="none" stroke="#000000" stroke-width="0.25" stroke-miterlimit="10" x1="-25" y1="65.625" x2="125" y2="65.625"/>
							<line fill="none" stroke="#000000" stroke-width="0.25" stroke-miterlimit="10" x1="-25" y1="68.75" x2="125" y2="68.75"/>
							<line fill="none" stroke="#000000" stroke-width="0.25" stroke-miterlimit="10" x1="-25" y1="71.875" x2="125" y2="71.875"/>
							<line fill="none" stroke="#000000" stroke-width="0.25" stroke-miterlimit="10" x1="-25" y1="75" x2="125" y2="75"/>
							<line fill="none" stroke="#000000" stroke-width="0.25" stroke-miterlimit="10" x1="-25" y1="78.125" x2="125" y2="78.125"/>
							<line fill="none" stroke="#000000" stroke-width="0.25" stroke-miterlimit="10" x1="-25" y1="81.25" x2="125" y2="81.25"/>
							<line fill="none" stroke="#000000" stroke-width="0.25" stroke-miterlimit="10" x1="-25" y1="84.375" x2="125" y2="84.375"/>
							<line fill="none" stroke="#000000" stroke-width="0.25" stroke-miterlimit="10" x1="-25" y1="87.5" x2="125" y2="87.5"/>
							<line fill="none" stroke="#000000" stroke-width="0.25" stroke-miterlimit="10" x1="-25" y1="90.625" x2="125" y2="90.625"/>
							<line fill="none" stroke="#000000" stroke-width="0.25" stroke-miterlimit="10" x1="-25" y1="93.75" x2="125" y2="93.75"/>
							<line fill="none" stroke="#000000" stroke-width="0.25" stroke-miterlimit="10" x1="-25" y1="96.875" x2="125" y2="96.875"/>
							<line fill="none" stroke="#000000" stroke-width="0.25" stroke-miterlimit="10" x1="-25" y1="100" x2="125" y2="100"/>
							
								<line fill="none" stroke="#000000" stroke-width="0.25" stroke-miterlimit="10" x1="-25" y1="103.125" x2="125" y2="103.125"/>
							<line fill="none" stroke="#000000" stroke-width="0.25" stroke-miterlimit="10" x1="-25" y1="106.25" x2="125" y2="106.25"/>
							
								<line fill="none" stroke="#000000" stroke-width="0.25" stroke-miterlimit="10" x1="-25" y1="109.375" x2="125" y2="109.375"/>
							<line fill="none" stroke="#000000" stroke-width="0.25" stroke-miterlimit="10" x1="-25" y1="112.5" x2="125" y2="112.5"/>
							
								<line fill="none" stroke="#000000" stroke-width="0.25" stroke-miterlimit="10" x1="-25" y1="115.625" x2="125" y2="115.625"/>
							<line fill="none" stroke="#000000" stroke-width="0.25" stroke-miterlimit="10" x1="-25" y1="118.75" x2="125" y2="118.75"/>
							
								<line fill="none" stroke="#000000" stroke-width="0.25" stroke-miterlimit="10" x1="-25" y1="121.875" x2="125" y2="121.875"/>
						</g>
						<path d="M124.805-24.805v149.61h-149.61v-149.61H124.805 M125-25H-25v150h150V-25z"/>
					</g>
				</g>
			</g>
		</g>
		<g>
			<rect opacity="0.3" fill="#F44336" enable-background="new    " width="3.125" height="100"/>
			<rect x="96.875" opacity="0.3" fill="#F44336" enable-background="new    " width="3.125" height="100"/>
			<rect x="3.125" opacity="0.3" fill="#F44336" enable-background="new    " width="93.75" height="3.125"/>
			<rect x="3.125" y="96.875" opacity="0.3" fill="#F44336" enable-background="new    " width="93.75" height="3.125"/>
		</g>
	</g>
</g>
</svg>
